<svg width="142" height="89" viewBox="0 0 142 89" fill="none" xmlns="http://www.w3.org/2000/svg">
<g id="Frame 8">
<path id="Ellipse 2" d="M115.528 44.5C115.528 69.0767 95.605 89 71.0283 89C46.4516 89 26.5283 69.0767 26.5283 44.5C26.5283 19.9233 46.4516 0 71.0283 0C95.605 0 115.528 19.9233 115.528 44.5Z" fill="#0054A6"/>
<path id="Ellipse 2 (Stroke)" fill-rule="evenodd" clip-rule="evenodd" d="M71.0283 87C94.5004 87 113.528 67.9721 113.528 44.5C113.528 21.0279 94.5004 2 71.0283 2C47.5562 2 28.5283 21.0279 28.5283 44.5C28.5283 67.9721 47.5562 87 71.0283 87ZM71.0283 89C95.605 89 115.528 69.0767 115.528 44.5C115.528 19.9233 95.605 0 71.0283 0C46.4516 0 26.5283 19.9233 26.5283 44.5C26.5283 69.0767 46.4516 89 71.0283 89Z" fill="white"/>
<path id="Vector 1" d="M51.0029 30.0371L0.94043 56.7371L43.7717 43.3871L89.9404 59.5184L140.559 32.8184L97.1717 46.7246L51.0029 30.0371Z" fill="white"/>
<path id="Vector 1 (Stroke)" fill-rule="evenodd" clip-rule="evenodd" d="M50.7677 29.5959C50.8926 29.5293 51.0399 29.5188 51.173 29.5669L97.1814 46.1965L140.407 32.3422C140.653 32.2631 140.92 32.3857 141.02 32.6247C141.121 32.8636 141.022 33.1397 140.793 33.2606L90.1738 59.9606C90.0509 60.0254 89.9067 60.0362 89.7756 59.9904L43.7628 43.9136L1.0893 57.2145C0.843007 57.2912 0.578742 57.168 0.479219 56.93C0.379696 56.692 0.477592 56.4173 0.705221 56.2959L50.7677 29.5959ZM51.0421 30.5829L5.86006 54.68L43.623 42.9098C43.7254 42.8778 43.8354 42.8797 43.9367 42.9151L89.8999 58.9745L135.291 35.032L97.3244 47.2008C97.2191 47.2345 97.1057 47.2324 97.0018 47.1948L51.0421 30.5829Z" fill="white"/>
</g>
</svg>
