<svg width="167" height="55" viewBox="0 0 167 55" fill="none" xmlns="http://www.w3.org/2000/svg">
<g id="Frame" clip-path="url(#clip0_4493_3432)">
<g id="Group">
<path id="Vector" d="M135.361 30.7978C136.602 30.23 137.686 29.4124 138.837 28.6856C139.356 28.3677 139.356 28.0497 138.747 27.8453C138.295 27.6863 137.889 27.5955 138.182 26.9141C138.476 26.2555 138.882 26.6416 139.221 26.7552C140.553 27.2321 141.885 27.7317 143.217 28.2314C143.533 28.345 143.939 28.3904 143.713 28.9582C143.533 29.4124 143.352 29.5714 142.855 29.367C141.659 28.9127 140.666 29.4805 139.65 30.0483C137.686 31.1385 137.663 31.1385 137.934 33.3415C138.16 35.2493 138.453 37.1343 138.679 39.0421C138.747 39.6326 138.95 40.1322 139.514 40.3593C139.988 40.541 139.921 40.8136 139.785 41.1997C139.605 41.7447 139.289 41.563 138.95 41.4268C138.498 41.2451 138.07 40.9726 137.595 40.9044C135.609 40.6092 135.044 39.4055 135.067 37.5431C135.09 36.1123 134.819 34.6588 134.661 33.2052C134.209 33.2279 134.209 33.5459 134.119 33.773C133.758 34.795 133.442 35.817 133.103 36.8163C132.922 37.3387 132.651 37.8611 133.464 38.1563C133.871 38.3153 133.532 38.656 133.487 38.9058C133.419 39.2238 133.216 39.3146 132.9 39.2011C131.432 38.7014 129.965 38.2245 128.475 37.7475C128.091 37.634 128.046 37.4296 128.182 37.0889C128.294 36.7936 128.34 36.4075 128.814 36.5892C129.265 36.7709 129.536 36.6801 129.694 36.1804C130.71 33.0008 131.726 29.7985 132.742 26.6189C132.764 26.528 132.719 26.4372 132.719 26.2782C132.132 26.5962 131.681 27.0958 130.958 26.9368C130.281 26.7779 129.852 26.3236 129.423 25.824C128.994 25.2789 128.475 25.5287 128.091 25.9148C127.55 26.4599 127.233 27.1412 127.03 27.868C126.353 30.1392 125.721 32.433 125.066 34.7042C124.931 35.1584 124.976 35.4764 125.495 35.5899C126.014 35.7035 125.902 36.0214 125.811 36.4075C125.698 36.8845 125.45 36.8391 125.111 36.7482C122.335 36.0214 119.535 35.3401 116.781 34.5225C116.104 34.3181 115.449 34.2272 114.749 34.2045C111.815 34.091 110.167 31.8198 111.002 29.0263C111.137 28.5721 111.002 28.4358 110.618 28.3677C108.948 28.0724 107.345 27.6409 105.787 27.005C105.403 26.846 105.268 27.005 105.223 27.3911C105.11 28.2541 104.974 29.1399 104.839 30.0029C104.726 30.6615 104.952 31.1158 105.652 31.1839C106.193 31.2293 106.239 31.5246 106.171 31.9788C106.081 32.5466 105.719 32.433 105.381 32.3649C103.597 32.1151 101.791 31.8425 100.008 31.6154C99.5789 31.57 99.3757 31.4564 99.3983 30.9568C99.4208 30.4117 99.624 30.2981 100.121 30.389C100.753 30.5026 101.069 30.1392 101.159 29.526C101.34 28.1406 101.498 26.7552 101.724 25.3697C101.814 24.7793 101.407 24.643 101.091 24.3932C98.563 22.44 96.6215 20.0553 95.7862 16.8984C94.364 11.652 96.3506 6.42836 100.979 3.29417C104.749 0.727771 108.993 -0.0898432 113.463 0.182695C120.687 0.591502 126.85 3.56671 132.381 8.10901C135.202 10.4029 137.799 12.9466 140.417 15.4675C141.004 16.0353 141.456 16.1716 142.269 15.8309C149.47 12.8103 159.403 14.6499 164.55 19.8963C165.295 20.6458 165.882 21.4861 166.288 22.4627C167.191 24.6657 166.379 26.7552 164.212 27.709C162.451 28.5039 160.6 28.3677 158.794 27.9816C155.046 27.2094 151.795 25.3243 148.635 23.2803C146.648 21.9857 144.752 20.5776 142.946 19.056C142.449 18.6471 142.133 18.6244 141.659 19.0787C139.108 21.3952 137.573 24.3477 136.376 27.5046C135.97 28.5721 135.699 29.6622 135.361 30.7524C135.315 30.7978 135.248 30.8432 135.27 30.8659C135.248 30.9114 135.315 30.8659 135.361 30.7978ZM113.259 21.3498C113.53 21.1454 113.801 20.941 114.072 20.7593C116.126 20.078 118.158 20.1461 120.1 21.1C121.748 21.8949 122.357 23.2576 121.973 25.0518C121.883 25.4833 121.635 25.8921 121.77 26.3463C122.222 26.4145 122.583 25.8013 122.944 26.0965C123.734 26.7552 123.802 26.1874 123.937 25.5969C124.028 25.1426 124.141 24.7111 124.299 24.2796C124.524 23.6664 124.434 23.2803 123.712 23.1894C123.26 23.144 123.17 22.8942 123.283 22.44C123.396 21.9176 123.644 21.9403 124.05 22.0539C125.066 22.3491 126.105 22.6217 127.143 22.8715C127.843 23.0305 128.543 23.1667 128.136 24.2569C129.22 23.7118 130.213 23.5074 131.252 23.8935C132.313 24.2796 132.968 24.9837 132.697 26.3009C133.148 26.0284 133.171 25.6877 133.284 25.3925C134.638 22.0766 136.534 19.1695 139.605 17.1936C140.304 16.7394 139.853 16.5123 139.514 16.217C136.986 14.0821 134.458 11.9473 131.794 9.99406C126.488 6.06497 120.8 3.04434 114.095 2.43113C110.257 2.06775 106.532 2.363 103.01 4.06636C97.2085 6.85988 94.9961 12.9011 97.6826 18.6244C98.6307 20.6458 100.03 22.281 101.927 23.7118C102.356 20.3505 102.762 17.1709 103.191 13.9913C103.304 13.1737 103.01 12.7422 102.198 12.6967C101.746 12.674 101.588 12.4923 101.633 12.0154C101.701 11.5157 101.972 11.4703 102.378 11.5157C103.462 11.6747 104.568 11.7656 105.652 11.9473C107.525 12.2652 109.444 12.3333 111.228 13.1055C113.395 14.0367 114.682 15.9672 114.501 18.0339C114.433 18.897 114.072 19.6692 113.756 20.4414C113.508 20.6685 113.282 20.9183 113.169 21.2363C113.101 21.3044 113.034 21.3725 112.966 21.4407C111.431 22.7125 109.693 23.3257 107.706 23.2803C107.096 23.2803 106.284 22.8261 105.9 23.303C105.539 23.7345 105.674 24.5521 105.516 25.1653C105.381 25.6877 105.584 25.9148 106.058 26.1192C107.841 26.846 109.67 27.3456 111.566 27.5955C111.724 27.6182 111.927 27.6636 112.04 27.5955C113.734 26.6189 115.698 26.5735 117.504 26.0738C117.774 26.0057 118.113 25.9375 118.203 25.5969C118.429 24.643 118.677 23.7118 118.79 22.7352C118.881 21.9857 118.181 21.4634 117.278 21.4861C116.488 21.5088 116.262 21.9403 116.307 22.6898C116.352 23.621 115.743 24.1888 114.795 24.1888C113.259 24.1888 112.537 23.0305 113.124 21.5315C113.147 21.5088 113.214 21.4179 113.259 21.3498ZM151.727 15.7628C148.499 15.7628 145.993 16.376 143.894 17.4434C143.194 17.7841 143.194 18.0566 143.781 18.4882C144.729 19.2149 145.632 20.0098 146.603 20.7139C149.763 23.0532 153.082 25.1199 156.829 26.3918C158.771 27.0504 160.78 27.4365 162.834 26.846C164.979 26.2328 165.747 24.3932 164.776 22.4173C164.437 21.7359 163.986 21.1454 163.444 20.623C159.922 17.3753 155.656 16.0126 151.727 15.7628ZM110.641 16.8984C110.641 15.0133 109.67 13.855 107.999 13.6506C107.48 13.5825 107.254 13.6733 107.164 14.2638C106.848 16.535 106.509 18.8288 106.148 21.1C106.058 21.5996 106.239 21.7132 106.645 21.804C107.796 22.0312 109.015 21.4861 109.693 20.3505C110.325 19.2376 110.55 18.0339 110.641 16.8984ZM123.599 26.9141C123.531 26.846 123.463 26.7779 123.396 26.7097C122.764 27.2321 121.612 27.0958 121.341 27.9589C120.754 29.7758 120.371 31.6608 119.942 33.5232C119.784 34.2727 120.461 34.2045 120.89 34.3635C121.274 34.4998 121.635 34.4998 121.793 33.9547C122.357 31.5927 122.989 29.2534 123.599 26.9141ZM114.072 30.8659C114.14 31.2066 114.162 31.5473 114.275 31.8425C114.546 32.5239 115.065 32.8418 115.788 32.8418C116.555 32.8418 116.691 32.2513 116.826 31.6608C116.939 31.1158 117.075 30.5934 117.187 30.0483C117.526 28.6175 117.526 28.6175 116.104 28.7083C115.901 28.7311 115.72 28.7538 115.517 28.7311C114.772 28.6175 114.456 29.0036 114.298 29.6622C114.253 30.0483 114.162 30.4571 114.072 30.8659Z" fill="white"/>
<path id="Vector_2" d="M52.6674 32.4585C51.945 32.9581 51.0871 32.8673 50.297 33.049C49.2134 33.2761 48.1298 33.5941 47.0236 33.6168C46.9333 33.049 46.7301 32.4358 47.6557 32.3449C48.0395 32.2995 47.9943 31.9361 47.9266 31.6409C47.3396 28.6202 46.7527 25.5996 46.1432 22.579C45.9851 21.8295 45.5788 21.2617 44.6532 21.4434C43.7728 21.6251 43.3213 22.2156 43.5244 23.1468C44.134 26.122 44.7886 29.0972 45.4207 32.0724C45.4659 32.3222 45.5562 32.6856 45.8497 32.6402C46.7075 32.4812 46.6398 33.1398 46.8204 33.6168C45.6691 34.1619 44.3823 34.23 43.1858 34.5479C41.6507 34.9568 40.1382 35.3883 38.5805 35.6835C37.6097 35.8652 36.7519 36.2059 35.8489 36.5693C33.4108 37.5913 30.9049 36.3649 30.4308 34.0029C30.1825 32.731 30.634 31.6636 31.5145 30.8233C32.4175 29.9375 33.3882 29.1426 34.3815 28.3477C35.0588 27.8253 35.3522 27.2803 34.991 26.4399C34.7653 25.8722 34.675 25.2362 34.4492 24.6684C34.1106 23.7827 33.4785 23.5783 32.5529 24.0098C31.7402 24.3959 31.6951 24.8956 32.1466 25.645C32.6884 26.5535 32.124 27.5528 30.9952 27.8253C30.5437 27.9389 30.0922 27.8935 29.5504 27.7118C29.6407 28.3477 29.731 28.9155 29.8213 29.4606C30.7243 35.9333 26.9317 41.9746 20.9493 43.5417C18.5112 44.1776 16.1182 44.1322 14.109 42.2699C13.7252 41.9065 13.4092 42.1336 13.048 42.2471C10.4518 43.201 7.85569 43.2465 5.28212 42.179C1.15087 40.4529 -0.835748 36.0242 0.541337 31.5955C1.7604 27.6891 4.35654 24.8274 7.69766 22.6698C11.8515 19.9672 16.3891 18.6499 21.3556 19.6719C24.5387 20.3305 26.9543 22.102 28.4894 25.0091C28.5797 25.1681 28.67 25.3271 28.8054 25.5542C30.0696 23.5783 31.9208 22.7153 34.0429 22.3519C36.2327 21.9885 37.7226 22.9651 38.2644 25.0773C38.9191 27.6664 39.5512 30.2555 40.2059 32.8446C40.4542 33.8439 40.6574 33.9347 41.6281 33.6395C42.0571 33.5032 42.1925 33.2761 42.1022 32.8673C41.3346 29.5741 40.5671 26.281 39.8221 22.9878C39.6867 22.42 39.3706 22.3064 38.8965 22.4881C38.3999 22.6698 38.2193 22.5109 38.0838 22.0112C37.9484 21.4434 38.3096 21.4207 38.6482 21.3299C39.8447 21.0573 41.0412 20.6031 42.2377 20.5577C43.1181 20.535 43.7502 20.1716 44.4726 19.899C45.6691 19.4675 46.8881 19.3312 48.062 19.899C48.5135 20.1261 48.7167 19.9899 49.0554 19.6946C50.0938 18.7407 51.3354 18.3774 52.7125 18.4455C54.5863 18.559 55.6924 19.5811 55.9859 21.4434C56.3923 24.1461 56.7535 26.8488 57.1373 29.5514C57.205 30.0965 57.1824 30.7097 58.0628 30.5507C58.4918 30.4826 58.4466 30.8914 58.4918 31.1639C58.5369 31.4365 58.5369 31.7317 58.1757 31.7544C56.4149 31.9134 54.6991 32.4585 52.8931 32.3904C52.9834 32.0043 52.5093 31.391 53.2543 31.3002C53.9542 31.2094 53.8639 30.7778 53.7961 30.3009C53.5252 28.5294 53.2543 26.7806 52.9609 25.0091C52.7577 23.7373 52.5545 22.4427 52.2836 21.1709C52.103 20.3987 51.5612 20.0353 50.7485 20.2397C50.0035 20.4441 49.5069 20.8983 49.6423 21.7159C50.1615 24.7593 50.7259 27.7799 51.2677 30.8233C51.3354 31.1639 51.4032 31.55 51.8321 31.4592C52.6448 31.3456 52.5545 31.9815 52.6674 32.4585ZM15.012 36.5011C15.7796 36.1605 16.5471 35.9561 17.247 36.6828C17.8339 37.296 17.8565 38.2953 17.3373 39.2265C16.9083 39.976 16.2988 40.5665 15.5764 40.998C14.7863 41.4295 14.9894 41.7021 15.599 42.0882C17.9016 43.5417 22.5973 42.5651 24.4484 40.2485C24.0647 40.135 23.7486 40.3848 23.4325 40.4984C21.9426 41.0434 20.4752 41.6339 19.0078 42.2017C18.6692 42.338 18.3531 42.5197 18.1274 42.02C17.9242 41.5431 18.0597 41.2933 18.5112 41.1343C19.2336 40.8845 19.2787 40.3621 19.0078 39.7262C18.5789 38.7041 18.1951 37.6821 17.7888 36.6601C16.8406 34.2527 16.5471 34.23 14.854 36.3649C14.7863 36.4557 14.696 36.5238 14.6282 36.6147C14.8088 36.7282 14.9217 36.6374 15.012 36.5011ZM21.3556 32.027C22.8682 32.1632 24.2904 32.4131 25.6901 32.8673C26.3899 33.0944 26.5705 32.9127 26.4576 32.2314C25.961 29.3016 25.0805 26.5308 23.2294 24.1688C21.5588 22.0566 19.3916 20.8302 16.6826 20.9892C10.7679 21.3526 6.27543 24.1234 3.58898 29.4833C2.18932 32.2768 2.3022 35.1612 4.01791 37.8638C5.89165 40.839 9.2102 42.179 12.2804 41.2251C12.8222 41.0661 13.1383 40.9072 12.8674 40.2258C12.5965 39.5218 12.619 38.7723 12.7996 38.0228C13.2512 36.2513 14.3799 35.0249 15.8699 34.0256C16.1859 33.8212 16.6826 33.7303 16.4117 33.0944C15.6893 31.391 15.0346 29.6423 14.3573 27.9389C14.1542 27.4165 13.8155 27.1213 13.2286 27.2803C12.5965 27.4392 12.5062 26.9623 12.461 26.5535C12.4159 26.1901 12.8448 26.1901 13.0705 26.0311C14.109 25.3952 15.3958 24.9183 15.3281 23.3966C15.3055 22.738 15.6667 22.6471 16.0956 22.5109C16.7503 22.261 16.6826 22.8742 16.7955 23.1695C17.4727 24.9183 18.1274 26.6898 18.7821 28.4613C19.4142 30.1873 19.4142 30.1873 21.1525 29.5514C22.4844 29.0745 22.4844 29.0745 22.8682 30.1419C23.2971 31.3002 23.2971 31.3002 22.1232 31.7317C21.8974 31.8226 21.6265 31.9361 21.3556 32.027ZM24.7193 40.0668C26.1416 38.4316 26.6156 36.6147 26.6156 34.5934C26.6156 34.3208 26.5028 34.1846 26.2544 34.0937C24.629 33.5032 22.981 33.1398 21.2428 33.1853C20.7461 33.1853 20.6332 33.4351 20.7913 33.8666C21.3782 35.4337 21.9652 37.0235 22.5747 38.5906C22.7101 38.9313 22.9585 39.3401 23.3422 39.1584C24.2001 38.795 24.4936 39.2719 24.7193 40.0668ZM35.6683 34.9568C36.4584 34.9568 37.0454 34.4571 36.9099 33.8212C36.5713 32.3449 36.1424 30.8687 35.7586 29.3924C35.6909 29.0972 35.578 29.0518 35.2845 29.2335C33.6365 30.2782 33.0947 32.2087 34.0654 33.912C34.4041 34.5025 34.8782 34.9568 35.6683 34.9568ZM13.793 38.9086C13.8607 39.4082 13.7027 40.135 14.2219 40.2485C14.6508 40.3621 15.0797 39.7716 15.3732 39.3401C15.4409 39.2265 15.5087 39.113 15.5538 38.9994C15.8247 38.2045 15.3958 37.5232 14.3573 37.4096C13.8607 37.3415 13.9961 38.0228 13.8607 38.3408C13.7704 38.4997 13.8155 38.7269 13.793 38.9086Z" fill="white"/>
<path id="Vector_3" d="M75.6484 44.0604C73.865 48.5346 69.5757 49.7383 65.3542 49.1705C62.2162 48.739 59.3266 47.5126 56.3693 46.4224C53.5699 45.3777 50.7932 44.3102 47.723 44.4919C45.8718 44.6055 44.2464 45.2187 43.0273 46.6949C41.6954 48.3302 41.6728 50.3515 42.9596 52.1003C44.0884 53.622 46.0524 54.1216 47.9261 53.3267C50.2062 52.3728 50.748 49.3749 48.9646 47.6488C47.9487 46.6722 46.233 46.7404 45.33 47.8305C44.8334 48.421 44.6753 49.0797 44.9688 49.8291C45.1946 50.4196 45.6009 50.8057 46.2782 50.8057C46.7748 50.8057 47.1586 50.5559 47.294 50.0562C47.4746 49.3522 46.82 49.2386 46.2104 48.7844C47.1134 48.6481 47.7455 48.421 48.3325 49.0115C48.9195 49.602 49.0549 50.3061 48.7389 51.0783C48.3099 52.1003 47.0006 52.7135 45.8944 52.3955C44.6979 52.0549 43.9755 51.2145 43.682 50.0335C43.366 48.7617 43.8852 47.717 44.8108 46.8994C46.5491 45.3777 49.0098 45.4685 50.3643 47.1038C51.8542 48.8752 51.6285 51.6688 49.845 53.2586C47.6327 55.2345 43.9755 55.0982 42.2146 53.0087C40.1829 50.5559 40.5892 47.1946 43.2305 45.196C45.6686 43.3336 48.4454 43.3109 51.2898 43.8787C54.4052 44.4919 57.34 45.7411 60.3876 46.6041C63.0515 47.3536 65.7379 47.9214 68.5147 47.3309C70.4336 46.9448 72.1267 46.1044 73.4361 44.6055C74.8132 43.0157 75.0163 40.7218 73.9779 38.973C72.9394 37.1788 70.8851 36.2477 68.8307 36.6792C66.0766 37.2697 64.09 38.7913 63.1644 41.5621C63.0741 41.812 63.187 42.3571 62.6677 42.1981C62.2614 42.0845 62.2614 41.6984 62.3742 41.2896C63.2547 37.7012 67.8826 34.9304 71.4495 35.8616C73.3909 36.3839 74.7003 37.6785 75.6033 40.0178C75.9193 39.9269 75.8968 39.609 75.9871 39.4046C77.2739 36.5883 79.7797 35.2029 82.7822 35.8843C85.7621 36.5429 87.8842 38.3144 88.9226 41.2669C89.1258 41.812 89.0807 42.2208 88.4034 42.4025C88.2454 41.9482 88.0874 41.4713 87.9068 41.0398C86.7103 38.0192 83.2111 36.0887 80.3215 36.7927C76.8449 37.6331 75.4453 41.9255 77.8382 44.6055C80.3215 47.399 83.5498 47.9441 87.0715 47.5353C89.8934 47.1946 92.5347 46.218 95.1985 45.355C97.8398 44.4919 100.504 43.6289 103.326 43.7652C105.628 43.8787 107.615 44.6509 109.105 46.4905C110.504 48.2166 110.663 50.3742 109.601 52.3274C108.586 54.167 106.644 55.0982 104.432 54.803C102.242 54.5077 100.549 53.145 100.03 51.2145C99.5104 49.3295 100.391 47.1719 102.016 46.3543C103.642 45.5367 105.899 46.1499 107.05 47.7397C107.953 48.9661 107.863 50.5332 106.825 51.6688C105.899 52.6908 104.612 52.9406 103.506 52.282C102.716 51.8277 102.242 51.1464 102.377 50.1925C102.558 49.0342 103.393 48.6254 104.816 48.9661C104.906 49.1478 104.748 49.1932 104.635 49.2386C104.048 49.4885 103.664 49.8973 104.093 50.5105C104.499 51.101 105.132 51.1464 105.719 50.7376C106.464 50.2379 106.622 49.0115 106.057 48.1939C105.222 46.9675 103.393 46.7631 102.31 47.7851C100.504 49.4885 100.978 52.441 103.235 53.463C105.109 54.3033 107.163 53.7809 108.337 52.1684C109.579 50.4423 109.489 48.2848 108.044 46.7177C106.17 44.6736 103.777 44.4465 101.249 44.7645C98.4268 45.1279 95.8306 46.2407 93.1893 47.2173C90.39 48.2393 87.5907 49.3068 84.5882 49.3976C81.5406 49.5112 78.8315 48.6708 76.7998 46.218C76.3031 45.5821 76.0322 44.8099 75.6484 44.0604Z" fill="white"/>
<path id="Vector_4" d="M72.4203 23.5519C72.5332 22.0529 72.6912 20.8265 73.2105 19.6909C74.0909 17.7604 75.4454 16.4432 77.6578 16.2842C79.3283 16.1479 80.6151 16.8066 81.5633 18.1692C82.4437 19.4411 82.7598 20.8946 82.8275 22.4163C82.8726 23.0749 82.6017 23.4156 81.8568 23.4156C80.1862 23.3929 78.4931 23.461 76.8225 23.4383C76.213 23.4383 76.0549 23.6654 76.0775 24.2559C76.1227 25.3007 76.1904 26.3454 76.529 27.322C76.7322 27.9806 77.0708 28.5938 77.861 28.7074C78.7188 28.8209 79.4638 28.6392 80.0282 27.9125C80.4571 27.3674 80.7054 26.7315 80.8635 26.0728C81.1344 24.9827 81.9245 25.5278 82.4211 25.6186C83.0758 25.7322 82.5792 26.2545 82.4889 26.5498C81.9019 28.3213 80.9989 29.843 78.9897 30.2291C77.0257 30.5924 75.4454 29.8202 74.1586 28.344C73.82 27.9579 73.5943 27.481 73.3008 27.0494C73.1428 26.8223 73.1428 26.4817 72.8493 26.3227C72.4881 26.3454 72.6009 26.6406 72.5558 26.845C71.9011 29.5477 69.9597 31.1148 67.1829 31.1602C66.0767 31.1829 64.9931 31.0921 63.8869 31.0921C63.4354 31.0921 63.1645 30.9558 63.1194 30.4562C63.0065 29.0935 62.8711 27.7308 62.713 26.3908C62.6679 25.9593 62.6905 25.6413 63.2323 25.5732C63.7741 25.5051 63.9547 25.7095 64.0675 26.2091C64.2707 27.1403 64.6771 28.0033 65.3092 28.7074C66.2347 29.7521 67.6344 30.0474 68.7406 29.4342C69.6888 28.9118 70.0274 27.7989 69.6888 26.4362C69.3727 25.2098 68.6051 24.3014 67.6796 23.5064C66.4379 22.4617 65.1511 21.4624 63.9095 20.4404C63.3226 19.9635 62.8259 19.4184 62.397 18.8052C60.2523 15.8527 61.2682 12.2415 64.6319 10.8561C66.596 10.0612 68.6277 10.2656 70.6595 10.47C71.0433 10.5155 71.1336 10.7426 71.1561 11.0605C71.2013 12.2188 71.269 13.3998 71.3367 14.5581C71.3593 14.9442 71.2013 15.1032 70.8401 15.1032C70.4789 15.1032 70.0274 15.2622 69.9371 14.6717C69.8468 14.1493 69.6662 13.6724 69.3953 13.2181C68.56 11.7873 66.8217 11.3104 65.4672 12.1507C64.2707 12.8775 63.9998 14.4218 64.8351 15.8527C65.0383 16.2161 65.3092 16.5567 65.6026 16.852C66.009 17.2835 66.4379 17.6696 66.8894 18.033C68.876 19.6001 71.111 20.9173 72.4203 23.5519ZM77.7932 22.0983C78.019 22.0756 78.4479 22.0529 78.8543 22.0302C79.1252 22.0302 79.2832 21.9166 79.2832 21.6214C79.2832 20.4404 79.2606 19.2594 78.764 18.192C78.335 17.2835 77.5449 17.2381 76.958 18.0557C76.4613 18.7597 76.3258 19.6228 76.1904 20.4404C75.8969 22.121 75.9195 22.121 77.7932 22.0983Z" fill="white"/>
<path id="Vector_5" d="M83.7078 23.4609C83.7078 21.8029 83.7078 20.145 83.7304 18.4871C83.7304 17.9193 83.595 17.6013 82.9854 17.6467C82.4662 17.6922 82.3308 17.465 82.3308 16.9654C82.3308 16.4203 82.692 16.443 83.0532 16.443C84.2722 16.4884 85.6042 16.2613 86.7103 16.6247C87.6811 16.9427 88.4035 16.5566 89.2388 16.5566C89.7806 16.5566 90.3449 16.5339 90.8867 16.6247C93.2797 17.0562 94.3633 18.5325 94.1601 20.9853C93.9344 23.5063 93.7538 26.05 93.5506 28.571C93.5055 29.1388 93.3926 29.6838 94.2504 29.752C94.7471 29.7974 94.5439 30.2516 94.5439 30.5469C94.5213 30.9784 94.2279 30.9784 93.9118 30.9557C92.3541 30.8421 90.819 30.7058 89.2613 30.615C88.8776 30.5923 88.7421 30.4333 88.7873 30.0699C88.8098 29.7293 88.7873 29.3659 89.2839 29.434C90.0289 29.5249 90.0966 29.0933 90.1418 28.5028C90.2998 25.732 90.4804 22.9839 90.6384 20.2358C90.7061 18.9413 90.2546 18.2827 89.2613 18.1237C88.11 17.942 87.2973 18.5779 87.2521 19.7816C87.1393 22.5978 87.049 25.4368 86.9361 28.2757C86.9135 28.7981 86.8232 29.3432 87.6359 29.3659C88.1326 29.3659 87.952 29.8428 87.9746 30.1381C87.9971 30.4787 87.8165 30.5923 87.5005 30.5923C85.8751 30.5469 84.2722 30.4787 82.6468 30.4333C82.2405 30.4106 82.1953 30.1608 82.1953 29.8428C82.1953 29.5476 82.1953 29.1842 82.6242 29.2296C83.5272 29.3204 83.5272 28.7527 83.5047 28.1167C83.4821 26.5951 83.5047 25.0507 83.5047 23.529C83.5724 23.4609 83.6401 23.4609 83.7078 23.4609Z" fill="white"/>
<path id="Vector_6" d="M22.5068 51.2846C18.1723 51.2619 13.8605 51.2619 9.52605 51.2392C9.07455 51.2392 8.62305 51.3528 8.62305 50.6033C8.62305 49.8311 9.1197 49.9901 9.54863 49.9901C18.1498 50.0128 26.7283 50.0355 35.3295 50.0582C35.4875 50.0582 35.6455 50.0809 35.8035 50.0582C36.255 50.0355 36.3228 50.308 36.3228 50.6941C36.3228 51.0802 36.255 51.3301 35.8035 51.3074C35.3746 51.2846 34.9683 51.3074 34.5393 51.3074C30.521 51.3074 26.5251 51.3074 22.5068 51.2846Z" fill="white"/>
<path id="Vector_7" d="M126.714 50.3306C130.981 50.3533 135.248 50.3533 139.514 50.376C139.921 50.376 140.53 50.0808 140.553 50.9665C140.575 51.8068 140.011 51.6024 139.582 51.6024C131.026 51.5797 122.447 51.557 113.891 51.5343C113.553 51.5343 112.988 51.8068 112.921 51.1028C112.853 50.535 113.011 50.2852 113.643 50.2852C115.81 50.3306 117.978 50.3079 120.145 50.3079C122.312 50.3079 124.502 50.3306 126.714 50.3306Z" fill="white"/>
<path id="Vector_8" d="M29.5957 23.1206C29.9343 21.4854 30.273 19.9183 30.589 18.3285C30.6567 17.9878 30.9276 17.897 31.2211 17.7834C33.1852 17.1248 33.1626 17.1248 34.5622 18.6919C35.2621 19.4868 35.9845 20.2817 36.752 21.1447C36.007 21.5308 35.3975 21.6898 34.7203 21.0766C34.043 20.4861 33.2529 19.4868 32.553 19.623C31.8081 19.782 31.6726 21.0993 31.3791 21.9169C31.0631 22.8026 30.5213 23.0752 29.5957 23.1206Z" fill="white"/>
<path id="Vector_9" d="M38.3999 17.376C37.2034 17.8529 36.2553 17.9438 35.2168 17.535C33.6366 16.9217 31.9886 16.4675 30.3857 15.7862C31.379 15.5136 32.3724 15.2411 33.3657 14.9913C33.5237 14.9458 33.7494 15.014 33.93 15.0821C35.3297 15.8089 36.7745 16.5357 38.3999 17.376Z" fill="white"/>
<path id="Vector_10" d="M135.36 30.7979C135.293 30.866 135.247 30.9114 135.18 30.8206C135.18 30.8206 135.247 30.7525 135.27 30.707C135.315 30.7297 135.338 30.7525 135.36 30.7979Z" fill="white"/>
</g>
</g>
<defs>
<clipPath id="clip0_4493_3432">
<rect width="166.718" height="54.9618" fill="white"/>
</clipPath>
</defs>
</svg>
