<svg width="32" height="32" viewBox="0 0 32 32" fill="none" xmlns="http://www.w3.org/2000/svg">
<g id="Messenger Outline 1">
<path id="Vector" fill-rule="evenodd" clip-rule="evenodd" d="M16.0023 2.66602C8.49177 2.66602 2.66699 8.16794 2.66699 15.6008C2.66699 19.4886 4.26086 22.8468 6.85397 25.1661C7.06955 25.3613 7.20135 25.6311 7.21157 25.9252L7.28513 28.2987C7.29041 28.4732 7.33852 28.6438 7.42523 28.7952C7.51194 28.9468 7.63459 29.0747 7.78237 29.1676C7.93014 29.2605 8.09851 29.3157 8.27263 29.3284C8.44676 29.3409 8.62133 29.3105 8.78091 29.2397L11.4282 28.073C11.654 27.9748 11.9043 27.9555 12.1393 28.0188C13.3551 28.3528 14.6497 28.5338 15.9983 28.5338C23.5089 28.5338 29.3337 23.0328 29.3337 15.5999C29.3337 8.16794 23.5099 2.66602 16.0023 2.66602ZM23.0042 12.7707L19.6653 18.0663C19.5395 18.2656 19.3739 18.4368 19.1789 18.5689C18.9838 18.7011 18.7635 18.7915 18.5318 18.8343C18.3001 18.8771 18.0621 18.8713 17.8326 18.8176C17.6031 18.7639 17.3874 18.6632 17.1989 18.522L14.5423 16.5316C14.4241 16.4432 14.2803 16.3955 14.1326 16.3955C13.985 16.3955 13.8413 16.4432 13.723 16.5316L10.1388 19.2524C9.66367 19.6152 9.03533 19.042 9.3541 18.5372L12.693 13.2417C12.8187 13.0424 12.9843 12.8713 13.1794 12.7391C13.3745 12.6069 13.5947 12.5166 13.8265 12.4738C14.0582 12.431 14.2962 12.4366 14.5257 12.4904C14.7551 12.5441 14.9709 12.6448 15.1594 12.7861L17.8159 14.7764C17.9342 14.8647 18.0779 14.9125 18.2257 14.9125C18.3733 14.9125 18.517 14.8647 18.6353 14.7764L22.2195 12.0555C22.6997 11.6877 23.3281 12.2609 23.0042 12.7707Z" fill="#259E58"/>
</g>
</svg>
