<svg width="32" height="32" viewBox="0 0 32 32" fill="none" xmlns="http://www.w3.org/2000/svg">
<g id="phone-flip">
<path id="Icon" d="M28 7.33333C28 18.7472 18.7472 28 7.33333 28C6.81837 28 6.30781 27.9812 5.8023 27.9441C5.22216 27.9017 4.93209 27.8804 4.66804 27.7284C4.44935 27.6025 4.24194 27.3793 4.13234 27.152C4 26.8776 4 26.5575 4 25.9173V22.1609C4 21.6226 4 21.3534 4.0886 21.1226C4.16687 20.9188 4.29399 20.7373 4.4588 20.5941C4.64538 20.432 4.89834 20.34 5.40427 20.156L5.40428 20.156L9.68006 18.6012C10.2687 18.3871 10.563 18.2801 10.8423 18.2983C11.0885 18.3143 11.3254 18.3983 11.5267 18.541C11.755 18.7029 11.9162 18.9714 12.2384 19.5085L13.3333 21.3333C16.8665 19.7332 19.7308 16.8652 21.3333 13.3333L19.5085 12.2384C18.9714 11.9162 18.7029 11.755 18.541 11.5267C18.3983 11.3254 18.3143 11.0885 18.2983 10.8423C18.2801 10.563 18.3871 10.2687 18.6012 9.68008L18.6012 9.68006L20.156 5.40428C20.34 4.89835 20.432 4.64538 20.5941 4.4588C20.7373 4.29399 20.9188 4.16686 21.1226 4.0886C21.3534 4 21.6226 4 22.1609 4H25.9173C26.5575 4 26.8776 4 27.152 4.13234C27.3793 4.24194 27.6025 4.44935 27.7284 4.66804C27.8804 4.93209 27.9017 5.22216 27.9441 5.8023C27.9812 6.30781 28 6.81837 28 7.33333Z" fill="#259E58"/>
</g>
</svg>
