<svg width="106" height="225" viewBox="0 0 106 225" fill="none" xmlns="http://www.w3.org/2000/svg">
<g id="Frame" filter="url(#filter0_d_2853_62954)">
<g id="Group">
<path id="Vector" d="M32.3555 190.539V199.923L40.9114 201.95L41.8301 191.466L32.3555 190.539Z" fill="#E38680"/>
<path id="Vector_2" d="M71.1758 190.539L72.554 201.429L62.6773 202.877L61.7012 191.466L71.1758 190.539Z" fill="#E38680"/>
<path id="Vector_3" d="M28.7422 100.064V191.814L47.4618 192.915L49.3567 110.491L51.8833 111.128L57.7978 193.204L73.2443 191.119L70.6603 100.064H28.7422Z" fill="#3B2539"/>
<path id="Vector_4" d="M24.2617 53.0865L27.1902 104.232L72.2666 102.379L73.1854 50.6537C73.1854 50.6537 33.8512 46.3674 24.2617 53.0865Z" fill="#F24052"/>
<path id="Vector_5" d="M73.1846 50.6547L24.3184 53.0875C24.3758 52.7979 24.3758 52.5082 24.4332 52.1607C24.4906 51.8132 24.548 51.4656 24.6055 51.0602C24.7203 50.4809 24.8352 49.8438 24.95 49.2066C25.0074 48.8591 25.1223 48.4536 25.1797 48.1061C25.352 47.469 25.5242 46.8318 25.6965 46.2526C25.8113 45.8471 25.9836 45.4996 26.0984 45.152C26.3281 44.6887 26.5004 44.2832 26.7301 43.9357C26.9024 43.704 27.132 43.4723 27.4192 43.2406C27.936 42.8351 28.5676 42.4297 29.2567 42.0821C30.6348 41.3291 32.2426 40.6341 33.6207 40.0548C34.4821 39.7073 35.2286 39.4177 35.7454 39.2439C35.9176 39.186 36.0899 39.1281 36.2047 39.0701C36.4344 39.0122 36.5493 38.9543 36.5493 38.9543L36.9512 38.8385L38.2719 38.433L42.5786 37.1008L51.1919 36.6953L55.9579 37.5642L57.2787 37.7958L58.2548 37.9696L58.5419 38.0275C58.5419 38.0275 58.5994 38.0275 58.7716 38.0855C59.231 38.1434 60.322 38.3751 61.7002 38.7226C63.3654 39.1281 65.4326 39.6494 67.0404 40.2865C67.8443 40.5761 68.5334 40.9237 68.9928 41.2712C69.1076 41.3871 69.2225 41.5029 69.3373 41.5608C69.6244 41.9084 69.9689 42.3717 70.3135 43.0089C70.4857 43.3564 70.658 43.704 70.8877 44.0515C71.1748 44.6307 71.4045 45.21 71.6916 45.8471C71.8639 46.1947 71.9787 46.5422 72.0936 46.9476C72.3232 47.5848 72.5529 48.164 72.7252 48.7433C72.84 49.1487 72.9549 49.4963 73.0697 49.8438C73.0123 50.0755 73.1272 50.423 73.1846 50.6547Z" fill="#F24052"/>
<path id="Vector_6" d="M55.9575 37.5075L55.6704 39.0135L55.2684 41.3883L54.8665 43.5894L54.4071 45.9063L54.0626 48.1074L53.6032 50.4822L53.4309 51.6407L53.0864 53.1467L52.4547 55.8111L51.9379 58.128L51.3637 60.7925L50.8469 62.9356L50.2727 65.6001L49.6985 68.0328H48.7223L47.861 65.7159L46.8274 63.1673L46.0235 61.0242L45.0473 58.4177L44.2434 56.2166L43.2098 53.6101L42.693 52.162L42.291 51.0615L41.602 48.7445L40.9129 46.6014L40.1664 44.2845L39.4773 42.1413L38.7309 39.8824L38.2715 38.3764L42.5781 37.0441L51.1915 36.6387L55.9575 37.5075Z" fill="#B5B5B5"/>
<g id="Group_2">
<path id="Vector_7" d="M54.0641 48.1055L53.6047 50.4803L42.35 51.0595L41.6035 48.7426L54.0641 48.1055Z" fill="#999999"/>
</g>
<g id="Group_3">
<path id="Vector_8" d="M54.8661 43.5879L54.4067 45.9627L40.9125 46.5999L40.166 44.283L54.8661 43.5879Z" fill="#999999"/>
</g>
<g id="Group_4">
<path id="Vector_9" d="M55.67 39.0098L55.268 41.3846L39.477 42.1376L38.7305 39.8786L55.67 39.0098Z" fill="#999999"/>
</g>
<g id="Group_5">
<g id="Group_6">
<path id="Vector_10" d="M36.3209 21.636L55.6147 20.4196C56.0167 16.2491 55.5573 10.8044 55.5573 10.8044C55.5573 10.8044 58.1413 9.35631 56.6483 7.09732C55.4999 5.41755 53.0881 6.63393 53.0881 6.63393C53.0881 6.63393 54.5237 5.24378 52.9733 3.79571C51.4229 2.34764 49.2409 4.49079 49.2409 4.49079C49.2409 4.49079 49.7576 2.52141 47.3459 2.05803C44.9342 1.59465 44.3025 4.49079 44.3025 4.49079C44.3025 4.49079 43.5561 1.59465 41.374 2.05803C39.1346 2.52141 39.3068 4.72248 39.3068 4.72248C39.3068 4.72248 38.1584 3.39025 36.4931 4.54871C34.8279 5.70717 35.6892 8.13993 35.6892 8.13993C35.6892 8.13993 33.6795 7.50278 33.3923 9.53007C33.0478 11.9628 35.517 12.7158 35.517 12.7158C35.1724 16.5967 35.9763 20.3037 36.3209 21.636Z" fill="#3B2539"/>
</g>
<g id="Group_7">
<g id="Group_8">
<path id="Vector_11" d="M51.9957 37.9093C51.9957 37.9093 50.8473 40.342 47.3446 40.5158C43.9566 40.6896 42.4062 38.2568 42.4062 38.2568L42.5211 36.5771V36.2874L42.6934 33.623L51.077 33.4492L51.3641 34.4339L51.4215 34.7814L51.9957 37.9093Z" fill="#E38680"/>
</g>
<g id="Group_9">
<path id="Vector_12" d="M51.3657 34.4339C49.5282 36.1716 46.5422 36.9246 42.5801 36.5771V36.2874L42.7523 33.623L51.136 33.4492L51.3657 34.4339Z" fill="#3B2539"/>
</g>
</g>
<g id="Group_10">
<g id="Group_11">
<path id="Vector_13" d="M39.3656 26.7887C37.643 29.511 33.5086 27.9471 33.6234 24.4138C33.7383 21.2281 37.241 21.5756 37.241 21.5756L39.3656 26.7887Z" fill="#E48888"/>
</g>
<g id="Group_12">
<g id="Group_13">
<g id="Group_14">
<g id="Group_15">
<g id="Group_16">
<path id="Vector_14" d="M37.4707 28.1211C37.4133 28.1211 37.3558 28.1211 37.2984 28.1211C37.1262 28.2948 36.8391 28.4106 36.6095 28.3527C35.8631 28.179 35.9779 27.0207 35.9779 27.0207C35.9779 26.9049 35.9205 26.847 35.8057 26.7891C35.6909 26.7891 35.6335 26.847 35.5761 26.9628C35.5761 27.0207 35.4612 28.4685 36.4947 28.7002C36.7243 28.7581 36.954 28.7002 37.1262 28.6423C37.3558 28.5844 37.5281 28.4106 37.6429 28.2369C37.7003 28.179 37.7577 28.0631 37.7577 28.0052C37.7003 28.0631 37.6429 28.1211 37.4707 28.1211Z" fill="#3B2539"/>
</g>
</g>
</g>
</g>
</g>
<g id="Group_17">
<path id="Vector_15" d="M37.6416 26.9627C37.5268 26.9627 37.412 26.9048 37.412 26.789C36.9527 25.2832 35.3451 24.0092 35.3451 23.9512C35.2303 23.8354 35.2303 23.7196 35.2877 23.6038C35.4025 23.4879 35.5174 23.4879 35.6322 23.5459C35.6896 23.6038 37.3546 24.9937 37.8713 26.6152C37.9287 26.7311 37.8139 26.9048 37.699 26.9048C37.6416 26.9627 37.6416 26.9627 37.6416 26.9627Z" fill="#B33A41"/>
</g>
<g id="Group_18">
<path id="Vector_16" d="M36.8951 25.5724H36.8377C36.1487 25.3986 35.5172 25.5724 35.5172 25.5724C35.4024 25.6303 35.2301 25.5145 35.2301 25.3986C35.1727 25.2827 35.2875 25.1089 35.4024 25.1089C35.4598 25.1089 36.2061 24.8771 37.0099 25.1089C37.1247 25.1668 37.2395 25.2827 37.1821 25.3986C37.1247 25.5145 37.0099 25.5724 36.8951 25.5724Z" fill="#B33A41"/>
</g>
</g>
<g id="Group_19">
<g id="Group_20">
<path id="Vector_17" d="M53.1465 26.1551C55.1563 28.7037 59.061 26.7343 58.659 23.2589C58.2571 20.1311 54.7543 20.7682 54.7543 20.7682L53.1465 26.1551Z" fill="#E48888"/>
</g>
<g id="Group_21">
<g id="Group_22">
<g id="Group_23">
<g id="Group_24">
<g id="Group_25">
<path id="Vector_18" d="M54.9831 27.2584C55.0406 27.2584 55.098 27.2584 55.1554 27.2584C55.3276 27.4321 55.6147 27.49 55.8443 27.4321C56.5333 27.2005 56.361 26.0422 56.361 26.0422C56.361 25.9264 56.4185 25.8105 56.5333 25.8105C56.6481 25.8105 56.7629 25.8685 56.7629 25.9843C56.7629 26.0422 57.05 27.49 56.0166 27.7796C55.7869 27.8375 55.5573 27.8375 55.385 27.7796C55.1554 27.7217 54.9831 27.6059 54.8109 27.4321C54.7535 27.3742 54.6961 27.2584 54.6387 27.2005C54.7535 27.2584 54.8683 27.2584 54.9831 27.2584Z" fill="#3B2539"/>
</g>
</g>
</g>
</g>
</g>
<g id="Group_26">
<path id="Vector_19" d="M54.8699 26.0961H54.8125C54.6977 26.0961 54.5829 25.9224 54.6403 25.8066C54.9847 24.1271 56.4775 22.6213 56.5349 22.5634C56.6497 22.4476 56.7645 22.4476 56.8794 22.5634C56.9942 22.6793 56.9942 22.7951 56.8794 22.9109C56.8794 22.9109 55.3866 24.4166 55.0996 25.9224C55.0996 26.0382 54.9847 26.0961 54.8699 26.0961Z" fill="#B33A41"/>
</g>
<g id="Group_27">
<path id="Vector_20" d="M55.4416 24.6518C55.3268 24.6518 55.212 24.5938 55.212 24.478C55.1546 24.3621 55.212 24.1883 55.3268 24.1303C56.1306 23.8406 56.8769 23.9565 56.9343 23.9565C57.0492 23.9565 57.164 24.1303 57.164 24.2462C57.164 24.3621 56.9918 24.478 56.8769 24.478C56.8769 24.478 56.188 24.3621 55.5565 24.6518C55.499 24.6518 55.499 24.6518 55.4416 24.6518Z" fill="#B33A41"/>
</g>
</g>
<g id="Group_28">
<path id="Vector_21" d="M55.6146 20.7661C55.9591 33.2775 50.1021 35.1889 47.0013 35.3048C43.9579 35.4206 40.6849 33.9725 38.3306 29.0491C37.1821 26.6743 36.6653 24.2994 36.4356 22.3301C36.1485 19.7235 36.3208 17.87 36.3208 17.87C36.6653 6.57505 54.0068 5.30075 55.3275 16.4219C55.4423 17.9279 55.5572 19.4339 55.6146 20.7661Z" fill="#ECB6A0"/>
</g>
<g id="Group_29">
<path id="Vector_22" d="M37.5856 20.823L37.5282 17.2897C37.5856 17.1738 37.643 17.058 37.7005 16.9422C37.7005 16.8842 37.7579 16.8263 37.7579 16.7684C37.7579 16.7684 37.7579 16.7684 37.7579 16.7105C37.8153 16.5946 37.8153 16.5367 37.8727 16.4209C37.8727 16.3629 37.9301 16.305 37.9301 16.1892C37.9301 16.1312 37.9301 16.1312 37.9876 16.0733C38.045 16.0154 38.045 15.8995 38.045 15.8416C38.1024 15.7258 38.1024 15.6679 38.1598 15.552C38.2173 15.3203 38.3321 15.0307 38.3895 14.799C38.3895 14.7411 38.3895 14.6832 38.4469 14.6252C38.4469 14.5673 38.5044 14.5094 38.5044 14.4515C38.5044 14.3936 38.5044 14.3356 38.5618 14.2777C38.6192 14.1039 38.6766 13.8722 38.6766 13.7564C38.7915 13.2351 38.8489 12.8876 38.8489 12.8876C44.8782 13.9881 52.7451 12.3663 52.7451 12.3663C53.0896 14.6252 54.3529 17.0001 54.3529 17.0001L54.4677 19.6066C54.4677 19.7225 54.4677 19.7804 54.5251 19.8962L55.5587 19.8383C55.5013 18.7378 55.3865 17.5214 55.2716 16.2471C54.1232 6.57397 40.8587 6.28436 37.1837 13.8143C36.6669 14.9149 36.3223 16.2471 36.2649 17.6952C36.2649 17.6952 36.1501 18.7957 36.2075 20.4754C36.2075 20.5913 36.2075 20.7071 36.2075 20.823H37.5856Z" fill="#3B2539"/>
<g id="Group_30">
<path id="Vector_23" d="M37.5854 20.8244L37.528 17.2911C37.5854 17.1753 37.6428 17.0594 37.7003 16.9436C37.7003 16.8856 37.7577 16.8277 37.7577 16.7698C37.7577 16.7698 37.7577 16.7698 37.7577 16.7119C37.8151 16.596 37.8151 16.5381 37.8725 16.4223C37.8725 16.3643 37.9299 16.3064 37.9299 16.1906C37.9299 16.1326 37.9299 16.1326 37.9874 16.0747C38.0448 16.0168 38.0448 15.901 38.0448 15.843C38.1022 15.7272 38.1022 15.6693 38.1596 15.5534C38.217 15.3217 38.3319 15.0321 38.3893 14.8004C38.3893 14.7425 38.3893 14.6846 38.4467 14.6267C38.4467 14.5687 38.5042 14.5108 38.5042 14.4529C38.5042 14.395 38.5042 14.337 38.5616 14.2791C38.619 14.1054 38.6764 13.8737 38.6764 13.7578L35.4608 13.9316C35.2885 17.1753 35.9776 20.361 36.3221 21.5774L37.5854 20.8244Z" fill="#3B2539"/>
</g>
<g id="Group_31">
<path id="Vector_24" d="M54.4664 19.721C54.4664 19.8368 54.4664 19.8948 54.5238 20.0106L55.6149 20.4161C55.8445 17.9833 55.8445 14.7976 55.7297 13.002L52.916 13.1178C53.3754 15.1451 54.3516 17.1145 54.3516 17.1145L54.4664 19.721Z" fill="#3B2539"/>
</g>
</g>
<g id="Group_32" opacity="0.5">
<path id="Vector_25" d="M42.8072 26.617C42.8646 27.254 41.7738 27.7752 40.4533 27.8331C39.1328 27.891 38.042 27.4277 37.9846 26.8486C37.9272 26.2116 39.018 25.6904 40.3385 25.6324C41.659 25.5745 42.7498 25.9799 42.8072 26.617Z" fill="#D55B5D"/>
</g>
<g id="Group_33" opacity="0.5">
<path id="Vector_26" d="M54.7525 26.0394C54.81 26.6765 53.7191 27.1977 52.3986 27.2556C51.0782 27.3135 49.9873 26.8502 49.9299 26.2711C49.8725 25.634 50.9633 25.1128 52.2838 25.0549C53.6617 24.9391 54.7525 25.4024 54.7525 26.0394Z" fill="#D55B5D"/>
</g>
<g id="Group_34">
<path id="Vector_27" d="M46.8853 27.1337L45.3351 27.0758C45.2203 27.0758 45.1055 26.96 45.1055 26.8442C45.1055 26.7283 45.2203 26.6125 45.3351 26.6125L46.5982 26.6704L46.0241 22.7902C46.0241 22.6744 46.0815 22.5586 46.1963 22.5586C46.3111 22.5586 46.426 22.6165 46.426 22.7323L47.0575 26.8442C47.0575 26.9021 47.0575 26.96 47.0001 27.0179C47.0001 27.0758 46.9427 27.1337 46.8853 27.1337Z" fill="#D55B5D"/>
</g>
<g id="Group_35">
<path id="Vector_28" d="M43.3281 28.8176C45.2231 28.9913 47.118 29.0493 49.6446 28.4121C49.6446 28.4121 49.5297 31.1924 46.5438 31.3083C43.9598 31.482 43.3281 28.8176 43.3281 28.8176Z" fill="#F2EDFD"/>
</g>
<g id="Group_36">
<path id="Vector_29" d="M43.0381 22.7918C43.0955 23.5446 42.751 24.1237 42.3491 24.1237C41.9472 24.1237 41.6028 23.5446 41.5453 22.8497C41.4879 22.0968 41.8324 21.5177 42.2343 21.5177C42.6362 21.4598 42.9807 22.0389 43.0381 22.7918Z" fill="#3B2539"/>
</g>
<g id="Group_37">
<path id="Vector_30" d="M50.8486 22.3874C50.906 23.1402 50.5616 23.7194 50.1597 23.7194C49.7578 23.7194 49.4133 23.1402 49.3559 22.4453C49.2985 21.7503 49.643 21.1133 50.0448 21.1133C50.4467 21.1133 50.7912 21.6924 50.8486 22.3874Z" fill="#3B2539"/>
</g>
<g id="Group_38">
<g id="Group_39">
<path id="Vector_31" d="M40.8572 20.0132C41.3739 19.7236 42.0629 19.3182 42.8093 19.2024C43.2111 19.1445 43.4408 18.7391 43.2686 18.3337V18.2179C43.1537 17.9283 42.8667 17.8125 42.5796 17.8125C41.9481 17.9283 40.7998 18.2179 40.0535 18.9708C39.8812 19.1445 39.8812 19.3762 39.9386 19.6078C40.1109 20.0711 40.5702 20.1869 40.8572 20.0132Z" fill="#3B2539"/>
</g>
</g>
<g id="Group_40">
<g id="Group_41">
<path id="Vector_32" d="M51.251 19.4925C50.7343 19.2608 49.9305 18.9133 49.2416 18.8554C48.8397 18.7975 48.61 18.45 48.7249 18.0447V17.9867C48.7823 17.6972 49.0693 17.5234 49.3564 17.5234C49.9879 17.5814 51.1936 17.7551 51.94 18.45C52.1122 18.6238 52.1696 18.8554 52.1122 19.0871C52.0548 19.4346 51.5955 19.6662 51.251 19.4925Z" fill="#3B2539"/>
</g>
</g>
<g id="Group_42">
<path id="Vector_33" d="M46.7137 32.4697C46.0247 32.5276 45.4506 32.2959 45.3932 32.2379C45.2784 32.18 45.221 32.0641 45.2784 31.9482C45.3358 31.8323 45.4506 31.7744 45.5654 31.8323C45.5654 31.8323 46.8859 32.3538 47.8619 31.6006C47.9768 31.5426 48.0916 31.5426 48.149 31.6585C48.2064 31.7744 48.2064 31.8903 48.0916 31.9482C47.6897 32.3538 47.173 32.4697 46.7137 32.4697Z" fill="#D55B5D"/>
</g>
</g>
<path id="Vector_34" d="M26.7321 43.9355C26.7321 43.9355 22.0235 46.1366 20.3008 51.0601C18.5782 55.9835 7.38086 86.5088 7.38086 86.5088L17.8891 95.5448L30.2923 68.0314L26.7321 43.9355Z" fill="#F24052"/>
<path id="Vector_35" d="M66.9844 40.2285C66.9844 40.2285 70.3723 41.5028 81.0528 49.9016C91.7333 58.3004 93.8579 60.849 93.8579 60.849L86.2208 71.8544L66.9844 61.602V40.2285Z" fill="#F24052"/>
<path id="Vector_36" d="M81.6827 64.7888L87.1378 41.1562L94.4304 42.4885C94.4304 42.4885 95.4066 61.5451 94.7749 65.5418C93.4542 73.3613 80.8214 74.6357 81.6827 64.7888Z" fill="#ECB6A0"/>
<path id="Vector_37" d="M82.0281 32.0637C83.0617 32.2954 84.8418 33.1642 86.2199 33.8593L88.0574 29.7468C88.1723 29.5151 88.3445 29.0517 88.6316 28.4725C89.5504 26.4452 91.3305 22.9698 92.1344 21.9851C93.168 20.7108 93.8571 21.8693 93.4551 22.7381C93.1106 23.4332 91.5602 27.8933 90.8711 29.9206L90.9285 29.9785C91.7899 28.1249 93.7996 24.0124 94.661 22.9119C95.6946 21.6376 96.3836 22.796 95.9817 23.6649C95.6371 24.4179 93.6848 29.9206 93.168 31.4265L93.2254 31.4845C94.1442 29.5151 95.9817 25.866 96.7856 24.8233C97.8192 23.549 98.5082 24.7075 98.1063 25.5763C97.8192 26.1556 96.6133 29.5151 95.8668 31.7162C96.843 30.0943 98.0489 28.1829 98.6231 27.6036C99.6567 26.5031 100.231 27.6616 99.7715 28.4146C99.4844 28.9359 98.0489 32.1216 97.1875 34.091L94.4887 40.6942L94.2016 44.6329L86.5644 44.0537L87.0812 41.2155L84.9566 37.1609C83.923 36.0604 82.4301 34.6123 81.6836 34.091C80.5351 33.1063 79.9609 31.6003 82.0281 32.0637Z" fill="#ECB6A0"/>
<g id="Group_43">
<path id="Vector_38" d="M95.3499 33.8009C95.2924 33.8009 95.2924 33.8009 95.235 33.743L89.2631 29.8621C89.1483 29.8042 89.1483 29.6884 89.2057 29.5725C89.2631 29.4567 89.378 29.4567 89.4928 29.5146L95.4647 33.4534C95.5795 33.5113 95.5795 33.6271 95.5221 33.743C95.5221 33.8009 95.4073 33.8009 95.3499 33.8009Z" fill="#E48888"/>
</g>
<g id="Group_44">
<path id="Vector_39" d="M89.0897 37.2167C88.9749 37.2167 88.9175 37.1588 88.9175 37.043C88.6304 35.3056 87.0229 34.3211 87.0229 34.3211C86.908 34.2632 86.908 34.1473 86.9654 34.0315C87.0229 33.9157 87.1377 33.9157 87.2525 33.9736C87.3099 34.0315 89.0323 35.0739 89.3194 36.9851C89.3194 37.043 89.2045 37.1588 89.0897 37.2167Z" fill="#E48888"/>
</g>
<path id="Vector_40" d="M16.7391 92.0715L28.5106 106.552L24.0317 113.908C24.0317 113.908 7.83868 101.976 6.46055 97.2266C5.08242 92.4769 8.01095 85.9316 8.01095 85.9316L8.64259 86.1633C11.7434 87.3218 14.5571 89.407 16.7391 92.0715Z" fill="#ECB6A0"/>
<path id="Vector_41" d="M20.0698 123.288L18.6917 123.114C18.2897 123.056 18.0026 122.709 18.0601 122.303V122.187C18.1175 121.608 18.5768 121.203 19.1511 121.087L21.8499 120.681C21.8499 120.681 21.046 111.008 21.9073 110.081C21.9073 110.024 21.9648 110.024 22.0222 110.024L28.5109 106.49L30.5781 117.785C30.5781 117.785 29.8316 122.651 29.5445 123.346C29.4296 123.635 28.2812 123.867 26.9605 124.041C26.9031 124.157 26.9031 124.273 26.9031 124.33C26.6159 125.026 20.7589 125.373 19.955 125.431C19.2659 125.547 18.864 124.041 20.0698 123.288Z" fill="#ECB6A0"/>
<path id="Vector_42" d="M29.6602 200.039C29.6602 200.039 26.5594 203.688 22.425 206.236C18.2906 208.785 17.4292 210.986 17.7738 212.492C18.0609 214.056 27.7652 215.33 33.3352 213.766C38.9051 212.26 41.9485 212.55 43.2692 211.797C44.5899 211.044 41.3743 199.865 41.3743 199.865C41.3743 199.865 39.4793 201.197 38.1586 201.081C36.8379 201.023 37.0676 198.648 34.1391 198.59C31.1531 198.533 30.6363 198.011 29.6602 200.039Z" fill="#644439"/>
<path id="Vector_43" d="M74.2165 200.039C74.2165 200.039 77.3172 203.688 81.4516 206.236C85.586 208.785 86.4474 210.986 86.1028 212.492C85.8157 214.056 76.1114 215.33 70.5414 213.766C64.9715 212.26 61.9281 212.55 60.6074 211.797C59.2867 211.044 62.5023 199.865 62.5023 199.865C62.5023 199.865 64.3973 201.197 65.718 201.081C67.0387 201.023 66.809 198.648 69.7375 198.59C72.7235 198.533 73.2403 198.011 74.2165 200.039Z" fill="#644439"/>
<path id="Vector_44" d="M35.7461 39.1871L47.8047 70.4075H51.0204L58.5427 37.9707" stroke="#D31887" stroke-miterlimit="10"/>
<path id="Vector_45" d="M25.8125 75.7347L24.377 52.1602" stroke="#D31887" stroke-miterlimit="10"/>
<path id="Vector_46" d="M72.9567 63.9784L70.2578 46.6016" stroke="#D31887" stroke-miterlimit="10"/>
<path id="Vector_47" d="M53.0875 53.1465L52.4559 55.8109L44.2445 56.2164L43.2109 53.6099L53.0875 53.1465Z" fill="#999999"/>
<path id="Vector_48" d="M51.9375 58.1289L51.3633 60.7934L46.023 61.025L45.0469 58.4185L51.9375 58.1289Z" fill="#999999"/>
<path id="Vector_49" d="M50.8489 62.9355L50.2748 65.5995L47.8635 65.7154L46.8301 63.1672L50.8489 62.9355Z" fill="#999999"/>
</g>
</g>
<defs>
<filter id="filter0_d_2853_62954" x="0" y="0" width="106" height="234" filterUnits="userSpaceOnUse" color-interpolation-filters="sRGB">
<feFlood flood-opacity="0" result="BackgroundImageFix"/>
<feColorMatrix in="SourceAlpha" type="matrix" values="0 0 0 0 0 0 0 0 0 0 0 0 0 0 0 0 0 0 127 0" result="hardAlpha"/>
<feOffset dy="4"/>
<feGaussianBlur stdDeviation="3"/>
<feComposite in2="hardAlpha" operator="out"/>
<feColorMatrix type="matrix" values="0 0 0 0 0 0 0 0 0 0 0 0 0 0 0 0 0 0 0.1 0"/>
<feBlend mode="normal" in2="BackgroundImageFix" result="effect1_dropShadow_2853_62954"/>
<feBlend mode="normal" in="SourceGraphic" in2="effect1_dropShadow_2853_62954" result="shape"/>
</filter>
</defs>
</svg>
