<svg width="182" height="222" viewBox="0 0 182 222" fill="none" xmlns="http://www.w3.org/2000/svg">
<g id="Frame" clip-path="url(#clip0_2853_63061)" filter="url(#filter0_d_2853_63061)">
<path id="Vector" d="M62.8578 7.27344C62.8578 7.27344 57.5512 11.041 61.3416 14.6202C64.9425 18.1994 67.4062 13.4899 67.4062 13.4899L62.8578 7.27344Z" fill="#4D0E0D"/>
<path id="Vector_2" d="M35.1875 181.523L34.6189 193.203L34.4294 193.58L27.9857 193.203L28.3648 184.914V181.712L35.1875 181.523Z" fill="#FFB598"/>
<path id="Vector_3" d="M27.6061 183.221H28.3642L35.187 183.033H35.945H37.0822C40.6831 151.95 50.3486 147.241 42.5783 131.04C55.4657 120.868 68.5426 115.405 77.8291 112.391C82.9462 110.884 86.9261 109.942 89.0108 109.565C92.6117 109 95.6441 106.363 96.4021 102.784C96.4021 102.595 96.4021 102.595 96.4021 102.407C96.7812 100.335 96.9707 98.2626 96.9707 96.002C96.9707 95.0601 96.9707 93.9299 96.7812 92.988C96.5917 91.1042 96.2126 89.2204 95.6441 87.3366L69.6797 86.7715C69.3007 86.9599 68.9216 87.1482 68.5426 87.525C51.2962 98.2626 44.8525 108.623 32.7232 119.173L28.7433 122.187L29.5013 125.012L27.6061 183.221Z" fill="#339E8C"/>
<path id="Vector_4" d="M95.6441 87.9004L100.382 105.231L108.531 130.097C117.439 127.46 134.875 129.344 149.278 126.518L149.468 127.46L151.363 134.053L151.742 135.183L106.068 148.182L102.846 149.877L99.624 148.558C90.527 130.851 72.1435 106.55 71.575 98.638L95.6441 87.9004Z" fill="#339E8C"/>
<path id="Vector_5" opacity="0.25" d="M77.8291 112.58C84.0833 123.317 93.7489 137.446 99.624 148.749L102.846 150.067L106.068 148.372L151.742 135.374L151.363 134.243L149.468 127.65L149.089 126.52C134.875 129.346 117.249 127.462 108.342 130.099L100.003 105.233L96.7812 93.3652C96.9707 94.3071 96.9707 95.4374 96.9707 96.3793C96.9707 98.4515 96.7812 100.524 96.4022 102.784C96.4022 102.784 96.4022 102.973 96.4022 103.161C95.6441 106.74 92.6117 109.377 89.0109 109.943C86.9261 110.131 82.9462 110.884 77.8291 112.58Z" fill="#216B65"/>
<g id="Group">
<path id="Vector_6" d="M37.082 201.68C34.9973 201.68 33.2916 201.869 31.3964 201.869C19.0776 202.057 11.3072 200.738 7.51681 199.797C7.32729 199.797 6.94824 199.608 6.75872 199.42C5.81112 198.666 5.6216 197.348 6.56921 196.406C6.75873 196.217 6.94825 196.217 7.13777 196.217C7.89586 196.217 8.46442 196.217 9.2225 196.217C16.6138 195.652 21.5413 193.015 24.0051 191.32C25.1422 190.566 25.7108 189.812 25.7108 189.812C25.7108 189.812 25.9003 191.696 27.227 192.073C27.4165 192.073 27.606 192.073 27.7955 192.261C28.1746 192.261 28.5536 192.261 28.9327 192.261C29.6907 192.261 30.2593 192.073 30.8279 192.073C31.965 191.885 32.5335 191.32 33.1021 191.131C33.4811 190.943 34.0497 190.754 34.6183 190.754H34.8078C36.8925 190.754 36.703 192.638 36.5135 195.087C36.324 197.159 36.3239 199.608 37.082 201.68Z" fill="#2F2F65"/>
<path id="Vector_7" d="M37.2733 202.81C11.688 203.563 6.94996 199.607 6.94996 199.607C7.13948 199.796 7.32899 199.796 7.70803 199.984C12.067 200.926 21.7326 202.433 37.2733 201.868C37.6523 201.68 38.0313 202.81 37.2733 202.81Z" fill="#2C183D"/>
<path id="Vector_8" d="M28.9336 192.261C28.5546 192.261 28.1755 192.261 27.7965 192.261C26.0908 192.261 25.9013 189.812 25.9013 189.812C25.9013 189.812 25.3327 190.378 24.1956 191.319C24.1956 191.319 24.7641 190.566 24.9537 188.871C25.1432 187.552 26.6593 186.987 27.6069 187.929C28.5545 189.247 28.9336 191.319 28.9336 192.261Z" fill="#2C183D"/>
<path id="Vector_9" d="M27.2285 192.261C21.9219 196.406 16.0468 197.348 13.204 197.536C10.3612 197.913 9.41357 196.217 9.41357 196.217C16.8049 195.652 21.7324 193.015 24.1962 191.32C25.3333 190.566 25.9019 189.812 25.9019 189.812C25.9019 189.812 26.0914 191.696 27.2285 192.261Z" fill="#2C183D"/>
<path id="Vector_10" d="M15.0992 197.726L12.2564 195.842V195.654H12.4459L15.0992 197.35L15.2887 195.089C15.2887 195.089 15.2887 195.089 15.2887 194.901H15.4783L17.942 196.596L18.1315 194.147C18.1315 194.147 18.1315 194.147 18.1315 193.959H18.3211L20.5953 195.654V193.017V192.828H20.7848L23.6276 194.335L22.8696 191.698V191.51H23.0591L26.4705 193.017C26.4705 193.017 26.66 193.205 26.4705 193.205C26.4705 193.205 26.2809 193.394 26.2809 193.205L23.2486 191.887L24.0067 194.524V194.712H23.8172L20.9744 193.017V195.654V195.842H20.7848L18.5106 194.147L18.3211 196.408C18.3211 196.408 18.3211 196.408 18.3211 196.596C18.3211 196.784 18.1315 196.596 18.1315 196.596L15.6678 194.901L15.0992 197.726Z" fill="white"/>
<path id="Vector_11" d="M37.082 201.681C34.9973 201.681 33.2916 201.87 31.3964 201.87C31.0174 197.725 34.8078 195.653 36.5135 195.088C36.324 197.16 36.3239 199.609 37.082 201.681Z" fill="#2C183D"/>
</g>
<path id="Vector_12" d="M100 91.6698C99.0527 91.8582 97.9156 92.0466 96.968 92.235C91.6614 92.8001 86.3548 92.235 81.8063 91.1047C74.9836 89.4093 70.056 87.1488 70.056 87.1488C67.5923 80.5555 65.5075 76.7879 63.9914 73.7739C63.4228 72.6436 62.8542 71.7017 62.4752 70.7598C61.3381 68.6876 60.58 66.4271 59.8219 63.413C59.2534 61.1525 58.8743 58.7036 58.8743 56.443C58.8743 54.5592 59.0638 52.6755 59.2534 50.7917C59.4429 49.6614 59.6324 48.5311 60.0114 47.5892C60.58 45.7054 61.1486 44.01 61.9066 42.3146C62.0962 41.9379 62.2857 41.5611 62.4752 40.996C62.6647 40.6192 62.8543 40.2425 63.0438 40.0541C63.2333 39.6773 63.6123 39.1122 63.8018 38.7354L63.9914 38.5471C63.9914 38.5471 63.9914 38.5471 63.9914 38.3587C63.9914 38.3587 63.9914 38.1703 64.1809 38.1703C64.1809 37.9819 64.3704 37.9819 64.3704 37.7935C64.3704 37.7935 64.3704 37.7935 64.3704 37.6052C64.3704 37.4168 64.5599 37.4168 64.5599 37.2284C64.5599 37.2284 64.5599 37.2284 64.7495 37.04L64.939 36.8517L65.1285 36.6633C65.1285 36.6633 65.1285 36.4749 65.318 36.4749C65.318 36.2865 65.5075 36.2865 65.5075 36.0981C65.6971 35.9098 65.8866 35.533 66.0761 35.3446C66.2656 35.1562 66.2656 34.9679 66.4551 34.9679L69.677 34.026L75.7416 31.9538L77.2578 31.3887C77.2578 31.3887 77.4473 31.577 77.8264 31.9538C79.3425 33.0841 82.7539 35.533 84.2701 36.2865C84.6491 36.6633 84.8386 37.04 85.2177 37.6052C86.3548 39.489 87.1129 41.5611 87.6815 44.01C88.0605 45.7054 88.25 47.4009 88.6291 49.2846C88.8186 50.2265 88.8186 51.3568 89.0081 52.2987C89.1976 53.429 89.1976 54.7476 89.3871 55.8779C90.1452 63.0363 91.0928 71.7017 94.1252 81.8741C96.3994 88.6558 101.137 91.1047 100 91.6698Z" fill="#E0F8E8"/>
<g id="Group_2">
<path id="Vector_13" d="M21.541 53.0509L20.7829 50.9787C20.2144 49.4717 18.8877 48.3414 17.3716 47.9646L15.2868 47.5879V49.2833C15.2868 49.2833 16.2344 50.0368 16.424 50.4136C16.6135 50.7903 21.541 53.0509 21.541 53.0509Z" fill="white"/>
<path id="Vector_14" d="M20.9704 50.9787C20.4019 49.4717 19.0752 48.153 17.3695 47.9646L15.0953 47.5879V49.4717C15.0953 49.4717 16.0429 50.2252 16.2324 50.6019C16.6115 50.9787 20.5914 52.8625 21.3495 53.2393L21.7285 53.4276L20.9704 50.9787ZM15.2848 47.9646L17.18 48.3414C18.6962 48.5298 20.0228 49.6601 20.5914 51.1671L21.16 52.8625C19.2648 51.9206 16.6115 50.6019 16.4219 50.4136C16.2324 50.2252 15.4743 49.4717 15.2848 49.2833V47.9646Z" fill="black"/>
</g>
<path id="Vector_15" d="M9.224 52.8627L9.79257 51.7324L10.5506 51.9208C10.7402 52.1092 10.9297 52.2976 10.9297 52.4859C10.9297 52.6743 10.9297 52.6743 10.7402 52.8627C10.5506 53.0511 10.3611 53.0511 10.1716 53.2395C10.1716 53.4278 9.224 52.8627 9.224 52.8627Z" fill="#C36867"/>
<path id="Vector_16" d="M9.41137 50.4137L10.5485 49.6602C10.5485 49.6602 11.1171 49.8485 11.3066 50.0369C11.4961 50.0369 11.4961 50.4137 11.4961 50.602C11.4961 50.7904 11.4961 50.9788 11.3066 50.9788C11.1171 51.1672 11.1171 51.1672 10.9275 51.1672C10.738 51.1672 9.41137 50.4137 9.41137 50.4137Z" fill="#C36867"/>
<path id="Vector_17" d="M9.9796 47.9657L12.0643 47.7773L12.4434 48.7192C12.4434 48.9076 12.4434 49.096 12.0643 49.2844C11.8748 49.4728 11.3062 49.4728 11.1167 49.4728L9.9796 47.9657Z" fill="#C36867"/>
<path id="Vector_18" d="M55.4671 76.2214C49.7815 75.2795 44.4749 73.2073 39.7369 70.1932L20.0267 57.0067L21.5429 53.0508C34.6198 59.4557 50.7291 58.7021 57.7413 65.4838C60.2051 67.9327 58.3099 72.8305 57.3623 75.0911C56.9833 76.033 56.2252 76.4097 55.4671 76.2214Z" fill="#FF9878"/>
<path id="Vector_19" d="M161.025 131.227L151.36 134.241L149.465 127.46L150.602 127.271L159.13 125.199L160.457 129.72L161.025 131.227Z" fill="#FFB598"/>
<g id="Group_3">
<path id="Vector_20" d="M176 145.549C175.81 146.679 174.673 147.433 173.536 146.868C173.347 146.868 173.157 146.679 173.157 146.491C172.778 145.926 172.399 145.361 172.21 144.795C168.609 138.956 164.06 135.942 161.407 134.811C160.08 134.246 159.322 134.058 159.322 134.058C159.322 134.058 160.649 133.304 160.649 131.986V131.797C160.649 131.609 160.649 131.421 160.459 131.421C160.27 131.044 160.08 130.667 159.891 130.479C159.891 130.29 159.701 130.29 159.701 130.102C158.185 127.653 157.237 128.218 156.29 126.523C156.29 126.334 156.1 126.334 156.1 126.146C155.721 125.392 155.721 124.827 156.29 124.451C156.858 123.885 157.806 123.32 159.133 122.944C160.838 122.19 163.113 121.248 164.439 119.553C165.387 121.06 166.334 122.755 167.093 124.262C172.589 134.246 174.863 141.405 176 144.795C176 145.172 176 145.361 176 145.549Z" fill="#2F2F65"/>
<path id="Vector_21" d="M165.198 118.798C177.137 139.896 176 145.547 176 145.547C176 145.359 176 144.982 176 144.794C174.863 140.838 171.831 131.984 164.439 119.363C164.06 118.798 164.818 118.044 165.198 118.798Z" fill="#2C183D"/>
<path id="Vector_22" d="M160.081 130.477C160.271 130.853 160.461 131.042 160.65 131.418C161.408 132.925 159.513 134.056 159.513 134.056C159.513 134.056 160.271 134.244 161.598 134.809C161.598 134.809 160.65 134.621 159.323 135.186C158.186 135.751 157.049 134.621 157.428 133.491C157.618 131.984 159.134 130.853 160.081 130.477Z" fill="#2C183D"/>
<path id="Vector_23" d="M160.649 131.797C166.524 134.434 169.935 138.955 171.451 141.216C172.968 143.476 172.02 144.983 172.02 144.983C168.419 139.144 163.871 136.13 161.217 134.999C159.891 134.434 159.133 134.246 159.133 134.246C159.133 134.246 160.838 133.116 160.649 131.797Z" fill="#2C183D"/>
<path id="Vector_24" d="M170.314 142.908L170.504 139.894L168.609 140.648H168.419C168.419 140.648 168.419 140.648 168.419 140.459L168.609 137.634L166.524 138.764H166.334C166.334 138.764 166.334 138.764 166.334 138.576L166.713 135.938L164.439 137.069H164.25C164.25 137.069 164.25 137.069 164.25 136.88L164.439 133.866L162.544 135.75H162.354C162.354 135.75 162.354 135.75 162.354 135.562L162.165 132.171C162.165 132.171 162.165 131.982 162.354 131.982C162.354 131.982 162.544 131.982 162.544 132.171L162.733 135.373L164.629 133.489H164.818C164.818 133.489 164.818 133.489 164.818 133.678L164.629 136.692L166.903 135.562H167.092C167.092 135.562 167.092 135.562 167.092 135.75L166.524 138.387L168.609 137.445H168.798C168.798 137.445 168.798 137.445 168.798 137.634L168.609 140.459L170.504 139.706H170.693C170.693 139.706 170.693 139.706 170.693 139.894L170.314 142.908Z" fill="white"/>
<path id="Vector_25" d="M164.44 119.361C165.388 121.057 166.336 122.564 167.094 124.071C163.682 126.331 160.271 123.882 159.134 122.941C160.84 121.999 162.924 121.057 164.44 119.361Z" fill="#2C183D"/>
</g>
<path id="Vector_26" d="M62.4766 70.5699L60.2023 73.5839C59.6338 74.3375 59.0652 74.9026 58.3071 75.2794C57.549 75.6561 56.7909 76.0329 55.8433 76.0329H55.6538C53.7586 72.8304 52.811 69.2512 53.0005 65.672C53.1901 63.5999 53.5691 61.7161 54.3272 59.8323C55.2748 57.7601 56.2224 55.4996 56.9805 53.4274C57.9281 51.3553 58.8757 49.2831 59.8233 47.2109C59.4442 48.3412 59.2547 49.4715 59.0652 50.4134C58.6862 52.2972 58.6861 54.1809 58.6861 56.0647C58.6861 58.3253 59.0652 60.7742 59.6338 63.0347C60.5814 66.4256 61.3394 68.4977 62.4766 70.5699Z" fill="#FF9878"/>
<path id="Vector_27" d="M16.2344 48.1526L12.6336 46.834L10.9279 48.9062L10.7383 50.0364L9.79074 51.3551L9.98026 54.1808L13.2021 56.2529C14.1497 56.8181 15.0973 57.1948 16.2344 57.1948H19.8353L21.541 53.4272L18.5087 49.848C17.9401 48.9062 16.9925 48.341 16.2344 48.1526Z" fill="#C36867"/>
<path id="Vector_28" d="M76.8809 12.7366L76.1228 14.2436L72.5219 20.8369L71.7638 22.1555L71.5743 24.0393C71.5743 25.358 70.4372 26.4883 69.1105 26.4883L65.5096 26.865L60.9611 27.2418C60.7716 27.2418 60.5821 27.2418 60.3926 27.2418C60.203 27.2418 60.0135 27.2418 59.824 27.2418C59.2554 27.0534 58.8764 26.865 58.4974 26.4883C58.1183 26.1115 57.7393 25.5464 57.9288 24.9812L58.4974 20.8369C58.4974 20.4601 58.6869 19.895 58.6869 19.5182C59.0659 17.4461 59.824 15.3739 60.7716 13.4901C61.1506 12.7366 61.5297 12.1715 61.9087 11.418C61.9087 11.2296 62.0982 11.2296 62.0982 11.0412C62.6668 10.2877 63.0458 9.53418 63.8039 8.78066L64.9411 7.65039L76.8809 12.7366Z" fill="#FFB598"/>
<g id="Group_4">
<path id="Vector_29" d="M124.451 111.634L123.693 104.476L125.209 109.75C125.209 109.939 125.588 110.127 125.777 110.127C125.967 110.127 125.967 109.939 125.967 109.939V104.287C125.967 102.404 125.777 100.52 124.83 98.8244L122.934 95.4336L118.196 96.9406L117.817 99.7663C117.438 102.215 117.438 104.853 118.007 107.301L118.955 112.199C118.955 112.388 119.144 112.576 119.334 112.576C119.523 112.576 119.902 112.388 119.902 112.199V105.229L121.229 112.764C121.229 112.953 121.418 113.141 121.608 113.141C121.987 113.141 122.176 112.953 122.176 112.576L121.797 105.229L123.693 111.634C123.693 111.823 124.072 112.011 124.261 112.011C124.261 112.011 124.451 111.823 124.451 111.634Z" fill="#FFB598"/>
<path id="Vector_30" d="M112.893 56.8173L106.449 62.2803C104.175 60.9617 101.9 60.0198 99.6261 59.0779C96.2148 57.7592 92.6139 56.8173 89.392 56.0638C88.2549 55.8755 87.3073 55.4987 86.1702 55.3103C84.4645 54.9336 82.9483 54.3684 81.4321 53.9917C77.4522 52.673 74.4199 51.3544 73.4723 48.9054C72.7142 47.0217 71.9561 45.1379 71.3876 43.4425C70.44 40.6168 71.3876 37.6027 73.6618 35.7189C75.9361 34.0235 79.1579 33.8352 81.6217 35.3422L87.1178 38.9214L93.5615 43.0657L109.292 53.2382L112.134 54.3684L112.893 56.8173Z" fill="#FFB598"/>
<path id="Vector_31" d="M112.889 56.8164C118.954 69.061 116.679 73.9589 123.123 95.434L118.385 96.9411C110.804 77.5381 103.792 67.7424 103.981 62.8445C104.171 59.8305 104.55 60.0188 104.55 60.0188L112.889 56.8164Z" fill="#FFB598"/>
</g>
<path id="Vector_32" d="M80.8617 19.5192C78.5874 22.3449 74.6075 22.7217 74.6075 22.7217L72.9018 19.5192L72.1437 18.2006H71.9542C71.9542 18.2006 71.9542 18.2006 71.7647 18.0122C71.7647 17.8238 71.5752 17.6354 71.5752 17.447C71.3857 16.6935 71.1961 15.5633 71.9542 14.0562C68.9219 13.8679 63.9944 14.0562 61.9096 10.8538C61.5306 10.2887 61.3411 9.53515 61.1515 8.78163C61.1515 8.2165 60.962 7.65136 61.1515 7.08622C61.1515 6.70947 61.1515 6.33271 61.3411 5.76757C61.9096 3.50703 64.5629 2 67.2162 2C69.3009 2 71.1961 2.94189 72.1437 5.20244C75.5551 3.88379 79.535 4.44892 81.2407 7.83974C83.7045 13.6795 82.7569 17.2587 80.8617 19.5192Z" fill="#671311"/>
<g id="Group_5">
<path id="Vector_33" d="M75.5549 21.0275C75.1759 21.5927 74.7968 21.9694 74.4178 22.1578C73.6597 22.5346 72.7121 22.7229 72.1435 22.1578C71.954 22.1578 71.954 21.9694 71.7645 21.9694C71.0064 21.2159 70.8169 19.8973 71.3855 18.767C71.3855 18.5786 71.575 18.5786 71.575 18.3902C71.7645 18.2019 71.954 17.8251 72.1435 17.6367C72.7121 17.26 73.6597 16.8832 74.4178 17.0716C74.6073 17.0716 74.7968 17.26 74.9864 17.26C76.1235 18.0135 76.313 19.7089 75.5549 21.0275Z" fill="#FFB598"/>
<path id="Vector_34" d="M74.9893 21.0279C74.4207 22.1581 73.2836 22.7233 72.5255 22.1581C71.7674 21.7814 71.7674 20.4627 72.336 19.3324C72.9045 18.2022 74.0416 17.637 74.7997 18.2022C75.5578 18.5789 75.5578 19.8976 74.9893 21.0279Z" fill="#FF9878"/>
</g>
<path id="Vector_35" d="M77.8281 31.9517C77.07 32.1401 76.5015 32.3285 75.9329 32.5169C71.3844 34.4007 67.215 38.9218 65.6988 39.8636C64.7512 40.4288 63.6141 39.2985 64.1826 38.1682C64.1826 38.1682 64.1826 38.1682 64.1826 37.9799C64.1826 37.9799 64.1826 37.7915 64.3722 37.7915C64.3722 37.6031 64.5617 37.6031 64.5617 37.4147C64.5617 37.4147 64.5617 37.4147 64.5617 37.2263C64.5617 37.038 64.7512 37.038 64.7512 36.8496C64.7512 36.8496 64.7512 36.8496 64.9407 36.6612L65.1302 36.4728L65.3198 36.2845C65.3198 36.2845 65.3198 36.0961 65.5093 36.0961C65.5093 35.9077 65.6988 35.9077 65.6988 35.7193C65.8883 35.5309 66.0778 35.1542 66.2674 34.9658C66.4569 34.7774 66.4569 34.589 66.6464 34.589L65.6988 26.3004L69.2997 25.9236C70.2473 25.7352 71.1949 25.1701 71.5739 24.2282C71.7635 24.0398 71.7635 23.6631 71.7635 23.4747V21.7793C71.7635 21.7793 71.953 21.9677 72.1425 21.9677C72.7111 22.7212 73.6587 22.7212 74.4168 22.1561L77.07 31.3866C77.2596 31.575 77.4491 31.7634 77.8281 31.9517Z" fill="#FF9878"/>
<path id="Vector_36" d="M92.6113 41.372C92.6113 41.7487 92.6113 41.9371 92.6113 42.3139C92.6113 42.6906 92.6113 43.2558 92.4218 43.6325C92.0428 47.4001 90.5266 50.2258 88.8209 52.2979C87.8733 53.6166 86.7362 54.5585 85.9781 55.1236C85.0305 55.8771 84.4619 56.0655 84.4619 56.0655C83.3248 55.6888 82.1877 55.1236 81.0506 54.5585C75.5545 52.1096 68.9212 48.342 68.1632 43.6325C67.9736 42.3139 68.1632 40.8068 68.9213 39.2998C69.1108 39.1114 69.1108 38.9231 69.3003 38.7347C74.7964 29.8809 81.9982 34.5903 90.1476 39.6766C90.9056 40.4301 91.8532 40.9952 92.6113 41.372Z" fill="#E0F8E8"/>
<path id="Vector_37" d="M99.623 59.0782C95.0746 57.3828 90.3365 56.2525 86.1671 55.1223C88.4413 53.4268 92.2317 49.2825 92.6108 42.3125L93.5584 42.8776C93.9374 44.573 94.885 49.6593 89.768 54.1804C94.3165 55.8758 99.4335 59.0782 99.623 59.0782Z" fill="#FF9878"/>
<path id="Vector_38" d="M9.60089 52.861L11.1171 53.0494C11.4961 53.0494 11.4961 53.4261 11.4961 53.6145C11.4961 53.9913 11.1171 54.1797 10.9275 54.1797H9.41137C9.03233 54.1797 8.84282 53.8029 8.84282 53.6145V53.2378C9.03234 52.861 9.22185 52.6726 9.60089 52.861Z" fill="#FF9878"/>
<path id="Vector_39" d="M9.9796 50.4121L11.8748 50.9772C12.2538 51.1656 12.4434 51.354 12.4434 51.7308C12.4434 52.1075 12.0643 52.2959 11.6853 52.2959L9.79008 52.1075C9.41104 52.1075 9.032 51.7308 9.032 51.1656V50.7889C9.032 50.6005 9.41104 50.4121 9.9796 50.4121Z" fill="#FF9878"/>
<path id="Vector_40" d="M10.3602 48.1503L12.6345 49.0922C13.0135 49.2806 13.2031 49.6573 13.0135 50.0341C12.824 50.4108 12.445 50.5992 12.0659 50.4108L9.79169 49.6573C9.41265 49.4689 9.03361 49.0922 9.22313 48.7154L9.41264 48.3387C9.41264 48.1503 9.98121 47.9619 10.3602 48.1503Z" fill="#FF9878"/>
<path id="Vector_41" d="M12.8222 47.0208L14.1489 48.5279C14.3384 48.9046 14.3384 49.2814 14.1489 49.4698C13.9594 49.8465 13.3908 49.8465 13.2013 49.6581L11.6851 48.5279C11.3061 48.3395 11.3061 47.7744 11.4956 47.3976L11.6851 47.0208C11.8746 46.6441 12.4432 46.6441 12.8222 47.0208Z" fill="#FF9878"/>
<path id="Vector_42" d="M18.1296 47.3993L16.9925 47.2109C16.6135 47.2109 16.0449 47.2109 15.6659 47.3993L15.2868 47.5877C14.5287 47.7761 13.9602 48.5296 13.5812 49.2831V49.4715C13.5812 49.6599 13.5812 49.8482 13.7707 50.0366C13.9602 50.0366 14.1497 50.0366 14.3392 50.0366L14.9078 49.2831C15.2868 48.9063 15.8554 48.9063 16.424 49.0947L17.182 49.4715C17.5611 49.6599 17.7506 50.225 17.3716 50.6018C16.803 51.1669 16.803 51.9204 16.9925 52.6739C17.182 53.4274 17.7506 53.9926 18.5087 54.3693L20.7829 55.1228L21.541 53.2391C21.541 52.4855 20.4039 50.225 19.8353 48.718C19.4563 47.9645 18.8877 47.5877 18.1296 47.3993Z" fill="#FF9878"/>
<path id="Vector_43" d="M63.8047 38.5449C63.6152 38.9217 63.2361 39.4868 63.0466 39.8636C62.8571 40.2403 62.6676 40.6171 62.478 40.8055C60.7724 43.8195 59.8248 47.2103 59.2562 50.6012C58.8772 52.4849 58.8772 54.3687 58.8772 56.2525C58.3086 55.1222 57.74 53.992 57.5505 53.0501C57.1715 51.9198 57.1715 51.1663 57.1715 51.1663C57.1715 51.1663 59.8248 43.066 63.8047 38.5449Z" fill="#D5DAD4"/>
<path id="Vector_44" d="M62.4766 70.5689L60.2023 73.583C59.6338 74.3365 59.0652 74.9016 58.3071 75.2784C57.549 75.6551 56.7909 76.0319 55.8433 76.0319C60.0128 75.2784 60.7709 68.4968 60.7709 68.4968C58.4966 63.5989 57.17 53.2381 57.17 53.2381L57.549 52.8613C57.7385 53.8032 58.3071 54.9335 58.8757 56.0638C58.8757 58.3243 59.2547 60.7732 59.8233 63.0338C60.5814 66.4246 61.3394 68.4968 62.4766 70.5689Z" fill="#C36867"/>
<path id="Vector_45" opacity="0.5" d="M77.8281 31.9519C77.07 32.1403 76.5015 32.3287 75.9329 32.5171C75.9329 32.3287 75.9329 32.1403 75.7434 31.9519C75.1748 29.3146 74.0377 23.0981 73.8482 23.2865C73.6587 23.2865 72.5215 23.4749 71.953 22.9098C71.953 23.6633 71.3844 24.6052 71.3844 24.6052C71.5739 24.4168 71.5739 24.04 71.5739 23.8517V22.1562C71.5739 22.1562 71.7635 22.3446 71.953 22.3446C72.7111 22.7214 73.6587 22.7214 74.4168 22.1562L77.07 31.3868C77.2596 31.5752 77.4491 31.7636 77.8281 31.9519Z" fill="#C36867"/>
<path id="Vector_46" d="M60.7715 13.4902C59.8239 15.374 59.0658 17.4462 58.6868 19.5184C58.6868 19.5184 58.4972 19.33 58.4972 19.1416C59.0658 16.1275 60.7715 13.6786 60.7715 13.4902Z" fill="#FF9878"/>
<path id="Vector_47" d="M61.5306 13.4922C61.7201 13.4922 61.7201 13.6806 61.9096 13.6806L62.0991 13.8689C62.2887 14.0573 62.4782 14.0573 62.6677 14.2457C62.8572 14.4341 63.0467 14.6225 63.0467 14.6225C63.2363 14.8108 63.2363 14.9992 63.4258 15.1876C63.2363 14.9992 63.2363 14.8108 63.0467 14.8108C62.8572 14.6225 62.6677 14.6225 62.6677 14.4341C62.4782 14.2457 62.2887 14.2457 62.0991 14.0573C62.0991 14.0573 61.9096 14.0573 61.9096 13.8689H61.7201C61.5306 13.8689 61.5306 13.6806 61.5306 13.4922C61.1515 13.4922 61.3411 13.4922 61.5306 13.4922Z" fill="#5A1738"/>
<path id="Vector_48" d="M62.2883 11.9841C62.4778 11.9841 62.4778 12.1725 62.4778 12.1725L62.6673 12.3609C62.8568 12.5493 63.0463 12.5492 63.0463 12.7376C63.2359 12.926 63.6149 13.3028 63.8044 13.4911C63.9939 13.8679 64.1835 14.0563 64.373 14.433C64.373 14.6214 64.5625 14.8098 64.5625 14.9982C64.5625 15.1866 64.5625 15.3749 64.5625 15.5633C64.5625 15.5633 64.5625 15.7517 64.373 15.7517C64.373 15.7517 64.1835 15.7517 64.1835 15.5633C64.1835 15.3749 64.1835 15.1866 63.9939 14.9982C63.9939 14.8098 63.8044 14.6214 63.8044 14.6214C63.6149 14.433 63.4254 14.0563 63.2359 13.8679C63.0463 13.6795 62.6673 13.4911 62.4778 13.3028C62.2882 13.3028 62.0987 13.1144 62.0987 13.1144C62.0987 13.1144 61.9092 13.1144 61.9092 12.926C61.9092 12.926 61.7197 12.926 61.7197 12.7376C61.5302 12.7376 61.3406 12.3609 61.5302 12.1725C61.7197 11.9841 62.0987 11.7957 62.2883 11.9841Z" fill="#5A1738"/>
<g id="Group_6">
<g id="Group_7">
<path id="Vector_49" d="M60.9589 23.2865C60.0113 22.7214 58.8742 22.3446 58.8742 22.3446C58.8742 22.3446 58.8742 22.3446 58.8742 22.1562C58.8742 22.1562 58.8742 22.1562 59.0637 22.1562C59.0637 22.1562 60.2008 22.3446 61.1484 23.0981C61.1484 23.0981 61.1484 23.2865 60.9589 23.2865Z" fill="#FF9878"/>
<path id="Vector_50" d="M59.6334 23.0967C59.2546 22.7202 58.8758 22.7202 58.8758 22.7202C58.8758 22.7202 58.6864 22.7202 58.6864 22.532C58.6864 22.532 58.6864 22.3438 58.8758 22.3438C58.8758 22.532 59.444 22.532 59.6334 23.0967C59.8227 23.0967 59.8227 22.9085 59.6334 23.0967Z" fill="#FF9878"/>
</g>
</g>
<path id="Vector_51" d="M71.3836 20.6483C71.1941 20.6483 71.1941 20.6483 71.3836 20.6483C71.1941 19.518 71.5731 18.7645 72.1417 18.1993C73.0893 17.4458 74.416 17.6342 74.416 17.6342C74.416 17.6342 74.6055 17.6342 74.6055 17.8226C74.6055 17.8226 74.6055 18.011 74.416 18.011C74.416 18.011 73.0893 17.8226 72.3312 18.5761C71.7627 18.7645 71.5731 19.518 71.3836 20.6483Z" fill="#FF9878"/>
<path id="Vector_52" d="M69.4912 59.6423C69.1122 65.482 67.0275 70.7566 63.9952 73.5823C63.4266 72.452 62.858 71.5101 62.479 70.5682C61.3419 68.4961 60.5838 66.2355 59.8257 63.2215C59.2571 60.9609 58.8781 58.512 58.8781 56.2514C58.8781 54.3677 59.0676 52.4839 59.2571 50.6001C59.4467 49.4698 59.6362 48.3395 60.0152 47.3977C60.5838 45.5139 61.1523 43.8185 61.9104 42.123C66.6484 44.1952 69.8703 51.3536 69.4912 59.6423Z" fill="white"/>
<path id="Vector_53" d="M160.459 131.417L151.362 134.243L149.467 127.649L150.414 127.461L153.257 132.547L159.89 130.098C159.89 130.287 160.08 130.287 160.08 130.475C160.269 130.663 160.269 131.04 160.459 131.417Z" fill="#FF9878"/>
<path id="Vector_54" d="M35.1875 183.033L34.8085 190.757C34.2399 190.757 33.6713 190.945 33.2923 191.133C32.5342 191.51 31.9657 191.887 31.0181 192.075L32.9133 185.294L28.5543 184.917V183.222L35.1875 183.033Z" fill="#FF9878"/>
<path id="Vector_55" opacity="0.25" d="M97.1602 96.376C97.1602 98.4481 96.9706 100.52 96.5916 102.781C96.5916 102.969 96.5916 102.969 96.5916 103.158C95.8335 106.737 92.8012 109.374 89.2003 109.939C82.9461 111.069 62.6674 115.591 42.7677 131.226C50.5381 147.427 40.8725 152.136 37.2716 183.219H36.1345C36.324 171.539 39.1668 137.443 39.5459 129.719C39.7354 129.154 40.1144 128.777 40.304 128.212C46.7477 118.605 77.45 102.404 87.1156 98.2598C79.5347 97.883 71.3853 90.1595 68.9216 87.7105C69.3006 87.5222 69.6797 87.3338 70.0587 86.957C70.0587 86.957 83.7042 93.7387 96.9706 92.0433C97.1602 93.5503 97.1602 94.8689 97.1602 96.376Z" fill="#216B65"/>
<path id="Vector_56" d="M100.004 91.6665C99.0564 91.8549 97.9193 92.0433 96.9717 92.2317C91.6651 92.7968 86.3585 92.2317 81.81 91.1014C81.431 88.2757 84.0842 85.0733 78.0196 81.1173C69.3016 75.466 67.596 76.973 76.1244 76.4079C84.8423 75.8427 87.8747 66.047 84.2738 57.9468C66.6483 52.4838 68.354 43.8184 68.354 43.8184C68.354 43.8184 68.354 43.8184 68.5436 43.8184C69.4912 48.5278 75.9349 52.2954 81.431 54.7443C82.7576 55.3095 83.8947 55.8746 84.8423 56.2513C84.8423 56.2513 85.4109 55.8746 86.3585 55.3095C87.3061 55.4978 88.4432 55.8746 89.5804 56.063C90.3384 63.2214 91.286 71.8868 94.3184 82.0592C96.4031 88.6525 101.141 91.1014 100.004 91.6665Z" fill="#D5DAD4"/>
<path id="Vector_57" d="M92.6113 41.372C92.6113 41.7487 92.6113 41.9371 92.6113 42.3139C92.6113 42.6906 92.6113 43.2558 92.4218 43.6325C90.9056 42.6906 87.8733 40.8068 82.9458 37.416C74.9859 32.1414 69.4898 38.9231 69.4898 38.9231C69.4898 38.9231 69.4898 38.9231 69.3003 38.7347C74.7964 29.8809 81.9982 34.5903 90.1476 39.6766C90.9056 40.4301 91.8532 40.9952 92.6113 41.372Z" fill="#D5DAD4"/>
<path id="Vector_58" d="M80.8613 19.5208C78.5871 22.3465 74.6071 22.7232 74.6071 22.7232L74.4176 22.3465C74.7967 22.1581 75.1757 21.7813 75.5548 21.2162C76.3128 19.8975 76.1233 18.2021 74.9862 17.4486C74.0386 16.8835 72.9015 17.2602 71.9539 18.0138C71.9539 17.8254 71.7643 17.637 71.7643 17.4486C71.5748 16.6951 71.3853 15.5648 72.1434 14.0578C68.5425 13.8694 62.2883 14.2462 61.3407 8.7832C61.3407 8.7832 66.0787 14.6229 72.9015 10.2902C73.091 10.8554 70.4377 12.5508 70.4377 12.5508C70.4377 12.5508 73.8491 14.8113 76.3128 11.4205C76.1233 12.9275 74.6072 14.8113 73.091 15.1881C74.6072 15.5648 79.9137 16.3183 80.8613 19.5208Z" fill="#4D0E0D"/>
<path id="Vector_59" opacity="0.25" d="M69.3027 5.20244C69.3027 7.2746 67.4075 8.78163 64.9438 8.78163C63.4276 8.78163 61.9114 8.02812 61.1533 7.08622C61.1533 6.70947 61.1533 6.33271 61.3429 5.76757C61.9114 3.50703 64.5647 2 67.218 2C68.3551 2.56514 69.3027 3.69541 69.3027 5.20244Z" fill="#B4100C"/>
<path id="Vector_60" d="M71.9512 17.8246C71.9512 18.013 71.9512 18.013 71.9512 17.8246C71.7617 18.013 71.5721 18.3897 71.3826 18.5781C71.3826 18.7665 71.1931 18.7665 71.1931 18.9549C69.8664 18.013 69.8664 16.3176 70.056 14.8105C68.7293 14.8105 67.5922 14.6222 66.6446 14.4338C63.9913 13.6803 62.4751 12.1732 61.7171 11.4197C61.7171 11.2313 61.9066 11.2313 61.9066 11.043C63.0437 12.55 64.7494 13.1151 66.6446 13.4919C68.5398 13.8686 70.435 13.8686 71.7617 13.8686C71.1931 15.3757 71.1931 16.5059 71.3826 17.2595C71.7617 17.6362 71.9512 17.8246 71.9512 17.8246Z" fill="#FF9878"/>
<path id="Vector_61" opacity="0.25" d="M71.7656 22.1571V23.8525C71.7656 25.1712 70.6285 26.3014 69.3019 26.3014L65.701 26.6782L61.1525 27.055C60.963 27.055 60.7734 27.055 60.5839 27.055C60.3944 27.055 60.2049 27.055 60.0153 27.055C60.0153 27.055 60.0153 27.055 60.0153 26.8666C59.4468 24.2293 63.6162 23.099 65.3219 21.592C66.6486 20.4617 66.8381 16.3174 67.0276 14.4336C67.9752 14.622 69.1123 14.8104 70.439 14.8104C70.2495 16.129 70.2495 18.0128 71.5761 18.9547C70.818 20.085 71.0075 21.4036 71.7656 22.1571Z" fill="#FF9878"/>
</g>
<defs>
<filter id="filter0_d_2853_63061" x="0" y="0" width="182" height="232" filterUnits="userSpaceOnUse" color-interpolation-filters="sRGB">
<feFlood flood-opacity="0" result="BackgroundImageFix"/>
<feColorMatrix in="SourceAlpha" type="matrix" values="0 0 0 0 0 0 0 0 0 0 0 0 0 0 0 0 0 0 127 0" result="hardAlpha"/>
<feOffset dy="4"/>
<feGaussianBlur stdDeviation="3"/>
<feComposite in2="hardAlpha" operator="out"/>
<feColorMatrix type="matrix" values="0 0 0 0 0 0 0 0 0 0 0 0 0 0 0 0 0 0 0.1 0"/>
<feBlend mode="normal" in2="BackgroundImageFix" result="effect1_dropShadow_2853_63061"/>
<feBlend mode="normal" in="SourceGraphic" in2="effect1_dropShadow_2853_63061" result="shape"/>
</filter>
<clipPath id="clip0_2853_63061">
<rect width="170" height="220" fill="white" transform="matrix(-1 0 0 1 176 2)"/>
</clipPath>
</defs>
</svg>
