<svg width="249" height="146" viewBox="0 0 249 146" fill="none" xmlns="http://www.w3.org/2000/svg">
<g id="Frame" clip-path="url(#clip0_2853_63139)">
<g id="Group">
<path id="Vector" d="M124.5 145.446C193.259 145.446 249 140.979 249 135.469C249 129.959 193.259 125.492 124.5 125.492C55.7406 125.492 0 129.959 0 135.469C0 140.979 55.7406 145.446 124.5 145.446Z" fill="#A91F71" fill-opacity="0.12"/>
</g>
<g id="Group_2">
<g id="Group_3">
<g id="Group_4">
<path id="Vector_2" d="M111.559 22.0802C111.559 22.0802 116.891 17.4555 121.447 21.3527C126.002 25.2499 127.71 31.6414 123.983 35.4346C123.983 35.4346 128.125 35.7464 128.125 41.6702C128.125 47.542 122.741 49.4126 121.447 49.4126C120.152 49.4126 103.173 27.3284 111.559 22.0802Z" fill="#4A3F2A"/>
<path id="Vector_3" d="M93.8024 39.7472C94.2166 38.2923 95.2001 37.0971 96.4425 36.3177C97.2708 35.7981 98.2544 35.5382 99.238 35.4863C99.238 35.1745 99.1862 34.8627 99.238 34.6029C99.3933 32.3685 100.273 30.1341 102.292 28.939C103.379 28.2634 104.674 28.0556 105.916 28.2115C106.123 28.2115 106.278 28.2634 106.434 28.3154C106.278 27.7958 106.227 27.2242 106.227 26.7046C106.278 24.5221 107.314 22.7554 109.074 21.5083C109.54 21.1965 110.109 20.9367 110.679 20.7808C111.662 20.521 112.801 20.521 113.785 20.7808C115.7 21.3004 117.46 22.8593 117.874 24.8339C117.978 25.3535 118.029 25.9251 117.978 26.3928C118.081 27.1203 118.029 27.8997 117.822 28.6791C117.46 30.0821 116.528 31.2253 115.338 31.9528C118.081 34.9666 118.547 39.9551 116.891 43.7484C116.166 45.4112 114.923 46.7622 113.422 47.6456C113.422 50.9192 112.232 54.4527 109.281 56.2194C106.071 58.1421 101.93 57.4146 99.0309 55.2322C96.4425 53.3095 95.7696 50.3476 96.1319 47.3858C94.786 46.4504 93.8542 44.8916 93.5954 43.2807C93.5436 42.0336 93.4401 40.9424 93.8024 39.7472Z" fill="#4A3F2A"/>
</g>
<g id="Group_5">
<path id="Vector_4" d="M114.941 45.5352H120.791V36.5976H114.941V45.5352Z" fill="#FF8A66"/>
<path id="Vector_5" d="M123.568 27.2253C124.345 29.5637 123.879 32.6295 123.258 34.8119C122.481 37.462 120.617 39.4366 117.667 39.1248C117.667 39.1248 113.267 39.3327 111.61 33.7207C111.61 33.7207 108.297 33.9285 108.297 31.2265C108.297 30.3431 108.452 29.5117 109.28 29.044C109.695 28.7842 109.953 28.8881 110.316 28.5244C110.626 28.2126 110.782 27.641 111.041 27.2253C111.869 25.9263 112.749 24.6792 113.888 23.6919C117.201 20.7819 120.773 22.6006 122.947 25.9782C123.206 26.342 123.413 26.7577 123.568 27.2253Z" fill="#FF8A66"/>
<path id="Vector_6" d="M119.323 28.3691C118.132 31.7987 120.047 33.1497 120.099 33.9811C120.151 34.7606 118.391 34.189 117.562 33.1497" stroke="#4A3F2A" stroke-width="0.949472" stroke-miterlimit="10" stroke-linecap="round"/>
<path id="Vector_7" d="M115.649 31.539C115.39 31.539 115.183 31.3311 115.183 31.0713V30.2919C115.183 30.0321 115.39 29.8242 115.649 29.8242C115.907 29.8242 116.114 30.0321 116.114 30.2919V31.0713C116.114 31.3311 115.907 31.539 115.649 31.539Z" fill="#4A3F2A"/>
<path id="Vector_8" d="M115.907 34.7598C118.599 41.7747 121.187 34.7598 121.187 34.7598C121.187 34.7598 119.842 35.0715 118.547 35.0715C117.253 35.0715 115.907 34.7598 115.907 34.7598Z" fill="white"/>
<path id="Vector_9" d="M122.536 23.068C123.52 23.9513 123.572 26.4975 122.433 27.225C121.346 27.9005 120.258 26.9652 119.43 26.4456C119.275 26.9132 118.912 27.4329 118.395 27.5887C117.825 27.7446 117.204 27.6407 116.635 27.3809C116.169 27.173 115.755 26.9132 115.599 26.4456C115.496 26.2377 115.548 25.9779 115.651 25.77C116.014 27.4848 112.752 28.9917 112.856 27.6407C112.856 27.6407 112.545 31.2781 111.924 31.0183C111.303 30.7585 109.439 29.1996 109.284 27.0172C109.128 24.9386 116.117 17.2481 122.536 23.068Z" fill="#4A3F2A"/>
<path id="Vector_10" d="M121.446 31.539C121.188 31.539 120.98 31.3311 120.98 31.0713V30.2919C120.98 30.0321 121.188 29.8242 121.446 29.8242C121.705 29.8242 121.912 30.0321 121.912 30.2919V31.0713C121.912 31.3311 121.705 31.539 121.446 31.539Z" fill="#4A3F2A"/>
</g>
</g>
<g id="Group_6">
<g id="Group_7">
<g id="Group_8">
<path id="Vector_11" d="M117.561 133.54C117.25 133.955 117.095 134.371 116.888 134.995C116.526 136.138 115.853 138.476 117.457 139.1C117.457 139.1 133.609 139.152 133.712 139.152C134.541 139.152 134.437 138.32 134.23 137.749C133.868 136.969 133.091 136.346 132.418 135.878C131.538 135.306 130.503 134.995 129.571 134.579C128.536 134.111 127.449 133.696 126.31 133.332C124.601 132.76 122.841 132.137 121.081 132.137C120.098 132.137 119.114 132.397 118.286 132.916C117.923 133.124 117.716 133.332 117.561 133.54Z" fill="#4A3F2A"/>
<path id="Vector_12" d="M121.547 73.6793C121.547 73.6793 126.362 97.5303 127.035 104.13C127.086 108.546 125.999 118.783 125.068 125.954C124.55 129.903 124.239 132.813 124.239 132.813C124.239 132.813 127.863 133.904 126.776 134.684C125.689 135.463 118.338 133.592 118.338 133.592C118.338 133.592 117.82 128.968 117.665 126.993C117.354 123.148 116.837 113.483 116.422 109.638C115.542 100.7 112.436 98.0499 110.573 89.2682C109.848 85.8386 109.175 82.3571 108.864 78.8237C108.709 77.4207 108.088 74.199 109.227 73.0038C111.556 70.6135 117.406 68.7429 121.547 73.6793Z" fill="#FF8A66"/>
</g>
<path id="Vector_13" d="M129.416 72.743C129.416 72.743 128.174 99.348 128.278 101.375C128.381 103.349 127.035 130.941 127.035 130.941C127.035 130.941 120.15 134.423 116.112 131.045C116.112 131.045 116.061 106.935 114.352 102.778C112.592 98.6205 113.627 83.4993 112.747 79.7061C111.919 75.8608 120.409 69.4694 129.416 72.743Z" fill="#D3C06E"/>
</g>
<g id="Group_9">
<g id="Group_10">
<path id="Vector_14" d="M105.293 133.074C104.982 133.438 104.827 133.905 104.62 134.529C104.206 135.672 103.481 138.011 105.034 138.634C105.034 138.634 121.186 139.206 121.289 139.206C122.117 139.258 122.066 138.374 121.807 137.855C121.496 137.075 120.72 136.4 120.047 135.932C119.167 135.36 118.183 134.997 117.251 134.581C116.216 134.061 115.129 133.646 114.042 133.23C112.385 132.606 110.625 131.931 108.813 131.879C107.83 131.879 106.846 132.087 106.018 132.554C105.707 132.658 105.448 132.866 105.293 133.074Z" fill="#4A3F2A"/>
<path id="Vector_15" d="M119.841 74.3549C119.841 74.3549 120.928 101.635 120.1 108.287C119.116 116.289 114.509 124.967 112.697 132.865C112.542 133.54 116.942 134.476 115.907 135.515C114.871 136.554 106.537 135.047 106.537 133.073C106.589 131.046 107.106 128.5 107.417 126.577C108.09 122.628 108.763 118.679 109.332 114.678C110.005 110.105 110.471 105.74 109.746 101.116C109.022 96.2312 107.52 91.5026 106.589 86.67C106.123 84.2798 102.965 73.2117 105.709 71.4449C108.556 69.5223 116.89 68.587 119.841 74.3549Z" fill="#FF8A66"/>
</g>
<path id="Vector_16" d="M121.393 71.3937C121.756 71.4456 122.17 76.486 122.222 76.8498C122.739 80.9029 122.325 84.4364 121.186 88.2816C121.186 88.2816 121.29 105.273 120.927 107.976C120.565 110.678 117.511 130.475 116.113 130.943C114.715 131.411 104.88 131.463 105.449 129.332C106.018 127.202 110.16 106.417 108.089 99.0899C106.018 91.7631 99.1852 74.4595 106.95 69.627C106.95 69.6789 121.393 71.3937 121.393 71.3937Z" fill="#5553CB"/>
</g>
</g>
<path id="Vector_17" d="M109.074 43.75C109.074 43.75 104.208 44.2177 100.791 58.2476C97.3748 72.2776 102.81 74.9797 107.987 69.4196C113.112 63.8596 112.077 44.1137 109.074 43.75Z" fill="#F24052"/>
<path id="Vector_18" d="M124.759 56.0636C123.827 54.037 122.74 52.0624 121.86 50.0359C121.29 48.7888 120.048 46.5544 119.996 44.7876C119.996 43.7484 120.41 42.865 121.704 42.5013C123.672 41.9297 126.467 44.3719 127.709 45.671C129.418 47.4897 130.712 49.6721 132.11 51.6987C133.507 53.7252 134.698 55.8557 136.096 57.8823C137.545 59.9608 140.03 62.2471 138.166 64.9492C136.717 67.0797 133.3 66.8718 131.23 65.9365C131.178 65.8845 131.126 65.8845 131.023 65.8326C127.295 64.1178 126.363 59.597 124.759 56.0636Z" fill="#F24052"/>
<g id="Group_11">
<path id="Vector_19" d="M102.706 78.0445C102.706 78.0445 104.777 71.2893 105.812 62.2478C106.278 58.2467 106.174 54.1416 106.847 50.1405C107.52 45.9315 109.384 42.346 113.836 41.4627C116.01 41.047 118.236 41.2548 120.41 41.4627C122.119 41.6705 124.138 42.1382 125.38 43.4372C126.26 44.3726 126.881 45.4638 127.347 46.6589C128.9 50.5562 129.314 54.973 129.78 59.0781C129.884 60.1173 129.987 61.2085 130.091 62.2478C132.265 84.0202 132.524 81.3181 132.524 81.3181C132.524 81.3181 109.695 94.6726 102.706 78.0445Z" fill="#F24052"/>
<path id="Vector_20" d="M128.018 48.5312C128.949 51.7529 129.571 56.2737 130.14 62.2494C130.244 63.0808 130.761 68.1732 130.865 68.9007" stroke="#4A3F2A" stroke-width="0.949472" stroke-miterlimit="10" stroke-linecap="round"/>
<path id="Vector_21" d="M105.295 66.3546C105.554 62.7172 106.279 51.5972 107.314 47.752" stroke="#4A3F2A" stroke-width="0.949472" stroke-miterlimit="10" stroke-linecap="round"/>
<path id="Vector_22" d="M114.922 40.6836C114.922 40.6836 113.835 48.0103 117.873 47.8545C121.963 47.6986 120.772 40.6836 120.772 40.6836H114.922Z" fill="#FF8A66"/>
</g>
</g>
<g id="Group_12">
<g id="Group_13">
<g id="Group_14">
<g id="Group_15">
<path id="Vector_23" d="M82.2087 133.024C81.8463 133.44 81.691 133.908 81.484 134.583C81.1216 135.83 80.3969 138.376 82.1052 139C82.1052 139 99.4989 139.104 99.6025 139.104C100.483 139.104 100.379 138.168 100.12 137.597C99.7578 136.766 98.9295 136.038 98.153 135.57C97.1694 134.947 96.0823 134.635 95.047 134.167C93.9081 133.648 92.7174 133.232 91.5786 132.816C89.7667 132.193 87.8513 131.517 85.9359 131.569C84.9006 131.569 83.8135 131.829 82.9334 132.401C82.6228 132.608 82.4158 132.816 82.2087 133.024Z" fill="#4A3F2A"/>
<path id="Vector_24" d="M86.5572 68.5898C86.5572 68.5898 91.734 94.2595 92.4587 101.43C92.5622 106.211 91.3716 117.227 90.3362 124.918C89.7668 129.178 89.4044 132.296 89.4044 132.296C89.4044 132.296 89.0938 133.647 87.3337 134.063C85.6254 134.427 82.9853 133.128 82.9853 133.128C82.9853 133.128 82.4159 128.139 82.2606 126.009C81.95 121.852 81.3287 111.459 80.9664 107.302C80.0346 97.689 76.6697 94.831 74.6508 85.3738C73.8743 81.6845 73.1495 77.9431 72.7872 74.1498C72.6319 72.6429 71.9589 69.1614 73.2013 67.9143C75.7897 65.3162 82.0535 63.2377 86.5572 68.5898Z" fill="#F24052"/>
</g>
<path id="Vector_25" d="M87.2293 65.2658C87.2293 65.2658 93.7002 96.2876 93.8037 98.418C93.9072 100.549 92.9237 132.454 92.9237 132.454C92.9237 132.454 85.3657 136.507 81.0172 132.921C81.0172 132.921 80.6549 104.342 78.7912 99.873C76.9276 95.4042 71.0262 82.5694 70.0944 78.5163C69.1626 74.4112 77.5488 61.6803 87.2293 65.2658Z" fill="#69583C"/>
</g>
<g id="Group_16">
<g id="Group_17">
<path id="Vector_26" d="M53.1655 130.274C52.7514 130.637 52.4926 131.105 52.182 131.677C51.5608 132.82 50.4737 135.21 52.0267 136.093C52.0267 136.093 69.1098 139.159 69.2651 139.211C70.1452 139.367 70.1969 138.432 70.0416 137.86C69.8346 136.977 69.1098 136.145 68.4369 135.522C67.6086 134.742 66.5732 134.223 65.6414 133.599C64.6061 132.924 63.519 132.248 62.4319 131.677C60.7753 130.741 59.0152 129.754 57.0999 129.442C56.0645 129.286 54.9774 129.338 53.9938 129.754C53.6315 129.91 53.3726 130.118 53.1655 130.274Z" fill="#4A3F2A"/>
<path id="Vector_27" d="M77.6536 69.9425C77.6536 69.9425 74.5993 99.1976 72.7357 106.161C70.458 114.579 63.4694 127.569 63.4694 127.569C63.4694 127.569 61.3469 131.415 60.3634 132.194C59.3798 132.973 54.9278 132.038 54.5137 130.427C54.5137 129.7 55.8078 125.647 56.4808 123.672C57.775 119.567 59.1209 115.41 60.3116 111.305C61.7093 106.524 62.8482 101.952 62.8482 96.9112C62.7964 91.611 61.9164 86.3108 61.6575 81.0106C61.554 78.4125 59.8457 66.0973 63.0553 64.6423C66.3166 63.0834 75.3758 63.3432 77.6536 69.9425Z" fill="#F24052"/>
</g>
<path id="Vector_28" d="M79.7711 67.0836C80.1334 67.1875 79.8228 72.5916 79.8228 73.0073C79.7193 77.4242 78.7357 81.0616 76.9756 85.0627C76.9756 85.0627 74.4908 103.198 73.7143 106.004C72.9378 108.81 63.1538 131.777 61.7043 132.453C58.2359 134.064 51.4027 131.569 52.3345 129.387C53.2663 127.205 62.4808 102.73 61.3937 94.5719C60.3066 86.4137 55.6476 66.9277 64.6551 62.9785C64.6551 62.9785 79.7193 67.0836 79.7711 67.0836Z" fill="#FFB648"/>
</g>
</g>
<g id="Group_18">
<path id="Vector_29" d="M83.0342 46.6615C83.0342 46.6615 86.6061 59.7561 90.0745 61.263C93.4911 62.8219 97.6325 61.1071 91.7828 47.337C85.9331 33.5149 83.0342 46.6615 83.0342 46.6615Z" fill="#FF8A66"/>
<path id="Vector_30" d="M81.9993 31.3332C79.8251 31.9048 79.2556 36.1138 79.0486 37.8286C78.3756 43.0248 78.8933 48.377 78.8933 48.377C78.8933 48.377 85.5712 50.9752 89.2467 49.5722C92.9222 48.2211 93.2845 48.0133 93.2845 48.0133C92.3527 45.2592 91.4209 42.4533 90.1267 39.8032C88.8843 37.205 86.969 34.2951 84.7947 32.3725C84.2253 31.8528 83.5523 31.3852 82.7758 31.2812C82.517 31.2813 82.2581 31.2812 81.9993 31.3332Z" fill="#F24052"/>
</g>
<g id="Group_19">
<path id="Vector_31" d="M71.7763 34.6385L78.0352 34.8906L78.4171 25.3371L72.1583 25.085L71.7763 34.6385Z" fill="#FF8A66"/>
<path id="Vector_32" d="M66.9397 22.1354C66.8361 22.0315 66.7844 21.9275 66.7326 21.8756C66.5773 21.6677 66.4738 21.4079 66.3702 21.1481C66.3702 21.1481 66.0079 20.2647 65.9561 20.2128C65.8526 19.901 65.8008 19.5892 65.6973 19.2774C65.8008 18.9137 66.0079 18.5499 66.3702 18.2901C66.7844 17.9784 67.095 18.0303 67.4056 17.6146C67.7162 17.2509 67.768 16.5754 67.975 16.1597C68.648 14.7047 69.4763 13.2497 70.5634 12.0026C73.7212 8.46916 77.759 9.92412 80.5027 13.2497C80.8133 13.6135 81.0721 14.0292 81.2792 14.4968C82.4181 16.8871 82.3663 20.2128 81.9522 22.603C81.4863 25.5649 79.7262 27.8513 76.5684 27.9033C76.5684 27.9033 71.9093 28.6827 69.4245 22.9668C69.4245 22.9668 68.3892 23.1746 67.4056 22.8629C67.302 22.655 67.1467 22.3952 66.9397 22.1354Z" fill="#FF8A66"/>
<path id="Vector_33" d="M77.0315 16.3672C76.255 20.1605 78.4292 21.3556 78.5845 22.187C78.7398 23.0184 76.7726 22.6027 75.7891 21.6154" stroke="#4A3F2A" stroke-width="0.949472" stroke-miterlimit="10" stroke-linecap="round"/>
<path id="Vector_34" d="M73.4592 20.2146C73.2004 20.2665 72.9415 20.0587 72.8898 19.7469L72.7862 18.9155C72.7345 18.6557 72.9415 18.3959 73.2521 18.3439C73.511 18.2919 73.7698 18.4998 73.8216 18.8116L73.9251 19.643C73.9769 19.9028 73.7698 20.1626 73.4592 20.2146Z" fill="#4A3F2A"/>
<path id="Vector_35" d="M74.1875 23.6415C77.9665 30.7604 79.8301 22.9141 79.8301 22.9141C79.8301 22.9141 78.4324 23.4337 77.0347 23.5896C75.637 23.7455 74.1875 23.6415 74.1875 23.6415Z" fill="white"/>
<path id="Vector_36" d="M79.6702 19.4353C79.4113 19.4872 79.1525 19.2794 79.1007 18.9676L78.9972 18.1362C78.9454 17.8764 79.1525 17.6166 79.4631 17.5646C79.7219 17.5126 79.9808 17.7205 80.0325 18.0323L80.1361 18.8637C80.1361 19.1235 79.929 19.3833 79.6702 19.4353Z" fill="#4A3F2A"/>
<path id="Vector_37" d="M70.9238 9.71718C70.9238 9.71718 74.5993 5.56015 79.5689 9.92503C84.5904 14.2899 87.5411 13.6144 87.5411 13.6144C87.5411 13.6144 82.9338 17.2518 78.3783 13.4065L81.2773 16.888C81.2773 16.8361 71.2344 16.1606 70.9238 9.71718Z" fill="#4A3F2A"/>
<path id="Vector_38" d="M70.9232 9.71735C71.4926 9.82128 71.7515 12.8871 71.7515 13.2508C71.8033 14.6019 70.8197 19.8501 69.3184 19.8501C68.4902 19.8501 66.3159 16.9921 66.4195 19.7462C66.5748 22.5002 69.3702 21.9806 69.3702 21.9806C69.3702 21.9806 69.629 24.111 70.7679 25.3062C71.9068 26.5013 64.2452 23.5395 65.0735 16.2647C65.9018 8.93791 70.9232 9.71735 70.9232 9.71735Z" fill="#4A3F2A"/>
</g>
<g id="Group_20">
<g id="Group_21">
<path id="Vector_39" d="M60.2563 70.5665C56.6326 68.1243 58.3927 66.4615 59.8939 56.9003C60.5669 52.5874 61.9129 43.442 62.7929 39.181C63.7247 34.7122 65.7954 30.9189 70.6615 30.1914C72.991 29.8277 75.4241 30.1395 77.7018 30.5032C79.5137 30.763 81.6879 31.3866 82.9821 32.7896C83.9139 33.8288 84.5351 35.024 85.001 36.3231C86.1916 39.7006 86.7611 43.2341 86.9682 46.8195C87.1235 49.3138 86.8646 51.808 87.227 54.3022C87.6929 57.8357 87.5376 61.525 87.5376 65.1105C87.5894 72.2813 81.5326 72.749 75.9935 72.749C71.4898 72.697 64.1906 73.2166 60.2563 70.5665Z" fill="#5553CB"/>
<path id="Vector_40" d="M71.9546 29.4121C71.9546 29.4121 70.4533 37.2065 74.8018 37.2065C79.1502 37.2065 78.2184 29.6719 78.2184 29.6719L71.9546 29.4121Z" fill="#FF8A66"/>
</g>
</g>
<g id="Group_22">
<path id="Vector_41" d="M56.6341 44.5836C56.6341 44.5836 51.3021 57.0547 53.0104 60.4322C54.7187 63.8098 59.0154 65.0569 63.0014 50.6113C67.0393 36.2176 56.6341 44.5836 56.6341 44.5836Z" fill="#FF8A66"/>
<path id="Vector_42" d="M65.3295 32.0098C63.2588 31.0745 60.2046 34.0363 58.9621 35.2315C55.1831 38.8169 52.2842 43.3896 52.2842 43.3896C52.2842 43.3896 55.9079 49.5732 59.6351 50.8203C63.3623 52.0674 63.7765 52.1194 63.7765 52.1194C64.7601 49.3654 65.7436 46.6113 66.4166 43.7534C67.0378 40.8954 67.3484 37.4659 66.8825 34.6079C66.779 33.8285 66.5201 33.049 65.9507 32.4775C65.7954 32.2696 65.5366 32.1137 65.3295 32.0098Z" fill="#F24052"/>
</g>
</g>
<g id="Group_23">
<g id="Group_24">
<g id="Group_25">
<g id="Group_26">
<path id="Vector_43" d="M165.601 133.022C165.964 133.438 166.119 133.906 166.326 134.581C166.688 135.828 167.413 138.374 165.705 138.998C165.705 138.998 148.311 139.102 148.208 139.102C147.328 139.102 147.431 138.167 147.69 137.595C148.052 136.764 148.881 136.036 149.657 135.568C150.641 134.945 151.728 134.633 152.763 134.165C153.902 133.646 155.093 133.23 156.231 132.814C158.043 132.191 159.959 131.515 161.874 131.567C162.909 131.567 163.997 131.827 164.877 132.399C165.187 132.607 165.446 132.814 165.601 133.022Z" fill="#4A3F2A"/>
<path id="Vector_44" d="M174.557 67.86C175.799 69.1071 175.126 72.5886 174.971 74.0955C174.608 77.8888 173.884 81.6301 173.107 85.3195C171.14 94.7767 167.723 97.6347 166.792 107.248C166.377 111.405 165.756 121.797 165.497 125.954C165.342 128.085 164.773 133.073 164.773 133.073C164.773 133.073 162.133 134.372 160.424 134.009C158.716 133.645 158.354 132.242 158.354 132.242C158.354 132.242 158.043 129.124 157.422 124.863C156.386 117.173 155.196 106.105 155.299 101.376C156.024 94.2051 161.201 68.5355 161.201 68.5355C165.756 63.2353 172.072 65.3138 174.557 67.86Z" fill="#F24052"/>
</g>
<path id="Vector_45" d="M160.631 65.2618C160.631 65.2618 154.16 96.2837 154.057 98.4141C153.902 100.545 154.937 132.45 154.937 132.45C154.937 132.45 162.495 136.503 166.843 132.917C166.843 132.917 167.206 104.338 169.069 99.8691C170.933 95.4003 176.834 82.5655 177.766 78.5124C178.698 74.4073 170.312 61.6764 160.631 65.2618Z" fill="#F24052"/>
</g>
<g id="Group_27">
<g id="Group_28">
<path id="Vector_46" d="M194.697 130.268C195.111 130.631 195.37 131.099 195.681 131.671C196.302 132.814 197.389 135.204 195.836 136.088C195.836 136.088 178.753 139.153 178.598 139.205C177.718 139.361 177.666 138.426 177.821 137.854C178.028 136.971 178.753 136.139 179.426 135.516C180.254 134.736 181.29 134.217 182.221 133.593C183.257 132.918 184.344 132.242 185.431 131.671C187.088 130.735 188.848 129.748 190.763 129.436C191.798 129.28 192.885 129.332 193.869 129.748C194.18 129.904 194.438 130.112 194.697 130.268Z" fill="#4A3F2A"/>
<path id="Vector_47" d="M184.757 64.5857C187.966 66.0406 186.31 78.3558 186.154 80.9539C185.895 86.2542 185.015 91.5544 184.964 96.8546C184.912 101.895 186.051 106.468 187.5 111.248C188.743 115.405 190.037 119.51 191.331 123.615C191.952 125.59 193.298 129.643 193.298 130.371C192.884 131.981 188.432 132.917 187.448 132.137C186.465 131.358 184.342 127.513 184.342 127.513C184.342 127.513 177.354 114.522 175.076 106.104C173.212 99.1409 170.158 69.8859 170.158 69.8859C172.436 63.3385 181.495 63.0787 184.757 64.5857Z" fill="#F24052"/>
</g>
<path id="Vector_48" d="M168.089 67.0816C167.726 67.1856 168.037 72.5897 168.037 73.0054C168.141 77.4222 169.124 81.0596 170.884 85.0608C170.884 85.0608 173.369 103.196 174.145 106.002C174.922 108.808 184.706 131.775 186.155 132.451C189.624 134.062 196.457 131.567 195.525 129.385C194.594 127.203 185.379 102.728 186.466 94.57C187.553 86.4118 192.212 66.9257 183.205 62.9766L168.089 67.0816Z" fill="#F24052"/>
</g>
</g>
<g id="Group_29">
<path id="Vector_49" d="M157.582 29.151C157.582 29.151 152.716 31.3335 151.836 43.7006C150.956 56.0158 156.081 53.5216 157.738 51.9627C159.394 50.4038 167.47 41.4142 165.037 37.8288C162.604 34.1914 160.533 28.1118 157.582 29.151Z" fill="#FF8A66"/>
<g id="Group_30">
<path id="Vector_50" d="M158.41 44.2739C155.355 42.5591 149.972 49.2103 148.729 51.133C146.4 54.7704 139.359 64.9031 139.049 65.1629C138.686 65.3708 140.912 67.6052 140.912 67.6052C141.275 67.9689 147.487 63.9678 148.211 63.5521C150.696 61.9932 153.129 60.2265 155.2 58.1999C158.668 54.8223 163.535 49.0545 158.875 44.6376C158.72 44.4817 158.565 44.3778 158.41 44.2739Z" fill="#FF8A66"/>
</g>
<path id="Vector_51" d="M160.945 27.228C160.945 27.228 157.89 24.8897 151.937 35.3862C145.984 45.9346 147.951 44.9473 149.297 46.0905C150.643 47.2856 157.994 52.0143 160.893 50.4034C163.844 48.8445 164.413 26.3446 160.945 27.228Z" fill="#5553CB"/>
</g>
<path id="Vector_52" d="M186.415 24.4717C186.415 24.4717 191.54 25.9266 194.283 37.982C196.975 50.0374 191.592 48.3226 189.676 47.0755C187.813 45.7764 178.443 38.1379 180.306 34.1887C182.222 30.2396 183.361 23.9001 186.415 24.4717Z" fill="#FF8A66"/>
<g id="Group_31">
<g id="Group_32">
<path id="Vector_53" d="M177.924 13.1437C178.442 10.0779 178.96 6.90815 179.011 3.73842C179.011 3.01094 179.167 1.19224 177.976 1.60794C177.717 1.71187 177.614 1.86775 177.407 2.02364C177.148 2.23149 177.303 2.28346 177.044 2.07561C176.63 1.76383 176.526 1.14028 176.216 0.776535C176.009 0.516721 175.75 0.30887 175.439 0.30887C174.87 0.204944 174.559 0.828498 174.249 1.14028C174.249 1.14028 172.955 -0.678424 172.023 0.204944C171.091 1.14028 171.091 1.14028 171.091 1.14028C171.091 1.14028 169.797 -0.418609 168.968 0.464758C168.14 1.40009 167.985 2.28346 167.985 2.28346C167.985 2.28346 166.742 -0.314684 165.966 0.984387C165.189 2.28346 165.138 11.5328 165.138 11.5328C165.138 11.5328 177.044 17.1448 177.924 13.1437Z" fill="#4A3F2A"/>
</g>
<g id="Group_33">
<path id="Vector_54" d="M177.149 25.1469L167.728 26.9656L169.954 16.8848H176.166L177.149 25.1469Z" fill="#FF8A66"/>
<path id="Vector_55" d="M176.734 15.0653C176.837 14.7016 176.889 14.3378 176.993 13.9741C177.303 12.0515 177.355 8.93369 176.009 7.3748C175.491 6.80321 174.974 6.28358 174.404 5.81592C171.246 3.06189 167.881 4.77666 165.811 7.99836C165.604 8.3621 165.397 8.72584 165.241 9.1935C164.517 11.4279 165.863 14.078 165.086 17.5076C164.568 19.69 166.018 21.1969 168.037 21.6126C170.107 22.0283 172.23 21.4048 173.938 20.2096C175.595 18.9106 176.216 16.9879 176.734 15.0653Z" fill="#FF8A66"/>
<path id="Vector_56" d="M176.424 11.8962C176.683 11.6883 177.046 11.5844 177.408 11.4805C179.53 11.0648 179.686 13.7668 179.22 15.1698C178.909 16.1052 178.133 16.9366 177.201 17.3003C176.373 17.6121 175.337 17.6641 175.027 16.6768C174.716 15.7414 174.975 14.6502 175.234 13.7668C175.441 12.9874 175.803 12.3119 176.424 11.8962Z" fill="#FF8A66"/>
<path id="Vector_57" d="M169.226 10.2852C170.365 13.5069 167.828 14.0784 168.139 15.0138C168.449 15.8971 170.003 15.5334 170.779 14.5461" stroke="#4A3F2A" stroke-width="0.949472" stroke-miterlimit="10" stroke-linecap="round"/>
<path id="Vector_58" d="M173.212 13.2448C173.471 13.2448 173.678 13.037 173.678 12.7772V12.0497C173.678 11.7899 173.471 11.582 173.212 11.582C172.953 11.582 172.746 11.7899 172.746 12.0497V12.7772C172.746 13.037 172.953 13.2448 173.212 13.2448Z" fill="#4A3F2A"/>
<path id="Vector_59" d="M172.49 16.3652C169.954 23.0165 167.469 16.3652 167.469 16.3652C167.469 16.3652 168.711 16.677 170.005 16.677C171.248 16.625 172.49 16.3652 172.49 16.3652Z" fill="white"/>
<path id="Vector_60" d="M167.728 13.2448C167.986 13.2448 168.194 13.037 168.194 12.7772V12.0497C168.194 11.7899 167.986 11.582 167.728 11.582C167.469 11.582 167.262 11.7899 167.262 12.0497V12.7772C167.262 13.037 167.469 13.2448 167.728 13.2448Z" fill="#4A3F2A"/>
<path id="Vector_61" d="M176.166 15.688C176.166 15.688 176.58 12.2584 178.496 13.2977" stroke="#4A3F2A" stroke-width="0.949472" stroke-miterlimit="10" stroke-linecap="round"/>
</g>
<path id="Vector_62" d="M178.183 11.4817C178.183 11.4817 176.63 11.066 175.957 12.8328C175.284 14.5995 175.905 10.1827 175.698 8.312C175.491 6.23349 173.265 5.45404 171.505 5.40208C170.573 5.35012 169.693 5.50601 168.813 5.76582C167.623 6.12956 166.898 6.75311 165.966 7.63648L165.914 7.68844C164.724 8.83163 165.914 4.57068 167.209 4.10301C168.503 3.68731 172.385 2.28431 174.611 3.68731C176.837 5.0903 178.08 8.20807 178.183 11.4817Z" fill="#4A3F2A"/>
<path id="Vector_63" d="M168.917 21.6677C168.917 21.6677 172.644 22.3952 175.077 19.0176" stroke="#4A3F2A" stroke-width="0.949472" stroke-miterlimit="10" stroke-linecap="round"/>
</g>
<g id="Group_34">
<g id="Group_35">
<path id="Vector_64" d="M159.859 30.658C158.565 27.9039 159.756 26.345 164.311 25.8774C168.918 25.3577 181.135 22.7076 184.397 22.8116C187.71 22.9155 189.781 28.6834 187.451 33.0482C185.122 37.4131 180.877 53.7814 182.171 56.6394C183.465 59.4454 185.794 63.9661 184.293 64.4338C182.74 64.9014 158.669 66.7721 159.497 64.4338C160.325 62.0955 161.826 57.107 161.516 54.6648C161.153 52.1706 161.257 33.7238 159.859 30.658Z" fill="#FF8A66"/>
<path id="Vector_65" d="M172.179 45.5703C172.179 45.5703 173.576 49.5714 182.325 45.5703" stroke="#4A3F2A" stroke-width="0.757983" stroke-miterlimit="10" stroke-linecap="round"/>
<path id="Vector_66" d="M182.224 32.0078C182.224 32.0078 185.019 36.7364 186.313 37.6718" stroke="#4A3F2A" stroke-width="0.757983" stroke-miterlimit="10" stroke-linecap="round"/>
</g>
<path id="Vector_67" d="M167.882 25.357C167.882 25.357 168.658 27.9552 171.816 28.3709C174.974 28.7866 177.304 23.6942 177.304 23.6942C177.304 23.6942 183.619 22.655 184.396 22.8109C185.224 22.9667 180.151 35.3859 185.069 41.0498C186.311 47.3893 187.346 54.768 187.346 54.768C187.346 54.768 190.504 64.0693 188.485 66.8753C186.415 69.7333 159.599 69.5774 158.512 68.2264C157.373 66.8753 157.218 47.3373 157.373 52.3777C157.528 57.3661 156.7 36.633 156.7 36.633C156.7 36.633 156.7 27.3316 159.703 26.7081C162.705 26.0845 167.468 24.5256 167.882 25.357Z" fill="#FFB648"/>
</g>
<g id="Group_36">
<g id="Group_37">
<path id="Vector_68" d="M194.851 42.9204C191.797 41.2056 186.413 47.8568 185.171 49.7795C182.841 53.4169 175.801 63.5496 175.49 63.8094C175.128 64.0173 177.354 66.2517 177.354 66.2517C177.716 66.6154 183.928 62.6143 184.653 62.1986C187.138 60.6397 189.571 58.8729 191.641 56.8464C195.11 53.4688 199.976 47.7009 195.317 43.2841C195.162 43.1282 195.006 43.0243 194.851 42.9204Z" fill="#FF8A66"/>
</g>
<path id="Vector_69" d="M184.445 22.8112C184.445 22.8112 189.156 20.6807 193.556 28.8909C197.957 37.101 199.976 44.012 198.94 44.2199C197.905 44.4277 188.742 49.4162 185.584 47.9612C182.375 46.4543 178.44 28.4232 184.445 22.8112Z" fill="#5553CB"/>
</g>
</g>
<g id="Group_38">
<g id="Group_39">
<g id="Group_40">
<g id="Group_41">
<path id="Vector_70" d="M38.5639 133.546C38.2533 133.961 38.098 134.377 37.891 135.001C37.5286 136.144 36.8556 138.482 38.4604 139.106C38.4604 139.106 54.6118 139.158 54.7153 139.158C55.5436 139.158 55.44 138.326 55.233 137.755C54.8706 136.975 54.0941 136.352 53.4211 135.884C52.5411 135.312 51.5057 135.001 50.5739 134.585C49.5386 134.117 48.4515 133.701 47.3126 133.338C45.6043 132.766 43.8442 132.143 42.0841 132.143C41.1005 132.143 40.117 132.402 39.2887 132.922C38.9781 133.13 38.771 133.338 38.5639 133.546Z" fill="#4A3F2A"/>
<path id="Vector_71" d="M42.6021 73.6825C42.6021 73.6825 47.4164 97.5334 48.0894 104.133C48.1411 108.55 47.054 118.786 46.1222 125.957C45.6045 129.906 45.2939 132.816 45.2939 132.816C45.2939 132.816 48.9176 133.907 47.8305 134.687C46.6917 135.414 39.3407 133.544 39.3407 133.544C39.3407 133.544 38.823 128.919 38.6677 126.944C38.3571 123.099 37.8395 113.434 37.4253 109.589C36.5453 100.651 33.4393 98.0011 31.5756 89.2194C30.8509 85.7898 30.1779 82.3083 29.8673 78.7748C29.712 77.3718 29.0908 74.1501 30.2297 72.955C32.611 70.6167 38.4607 68.746 42.6021 73.6825Z" fill="#FF8A66"/>
</g>
</g>
<g id="Group_42">
<g id="Group_43">
<path id="Vector_72" d="M11.5946 130.944C11.2322 131.255 10.9734 131.671 10.7146 132.243C10.1451 133.334 9.10979 135.516 10.5593 136.348C10.5593 136.348 26.4518 139.206 26.5553 139.258C27.3318 139.414 27.4354 138.53 27.2801 137.959C27.073 137.127 26.4518 136.348 25.7788 135.776C25.0023 135.049 24.0705 134.581 23.1905 134.009C22.2069 133.386 21.2233 132.762 20.188 132.191C18.635 131.359 16.9784 130.424 15.2183 130.112C14.2865 129.956 13.2512 130.008 12.3194 130.372C12.0605 130.632 11.8017 130.788 11.5946 130.944Z" fill="#4A3F2A"/>
<path id="Vector_73" d="M34.3222 74.9273C34.3222 74.9273 31.5267 102.104 29.7667 108.547C27.6442 116.342 21.8463 124.292 18.9473 131.775C18.6885 132.45 22.9334 133.957 21.7428 134.84C20.6039 135.724 12.5282 133.074 12.8388 131.047C13.1494 129.073 14.0812 126.578 14.6507 124.76C15.8413 120.914 17.0837 117.121 18.2226 113.276C19.5168 108.807 20.6039 104.598 20.5521 99.9214C20.5003 94.9849 19.7238 90.1004 19.465 85.164C19.3615 82.7217 17.8085 71.2899 20.7592 69.9389C23.8134 68.5878 32.2515 68.8476 34.3222 74.9273Z" fill="#FF8A66"/>
</g>
</g>
</g>
<g id="Group_44">
<g id="Group_45">
<g id="Group_46">
<path id="Vector_74" d="M20.6547 74.8805C19.5159 74.3609 11.4402 100.29 10.7672 104.707C10.0942 109.072 14.7015 105.227 21.8454 108.241C28.9892 111.254 37.945 106.162 42.8111 107.461C47.6772 108.76 56.0635 106.058 56.2705 104.811C56.4776 103.564 46.0724 72.75 46.0724 72.75C46.0724 72.75 28.7822 78.6738 20.6547 74.8805Z" fill="#F24052"/>
</g>
</g>
</g>
<g id="Group_47">
<g id="Group_48">
<path id="Vector_75" d="M29.8689 18.0851C29.6101 18.293 27.0735 19.4881 25.7275 24.8923C24.5887 29.5169 24.5887 33.674 22.4144 38.0388C21.4826 39.9095 20.6026 41.8321 20.3437 43.9106C19.3602 51.861 28.0053 53.0041 33.5444 54.563C37.1681 55.6023 46.0203 58.3043 47.9356 53.1081C50.4722 46.249 43.0178 29.5169 42.6036 25.1001C42.1895 20.6833 34.3209 14.1879 29.8689 18.0851Z" fill="#4A3F2A"/>
<path id="Vector_76" d="M28.2635 22.3475C28.2635 22.3475 27.8494 19.3337 25.9858 23.9064C24.5363 27.5438 23.6562 31.3371 22.2068 35.0265C21.0161 38.0403 17.8065 41.8336 18.7901 45.2631" stroke="#4A3F2A" stroke-width="0.949472" stroke-miterlimit="10" stroke-linecap="round"/>
</g>
<g id="Group_49">
<path id="Vector_77" d="M32.7557 43.8613H39.2266V33.9884H32.7557V43.8613Z" fill="#FF8A66"/>
<path id="Vector_78" d="M42.2939 23.5927C42.1386 23.125 41.9315 22.6573 41.6727 22.2416C39.2914 18.5003 35.3053 16.4738 31.6816 19.6955C30.4392 20.7867 29.4039 22.1897 28.5238 23.5927C28.265 24.0084 28.1097 24.6839 27.7473 24.9957C27.3332 25.3594 27.0744 25.2555 26.6085 25.5673C26.5049 25.6192 26.4014 25.7231 26.2979 25.7751C26.3496 26.9183 26.4014 28.0615 26.5049 29.1527C27.0744 29.5164 27.592 29.8802 28.0579 30.3478C28.1615 30.4518 28.265 30.5557 28.3685 30.6596C28.8344 30.7116 29.145 30.7116 29.145 30.7116C30.9569 36.8951 35.823 36.6873 35.823 36.6873C39.0843 37.051 41.1033 34.8686 41.9833 31.9587C42.6563 29.5684 43.1222 26.1388 42.2939 23.5927Z" fill="#FF8A66"/>
<path id="Vector_79" d="M37.6351 24.8906C37.428 29.6192 38.4634 30.1908 38.5152 31.0742C38.5669 31.9576 36.5998 31.2821 35.7197 30.1389" stroke="#4A3F2A" stroke-width="0.949472" stroke-miterlimit="10" stroke-linecap="round"/>
<path id="Vector_80" d="M34.0107 32.0605C36.7544 39.2834 39.4463 32.0605 39.4463 32.0605C39.4463 32.0605 38.8251 32.5802 36.5991 32.6321C34.4766 32.6841 34.0107 32.0605 34.0107 32.0605Z" fill="white"/>
<path id="Vector_81" d="M25.9869 23.6431C26.9705 19.7978 29.6624 16.3163 33.7002 15.5369C37.531 14.8094 40.7923 17.3036 42.2418 20.7331C44.0536 25.098 46.1243 24.9421 46.1243 24.9421C44.9337 26.0853 42.9665 26.3971 42.9665 26.3971C37.2721 26.3971 34.0626 21.0449 34.0626 21.0449C29.5588 21.3567 29.6106 28.5795 29.6106 28.5795C29.1964 27.904 27.6434 25.3059 26.7116 26.7089C26.5563 26.9687 26.5046 27.3324 26.5046 27.6442C26.6081 28.4756 27.0222 29.1511 27.6952 29.6188C27.954 29.8266 28.2646 29.9825 28.5235 30.0865C28.5752 30.0865 28.8858 30.1904 28.8858 30.2423L29.4553 31.8532C29.4553 31.8532 28.3682 31.7493 27.9023 32.0091C27.7987 31.8532 27.747 31.6973 27.6434 31.5414C27.2293 30.8659 26.4528 29.6188 26.4528 29.6188C25.4692 28.0599 25.4174 25.8255 25.9869 23.6431Z" fill="#4A3F2A"/>
<path id="Vector_82" d="M39.963 28.3726C40.2736 28.3726 40.4807 28.1128 40.4807 27.853V27.0216C40.4807 26.7098 40.2218 26.502 39.963 26.502C39.6524 26.502 39.4453 26.7618 39.4453 27.0216V27.853C39.4453 28.1128 39.6524 28.3726 39.963 28.3726Z" fill="#4A3F2A"/>
<path id="Vector_83" d="M33.4923 28.3726C33.8029 28.3726 34.01 28.1128 34.01 27.853V27.0216C34.01 26.7098 33.7511 26.502 33.4923 26.502C33.1817 26.502 32.9746 26.7618 32.9746 27.0216V27.853C32.9746 28.1128 33.2334 28.3726 33.4923 28.3726Z" fill="#4A3F2A"/>
</g>
</g>
<g id="Group_50">
<g id="Group_51">
<path id="Vector_84" d="M47.266 72.9052C47.1624 72.2297 46.6448 71.6061 46.3342 71.0345C45.8683 70.1512 45.5577 69.2158 45.3506 68.1766C44.9364 66.15 44.9882 64.0715 45.1435 62.045C45.2471 60.642 45.5059 59.239 45.7647 57.836C46.0753 56.2771 47.0071 54.3025 47.0071 52.6917C47.0071 46.4042 44.3152 41.104 42.9175 39.9088C41.9857 39.1294 39.4491 38.7656 39.4491 38.7656C39.4491 38.7656 39.035 39.649 35.8772 39.8049C32.7194 39.9608 32.7712 38.8696 32.7712 38.8696C32.7712 38.8696 25.6273 40.1167 22.7801 43.7541C19.8294 73.2689 17.5516 71.5022 16.9822 74.7239C16.7234 76.0749 18.8976 77.4779 19.7776 78.1015C22.1071 79.7123 24.799 80.7516 27.5427 81.3751C35.1525 83.0379 42.4516 80.232 47.0589 73.8925C47.266 73.5287 47.3177 73.217 47.266 72.9052Z" fill="#FFB648"/>
</g>
<path id="Vector_85" d="M32.7705 38.9214C32.7705 38.9214 39.5002 47.3914 41.105 52.068C41.105 52.068 40.8462 42.6108 39.4485 38.7656C37.999 34.9723 32.7705 38.9214 32.7705 38.9214Z" fill="#FF8A66"/>
<path id="Vector_86" d="M44.6261 57.4199C44.6261 57.4199 30.3384 62.5123 32.0985 63.4996C33.8585 64.4869 43.1766 59.0308 43.1249 60.4857C43.0731 61.9407 36.1881 66.2536 32.7197 67.6046" stroke="#4A3F2A" stroke-width="0.949472" stroke-miterlimit="10" stroke-linecap="round"/>
</g>
</g>
<g id="Group_52">
<g id="Group_53">
<g id="Group_54">
<g id="Group_55">
<g id="Group_56">
<path id="Vector_87" d="M210.542 40.3756C210.335 40.3236 210.179 40.3236 209.972 40.2717C208.264 40.1158 206.866 41.5188 206.141 42.9737C204.433 46.4033 202.414 51.8594 202.414 51.8594C202.414 51.8594 198.687 47.2866 196.306 44.1689C195.322 42.8698 194.546 41.8305 194.442 41.4668C193.096 41.155 191.957 41.0511 190.663 41.4668C191.44 43.2855 198.221 59.342 202.362 59.4979C205.365 59.6538 207.953 55.8085 209.403 53.6781C211.008 51.2358 215.977 41.5188 210.542 40.3756Z" fill="#FF8A66"/>
</g>
<path id="Vector_88" d="M194.543 41.933C194.44 41.7252 194.491 39.8025 193.456 39.127C192.421 38.4515 191.126 38.4515 190.195 37.8799C189.263 37.3083 187.917 37.0485 188.124 37.6721C188.331 38.3476 190.971 39.5427 190.039 39.231C189.159 38.9192 186.157 38.0358 184.241 36.8926C182.326 35.7494 181.498 35.6975 181.135 35.6455C180.773 35.5936 180.773 35.9573 181.601 36.6328C181.601 36.6328 181.032 37.1005 182.74 38.3996C182.74 38.3996 182.844 39.3349 184.293 40.0624C185.743 40.7898 187.503 41.0497 189.004 41.5693C190.557 42.0889 191.541 42.5566 191.541 42.5566L194.543 41.933Z" fill="#FF8A66"/>
</g>
</g>
<path id="Vector_89" d="M210.54 40.3745C210.54 40.3745 208.365 38.8676 204.949 43.4403C201.532 47.9611 201.584 49.0523 202.309 49.6759C203.033 50.2994 206.502 55.7555 208.935 55.8595C211.368 55.9114 214.888 40.8942 210.54 40.3745Z" fill="#F24052"/>
<path id="Vector_90" d="M210.54 40.3745C210.54 40.3745 208.365 38.8676 204.949 43.4403C201.532 47.9611 201.584 49.0523 202.309 49.6759C203.033 50.2994 206.502 55.7555 208.935 55.8595C211.368 55.9114 214.888 40.8942 210.54 40.3745Z" fill="#F24052"/>
<path id="Vector_91" d="M192.835 46.4531L195.63 52.0651" stroke="#4A3F2A" stroke-width="0.949472" stroke-miterlimit="10" stroke-linecap="round"/>
</g>
<g id="Group_57">
<g id="Group_58">
<g id="Group_59">
<path id="Vector_92" d="M212.505 133.542C212.816 133.957 212.971 134.373 213.178 134.997C213.541 136.14 214.214 138.478 212.609 139.102C212.609 139.102 196.458 139.154 196.354 139.154C195.526 139.154 195.629 138.322 195.836 137.751C196.199 136.971 196.975 136.348 197.648 135.88C198.528 135.308 199.564 134.997 200.495 134.581C201.531 134.113 202.618 133.698 203.757 133.334C205.465 132.762 207.225 132.139 208.985 132.139C209.969 132.139 210.952 132.398 211.781 132.918C212.143 133.126 212.35 133.334 212.505 133.542Z" fill="#4A3F2A"/>
<path id="Vector_93" d="M220.839 73.0058C221.978 74.2009 221.357 77.4226 221.202 78.8256C220.839 82.3071 220.218 85.7886 219.493 89.2701C217.681 98.0519 214.524 100.702 213.644 109.64C213.281 113.485 212.712 123.15 212.401 126.995C212.246 128.97 211.728 133.594 211.728 133.594C211.728 133.594 204.377 135.465 203.29 134.686C202.203 133.906 205.827 132.815 205.827 132.815C205.827 132.815 205.516 129.957 204.998 125.956C204.015 118.785 202.928 108.548 203.031 104.132C203.704 97.4803 208.519 73.6813 208.519 73.6813C212.66 68.7448 218.51 70.6155 220.839 73.0058Z" fill="#FF8A66"/>
</g>
<path id="Vector_94" d="M207.898 70.5636C207.898 70.5636 201.893 99.351 201.789 101.326C201.685 103.3 203.704 123.254 203.704 123.254C203.704 123.254 209.658 126.631 213.695 123.254C213.695 123.254 213.954 106.834 215.714 102.677C217.474 98.5196 222.91 86.6201 223.79 82.8268C224.67 79.0855 216.853 67.2899 207.898 70.5636Z" fill="#69583C"/>
</g>
<g id="Group_60">
<g id="Group_61">
<path id="Vector_95" d="M239.531 130.944C239.893 131.255 240.152 131.671 240.411 132.243C240.981 133.334 242.016 135.516 240.566 136.348C240.566 136.348 224.674 139.206 224.57 139.258C223.794 139.414 223.69 138.53 223.846 137.959C224.053 137.127 224.674 136.348 225.347 135.776C226.123 135.049 227.055 134.581 227.935 134.009C228.919 133.386 229.902 132.762 230.938 132.191C232.491 131.359 234.147 130.424 235.907 130.112C236.839 129.956 237.875 130.008 238.806 130.372C239.065 130.632 239.324 130.788 239.531 130.944Z" fill="#4A3F2A"/>
<path id="Vector_96" d="M230.316 69.9389C233.318 71.2899 231.765 82.7217 231.61 85.164C231.403 90.1004 230.575 94.9849 230.523 99.9214C230.471 104.598 231.558 108.859 232.852 113.276C233.991 117.121 235.234 120.966 236.424 124.76C236.994 126.578 237.926 129.073 238.236 131.047C238.547 133.022 230.471 135.724 229.332 134.84C228.193 133.957 232.387 132.45 232.128 131.775C229.229 124.24 223.431 116.342 221.308 108.547C219.548 102.104 216.753 74.9273 216.753 74.9273C218.875 68.8476 227.262 68.5878 230.316 69.9389Z" fill="#FF8A66"/>
</g>
<path id="Vector_97" d="M214.783 72.2777C214.421 72.3816 214.731 77.422 214.731 77.7857C214.835 81.8908 215.715 85.2684 217.371 88.9577C217.371 88.9577 219.701 105.794 220.426 108.444C221.15 111.042 226.017 125.02 227.466 125.28C228.916 125.54 237.509 123.253 236.629 121.227C235.749 119.2 230.831 105.378 231.866 97.8434C232.902 90.3088 237.198 72.1737 228.812 68.4844C228.864 68.4844 214.835 72.2777 214.783 72.2777Z" fill="#FFB648"/>
</g>
</g>
<g id="Group_62">
<path id="Vector_98" d="M223.116 20.0573C223.116 19.9014 223.065 19.7975 223.116 19.6416C223.272 17.9788 225.187 17.0435 226.688 17.2513C227.775 17.4072 228.759 18.0308 229.535 18.8622C231.14 20.6289 231.968 22.8633 231.192 25.2016C230.881 26.137 230.623 27.1762 230.623 28.1635C230.623 28.839 230.83 29.5145 231.295 29.9822C231.917 30.6577 232.952 30.8136 233.832 31.0215C236.576 31.7489 237.611 35.1785 236.835 37.6207C236.317 39.4394 234.919 40.9464 233.263 41.8297C231.14 42.9729 228.552 43.1808 226.274 42.3494C225.135 41.9337 224.1 41.3101 223.272 40.4267C222.34 39.4394 222.029 37.7247 221.926 36.4256C221.822 34.2951 222.443 32.1646 222.599 30.0861C222.702 28.9949 222.961 27.9557 223.686 27.0723C224.928 25.5654 224.307 23.227 223.686 21.5642C223.53 21.0446 223.22 20.5769 223.116 20.0573Z" fill="#4A3F2A"/>
<path id="Vector_99" d="M220.994 18.863C220.994 18.863 227.154 16.2129 225.86 23.9034C224.566 31.6459 220.994 18.863 220.994 18.863Z" fill="#F24052"/>
<path id="Vector_100" d="M212.815 34.7109L212.919 39.3876C212.919 39.3876 213.695 46.1947 215.404 43.7525H218.717V34.7109H212.815Z" fill="#FF8A66"/>
<path id="Vector_101" d="M209.345 25.2028C209.501 24.7352 209.708 24.3195 209.915 23.9557C212.089 20.5262 215.713 18.7075 219.078 21.6174C220.217 22.6047 221.148 23.9038 221.977 25.2028C222.235 25.6185 222.391 26.1901 222.701 26.5019C223.064 26.8657 223.323 26.7617 223.737 27.0215C223.84 27.0735 223.944 27.1774 223.996 27.2294C223.944 28.2686 223.892 29.3079 223.84 30.3472C223.323 30.6589 222.857 31.0227 222.391 31.4384C222.287 31.5423 222.184 31.6462 222.08 31.7502C221.666 31.8021 221.355 31.8021 221.355 31.8021C219.699 37.4661 215.247 37.2582 215.247 37.2582C212.296 37.57 210.381 35.5954 209.604 32.9453C208.983 30.6589 208.569 27.5931 209.345 25.2028Z" fill="#FF8A66"/>
<path id="Vector_102" d="M213.593 26.3965C213.8 30.7094 212.868 31.229 212.817 32.0604C212.765 32.8399 214.525 32.2683 215.353 31.1771" stroke="#4A3F2A" stroke-width="0.949472" stroke-miterlimit="10" stroke-linecap="round"/>
<path id="Vector_103" d="M216.905 32.9414C214.42 38.7612 211.936 32.9414 211.936 32.9414" stroke="#4A3F2A" stroke-width="0.949472" stroke-miterlimit="10" stroke-linecap="round"/>
<path id="Vector_104" d="M211.47 29.6191C211.211 29.6191 211.004 29.4112 211.004 29.1514V28.372C211.004 28.1121 211.211 27.9043 211.47 27.9043C211.729 27.9043 211.936 28.1121 211.936 28.372V29.0994C211.936 29.3593 211.729 29.6191 211.47 29.6191Z" fill="#4A3F2A"/>
<path id="Vector_105" d="M217.316 29.6191C217.058 29.6191 216.851 29.4112 216.851 29.1514V28.372C216.851 28.1121 217.058 27.9043 217.316 27.9043C217.575 27.9043 217.782 28.1121 217.782 28.372V29.0994C217.782 29.3593 217.575 29.6191 217.316 29.6191Z" fill="#4A3F2A"/>
<path id="Vector_106" d="M221.822 27.6416C221.718 27.6935 221.615 27.7974 221.563 27.8494C221.459 27.9533 220.528 29.3563 220.579 29.3563C218.716 28.5249 217.266 26.6023 216.49 24.7836C216.49 24.7836 216.49 27.7455 215.247 26.7582C214.005 25.7709 212.814 22.4453 212.814 22.4453C212.814 22.4453 213.228 25.667 212.297 25.7189C211.365 25.8229 211.002 23.4845 211.002 23.4845C211.002 23.4845 210.485 27.7974 208.673 27.3298C207.896 27.1219 207.379 26.3944 207.12 25.667C206.136 22.1855 209.087 19.6912 211.934 18.5481C212.659 18.2882 213.332 18.0284 214.109 17.8725C217.37 17.0931 218.768 18.652 218.768 18.652C218.768 18.652 221.77 16.9892 224.462 20.8344C225.86 22.861 226.067 26.6023 225.808 28.9406C225.497 31.4868 223.375 35.384 220.321 34.2928C221.201 32.8378 221.045 32.4741 221.201 31.4868C221.201 31.3829 221.615 31.175 221.667 31.1231C222.236 30.8113 222.598 30.2397 222.805 29.6681C222.961 29.0965 223.116 27.6935 222.236 27.5896C222.029 27.5896 221.925 27.5896 221.822 27.6416Z" fill="#4A3F2A"/>
</g>
<g id="Group_63">
<g id="Group_64">
<path id="Vector_107" d="M207.121 65.9417C207.536 62.772 207.432 59.7062 206.863 56.4845C206.604 55.0295 205.724 53.2628 205.724 51.8078C205.724 46.0919 208.208 41.2074 209.451 40.1682C210.331 39.4407 212.609 39.1289 212.609 39.1289C212.609 39.1289 212.971 39.9603 215.87 40.0642C218.769 40.1682 219.08 39.1289 219.08 39.1289C219.08 39.1289 225.24 40.324 227.88 43.6497C230.572 70.6184 232.643 69.0075 233.16 71.9174C233.367 73.1645 231.4 74.4117 230.624 74.9832C227.259 77.2696 223.066 79.6079 218.873 79.6599C215.042 79.7119 211.211 78.3608 208.208 75.9705C207.432 75.347 206.655 74.6195 206.034 73.8401C205.361 73.0606 205.672 72.2292 205.931 71.2939C206.293 70.1507 206.604 69.0075 206.863 67.8124C206.914 67.1888 207.07 66.5653 207.121 65.9417Z" fill="#5553CB"/>
</g>
<path id="Vector_108" d="M207.897 54.4043C207.897 54.4043 220.943 59.8604 219.338 60.8996C217.733 61.9389 208.881 55.5475 208.933 57.1064C208.985 58.6653 212.556 63.4458 215.766 64.9528" stroke="#4A3F2A" stroke-width="0.949472" stroke-miterlimit="10" stroke-linecap="round"/>
</g>
</g>
<path id="Vector_109" d="M211.262 120.919C152.507 121.543 93.8026 122.114 35.0469 122.738C33.235 101.589 31.4232 80.3883 29.6113 59.1875C91.9907 59.8111 154.37 60.4346 216.75 61.1101C214.886 81.0119 213.074 100.966 211.262 120.919Z" fill="#F3F7E9"/>
<g id="Group_65">
<g id="Group_66">
<g id="Clip path group">
<mask id="mask0_2853_63139" style="mask-type:luminance" maskUnits="userSpaceOnUse" x="17" y="66" width="23" height="20">
<g id="SVGID_7_">
<path id="Vector_110" d="M30.5424 69.6267L30.9048 74.4073C30.9048 74.4073 39.0322 75.6024 39.1357 77.7329C39.2393 79.8634 34.2178 88.0215 30.9565 85.5273C27.6952 83.0331 17.5488 70.4581 17.5488 70.4581C17.5488 70.4581 21.5349 66.5089 21.8455 66.405C22.1561 66.3011 27.1258 67.1844 27.1258 67.1844L30.5424 69.6267Z" fill="white"/>
</g>
</mask>
<g mask="url(#mask0_2853_63139)">
<path id="Vector_111" d="M30.5926 73.7825C31.4727 73.055 34.9411 74.1982 35.4587 73.6266C35.9764 73.055 35.4587 73.6266 33.9575 72.0677C32.4562 70.5088 30.282 71.8598 28.729 71.2363C27.7454 70.8206 27.176 70.0931 26.6583 69.2617C26.2442 68.6381 25.8818 67.9107 25.4159 67.2871C24.1735 68.794 22.2063 69.9372 20.6533 71.1324C20.6533 71.1324 22.9828 74.1462 25.83 76.9522C26.0889 77.9395 29.4537 82.3563 31.9903 82.3563C33.0257 82.3563 32.8186 81.9406 31.628 81.2131C32.7668 81.6808 33.9057 81.9926 34.4751 81.9406C37.4776 81.7847 34.3716 80.4857 32.1974 79.6023C32.1974 79.6023 32.2492 79.6023 32.2492 79.5503C33.8022 80.07 36.0282 80.6935 36.8564 80.4337C38.3577 79.966 35.0446 78.5111 33.3363 77.6277C34.6822 78.1993 37.2188 79.1346 37.3741 78.3552C37.5812 77.1081 29.7126 74.5099 30.5926 73.7825Z" fill="#FF8A66"/>
</g>
</g>
</g>
<g id="Group_67">
<path id="Vector_112" d="M26.8174 42.0883C30.4411 42.9717 29.2504 48.6356 28.3704 50.5582C27.0244 53.4682 23.1419 57.5732 21.4336 60.2753C21.4336 60.2753 24.902 65.1598 29.354 68.1217C29.354 68.1217 28.9916 72.2267 27.1798 73.9935C25.4197 75.7602 24.3326 76.1759 24.2808 76.1759C22.9866 76.3318 17.6028 70.46 17.6028 70.46C17.6028 70.46 12.9438 65.4716 11.4425 61.7822C10.7178 59.9635 11.9602 58.2487 12.6332 56.6379C13.6168 54.4035 16.3086 51.8573 17.5511 49.7788C19.5182 46.6091 20.7089 43.855 24.229 42.4001C24.7985 42.1403 25.4197 41.9844 26.0926 41.9844C26.3515 42.0363 26.6103 42.0363 26.8174 42.0883Z" fill="#5553CB"/>
</g>
</g>
<g id="Group_68">
<g id="Group_69">
<path id="Vector_113" d="M225.963 42.7616C228.862 42.242 233.262 46.8147 234.763 48.3736C236.834 50.5041 241.441 54.9209 240.975 58.3505C240.406 62.2477 228.603 65.5733 225.497 68.3793C225.497 68.3793 223.271 71.3412 221.407 72.0686C220.424 72.4843 219.544 73.2118 218.715 73.9393C218.301 74.303 217.887 74.6148 217.473 74.9786C217.162 75.2384 216.748 75.6541 216.334 75.6021C215.402 75.4982 215.92 74.7187 216.231 74.303C215.868 74.7187 215.04 75.0825 214.471 74.9266C213.539 74.6148 215.092 72.7442 215.402 72.3285C215.402 72.3285 213.694 74.8227 212.814 74.303C211.934 73.7315 213.849 71.7569 213.849 71.7569C213.849 71.7569 212.814 73.4197 211.727 72.7961C210.692 72.1726 213.798 67.5479 213.798 67.5479L221.149 64.7938C221.149 64.7938 231.709 57.4671 231.761 57.4671C231.45 57.6749 227.309 53.466 226.843 52.9463C225.652 51.5953 224.565 49.6207 223.996 47.9579C223.633 46.8147 223.53 45.5156 224.047 44.4244C224.565 43.3852 225.186 42.9175 225.963 42.7616Z" fill="#FF8A66"/>
<path id="Vector_114" d="M213.331 72.3793C213.331 72.3793 214.522 70.6126 214.781 70.041" stroke="#4A3F2A" stroke-width="0.949472" stroke-miterlimit="10" stroke-linecap="round"/>
<path id="Vector_115" d="M214.677 73.2633C214.677 73.2633 216.074 71.0809 216.178 70.873" stroke="#4A3F2A" stroke-width="0.949472" stroke-miterlimit="10" stroke-linecap="round"/>
<path id="Vector_116" d="M216.177 74.407C216.177 74.407 217.471 72.3805 217.782 72.2246" stroke="#4A3F2A" stroke-width="0.949472" stroke-miterlimit="10" stroke-linecap="round"/>
</g>
<path id="Vector_117" d="M231.241 43.9073C231.241 43.9073 226.685 40.6337 223.941 42.5563C221.249 44.4789 225.287 54.2479 228.704 56.3784C228.704 56.3784 237.608 51.0782 236.987 49.883C236.469 48.6879 231.241 43.9073 231.241 43.9073Z" fill="#F24052"/>
</g>
<g id="Group_70">
<g id="Group_71">
<path id="Vector_118" d="M172.54 60.6422C172.54 60.6422 171.712 57.4205 170.521 57.2127C169.331 57.0048 168.968 57.2646 169.331 58.3039C169.693 59.3432 169.9 59.7589 169.9 60.5903L172.54 60.6422Z" fill="#FF8A66"/>
<path id="Vector_119" d="M172.955 57.4199C172.541 57.4718 172.23 57.8875 172.179 58.4591C172.075 59.7062 172.541 61.0573 172.955 62.2005C172.955 62.2005 173.059 63.2397 174.198 62.772C174.198 62.772 174.146 63.6035 174.819 63.7074C175.492 63.8113 175.544 63.0319 175.544 63.0319C175.544 63.0319 175.647 63.7593 176.268 63.7074C176.941 63.6554 176.941 63.0319 176.941 63.0319C176.941 63.0319 177.148 63.5515 177.77 63.2397C178.391 62.9799 178.235 61.2651 178.753 60.7455H179.581C179.581 60.7455 179.219 57.9915 177.666 58.9268C177.666 58.9268 176.631 57.5758 175.802 58.4591C175.802 58.4591 175.129 57.316 174.249 58.0954C174.301 58.0434 173.732 57.6277 173.68 57.5758C173.369 57.4199 173.162 57.3679 172.955 57.4199Z" fill="#FF8A66"/>
</g>
<g id="Group_72">
<path id="Vector_120" d="M145.464 60.4348C145.464 60.4348 146.189 57.317 147.379 57.1092C148.57 56.9013 148.932 57.1611 148.57 58.2004C148.208 59.2396 148 59.5514 148 60.4348H145.464Z" fill="#FF8A66"/>
<path id="Vector_121" d="M145.103 57.1093C145.517 57.1613 145.827 57.577 145.879 58.1486C145.983 59.3957 145.517 60.7467 145.103 61.8899C145.103 61.8899 144.999 62.9292 143.86 62.4615C143.86 62.4615 143.912 63.2929 143.239 63.3968C142.566 63.5008 142.514 62.7213 142.514 62.7213C142.514 62.7213 142.411 63.4488 141.79 63.3968C141.117 63.3449 141.117 62.7213 141.117 62.7213C141.117 62.7213 140.91 63.2409 140.288 62.9292C139.667 62.6693 139.926 60.9026 139.408 60.383H138.58C138.58 60.383 138.839 57.6809 140.392 58.6163C140.392 58.6163 141.427 57.2652 142.256 58.1486C142.256 58.1486 142.929 57.0054 143.809 57.7848C143.757 57.7329 144.326 57.3172 144.378 57.2652C144.637 57.1093 144.896 57.0574 145.103 57.1093Z" fill="#FF8A66"/>
</g>
<path id="Vector_122" d="M174.146 62.7724C174.146 62.7724 174.043 58.6673 174.198 58.0957" stroke="#4A3F2A" stroke-width="0.949472" stroke-miterlimit="10" stroke-linecap="round"/>
<path id="Vector_123" d="M175.491 62.9809C175.491 62.877 175.75 58.4082 175.75 58.4082" stroke="#4A3F2A" stroke-width="0.949472" stroke-miterlimit="10" stroke-linecap="round"/>
<path id="Vector_124" d="M176.889 62.9801C176.889 62.9801 177.51 58.927 177.613 58.875" stroke="#4A3F2A" stroke-width="0.949472" stroke-miterlimit="10" stroke-linecap="round"/>
<path id="Vector_125" d="M140.394 58.5117C140.394 58.5117 141.17 59.6029 141.118 62.6168" stroke="#4A3F2A" stroke-width="0.949472" stroke-miterlimit="10" stroke-linecap="round"/>
<path id="Vector_126" d="M142.258 58.0957C142.258 58.0957 142.62 60.486 142.517 62.6684" stroke="#4A3F2A" stroke-width="0.949472" stroke-miterlimit="10" stroke-linecap="round"/>
<path id="Vector_127" d="M143.861 62.5671C143.861 62.5671 143.81 57.7865 143.81 57.7345C143.81 57.6826 144.172 57.4747 144.172 57.4747C144.431 57.3188 144.69 57.1629 145 57.1629C146.398 57.111 145.777 59.5013 145.57 60.2288" stroke="#4A3F2A" stroke-width="0.949472" stroke-miterlimit="10" stroke-linecap="round"/>
<path id="Vector_128" d="M146.036 58.6159C146.191 58.2002 146.502 57.7326 146.813 57.4208C147.071 57.161 147.382 57.0051 147.744 56.9531C148.055 56.9531 148.573 57.0571 148.676 57.3688C148.832 57.8365 148.417 58.46 148.262 58.8758C148.107 59.2915 148.055 59.7072 148.003 60.1748" stroke="#4A3F2A" stroke-width="0.949472" stroke-miterlimit="10" stroke-linecap="round"/>
</g>
<g id="Group_73">
<g id="Group_74">
<path id="Vector_129" d="M131.489 60.2219C131.489 60.2219 130.66 57.1041 129.522 56.8963C128.383 56.6884 128.02 56.9482 128.331 57.9875C128.641 58.9748 128.952 59.3905 128.952 60.2219H131.489Z" fill="#FF8A66"/>
<path id="Vector_130" d="M131.851 57.1035C131.437 57.1555 131.126 57.5712 131.126 58.0908C131.075 59.286 131.489 60.585 131.851 61.7282C131.851 61.7282 131.955 62.7155 133.042 62.2478C133.042 62.2478 132.99 63.0273 133.663 63.1312C134.336 63.1832 134.336 62.4557 134.336 62.4557C134.336 62.4557 134.44 63.1312 135.061 63.1312C135.682 63.0792 135.682 62.4557 135.682 62.4557C135.682 62.4557 135.889 62.9234 136.458 62.6635C137.028 62.4037 136.873 60.7409 137.39 60.2213H138.115C138.115 60.2213 137.908 57.5712 136.407 58.4545C136.407 58.4545 135.423 57.1555 134.595 58.0388C134.595 58.0388 133.922 56.9476 133.094 57.7271C133.145 57.6751 132.576 57.2594 132.524 57.2594C132.265 57.1555 132.007 57.1035 131.851 57.1035Z" fill="#FF8A66"/>
</g>
<g id="Group_75">
<path id="Vector_131" d="M110.628 60.0137C110.628 60.0137 111.456 56.9479 112.595 56.74C113.734 56.5322 114.096 56.792 113.786 57.8312C113.475 58.8185 113.216 59.2342 113.216 60.0656L110.628 60.0137Z" fill="#FF8A66"/>
<path id="Vector_132" d="M110.213 56.9472C110.627 56.9992 110.938 57.4149 110.938 57.9345C110.99 59.1297 110.575 60.4287 110.213 61.5719C110.213 61.5719 110.11 62.5592 109.022 62.0915C109.022 62.0915 109.074 62.871 108.401 62.9749C107.728 63.0269 107.728 62.2994 107.728 62.2994C107.728 62.2994 107.625 62.9749 107.003 62.9749C106.382 62.9229 106.382 62.2994 106.382 62.2994C106.382 62.2994 106.175 62.7671 105.606 62.5072C105.036 62.2474 105.192 60.4287 104.674 59.9091H104.001C104.001 59.9091 104.208 57.4149 105.709 58.2983C105.709 58.2983 106.693 56.9992 107.521 57.8826C107.521 57.8826 108.194 56.7913 109.022 57.5708C108.971 57.5188 109.54 57.1031 109.592 57.1031C109.799 56.9472 110.058 56.8953 110.213 56.9472Z" fill="#FF8A66"/>
</g>
<path id="Vector_133" d="M133.095 57.7793C133.095 57.7793 132.785 60.3255 133.043 62.3001" stroke="#4A3F2A" stroke-width="0.949472" stroke-miterlimit="10" stroke-linecap="round"/>
<path id="Vector_134" d="M134.596 58.0918C134.596 58.0918 134.39 62.0929 134.39 62.6645" stroke="#4A3F2A" stroke-width="0.949472" stroke-miterlimit="10" stroke-linecap="round"/>
<path id="Vector_135" d="M136.357 58.5059C136.357 58.5059 135.839 60.0647 135.684 62.507" stroke="#4A3F2A" stroke-width="0.949472" stroke-miterlimit="10" stroke-linecap="round"/>
<path id="Vector_136" d="M105.708 58.3496C105.708 58.3496 106.64 59.9605 106.381 62.3507" stroke="#4A3F2A" stroke-width="0.949472" stroke-miterlimit="10" stroke-linecap="round"/>
<path id="Vector_137" d="M107.467 57.9355C107.467 57.9355 108.088 60.3258 107.726 62.3524" stroke="#4A3F2A" stroke-width="0.949472" stroke-miterlimit="10" stroke-linecap="round"/>
<path id="Vector_138" d="M108.972 57.5703C108.972 57.5703 109.487 59.7527 109.023 62.0911" stroke="#4A3F2A" stroke-width="0.949472" stroke-miterlimit="10" stroke-linecap="round"/>
</g>
<g id="Group_76">
<g id="Group_77">
<path id="Vector_139" d="M69.3148 58.616C68.2277 58.3042 67.1406 57.9404 66.1052 57.6287C65.0699 57.3169 63.8792 56.7453 62.8439 56.6933C61.6533 56.6414 60.4108 56.7973 59.2202 57.161C58.7025 57.3169 57.9778 57.4728 57.5119 57.8365C57.3566 57.9404 56.5801 59.1356 56.5801 59.1356C56.5801 59.1356 58.0813 60.019 58.2884 60.1748C58.2884 60.1748 60.5661 62.8769 62.378 63.4485C63.3616 63.7603 64.2416 64.4358 65.0181 65.0593C65.4323 65.3711 65.8464 65.6829 66.2088 65.9947C66.5194 66.2025 66.9335 66.6182 67.3476 66.5663C68.2277 66.4104 67.71 65.6829 67.3476 65.3192C67.71 65.6829 68.5383 65.9947 69.0042 65.7868C69.5736 65.527 69.1077 64.7476 68.6418 64.124C69.2113 64.7476 70.0395 65.4231 70.5054 65.0593C71.0231 64.6956 70.4019 63.8122 69.936 63.2407C70.3501 63.6044 70.9196 63.9162 71.4372 63.5524C72.5761 62.8769 69.3148 58.616 69.3148 58.616Z" fill="#FF8A66"/>
<path id="Vector_140" d="M70.1419 63.2906C70.1419 63.2906 68.8995 61.6798 68.6406 61.1602" stroke="#4A3F2A" stroke-width="0.949472" stroke-miterlimit="10" stroke-linecap="round"/>
<path id="Vector_141" d="M68.9007 64.1766C68.9007 64.1766 67.4512 62.15 67.3477 61.9941" stroke="#4A3F2A" stroke-width="0.949472" stroke-miterlimit="10" stroke-linecap="round"/>
<path id="Vector_142" d="M67.555 65.3183C67.555 65.3183 66.209 63.4996 65.9502 63.3438" stroke="#4A3F2A" stroke-width="0.949472" stroke-miterlimit="10" stroke-linecap="round"/>
</g>
<g id="Group_78">
<g id="Group_79">
<path id="Vector_143" d="M93.8021 59.8094C93.8021 59.8094 93.1292 56.7955 91.9903 56.5877C90.8514 56.3798 90.489 56.6396 90.7996 57.6789C91.1102 58.6662 91.3691 58.978 91.3691 59.8094H93.8021Z" fill="#FF8A66"/>
<path id="Vector_144" d="M94.3219 56.8476C93.9078 56.8996 93.5972 57.3153 93.5972 57.8349C93.5454 59.0301 93.9595 60.3291 94.3219 61.4723C94.3219 61.4723 94.4255 62.4596 95.5126 61.9919C95.5126 61.9919 95.4608 62.7714 96.1338 62.8753C96.8067 62.9273 96.8067 62.1998 96.8067 62.1998C96.8067 62.1998 96.9103 62.8753 97.5315 62.8753C98.1527 62.8233 98.1527 62.1998 98.1527 62.1998C98.1527 62.1998 98.3598 62.6674 98.9292 62.4076C99.4986 62.1478 99.2916 60.433 99.8092 59.8615H100.638C100.638 59.8615 100.327 57.3153 98.8257 58.1986C98.8257 58.1986 97.8421 56.8996 97.0138 57.7829C97.0138 57.7829 96.3408 56.6917 95.5126 57.4712C95.5643 57.4192 94.9949 57.0035 94.9431 57.0035C94.7361 56.8476 94.529 56.7956 94.3219 56.8476Z" fill="#FF8A66"/>
</g>
<path id="Vector_145" d="M95.5613 57.4688C95.5613 57.4688 95.3034 59.5473 95.5097 61.9895" stroke="#4A3F2A" stroke-width="0.949472" stroke-miterlimit="10" stroke-linecap="round"/>
<path id="Vector_146" d="M97.0625 57.7832C97.0625 57.7832 96.7519 60.4333 96.8037 62.2" stroke="#4A3F2A" stroke-width="0.949472" stroke-miterlimit="10" stroke-linecap="round"/>
<path id="Vector_147" d="M98.8751 58.248C98.8751 58.248 98.2021 58.7677 98.2021 62.2492" stroke="#4A3F2A" stroke-width="0.949472" stroke-miterlimit="10" stroke-linecap="round"/>
</g>
</g>
<g id="D&#225;&#187;&#139;ch v&#225;&#187;&#165;">
<path d="M89.3392 80.8649C90.532 80.8649 91.5921 81.0894 92.5198 81.5383C93.4475 81.9873 94.2261 82.6191 94.8555 83.4339C95.5016 84.2321 95.982 85.1632 96.2967 86.2274C96.6281 87.275 96.7937 88.3974 96.7937 89.5946C96.7937 91.2076 96.5038 92.6791 95.924 94.0094C95.3442 95.323 94.4994 96.3706 93.3895 97.1521C92.2962 97.9336 90.9461 98.3244 89.3392 98.3244H83.4005C82.9698 98.3244 82.6054 98.183 82.3072 97.9004C82.0256 97.6011 81.8848 97.2352 81.8848 96.8029V82.3863C81.8848 81.954 82.0256 81.5965 82.3072 81.3138C82.6054 81.0145 82.9698 80.8649 83.4005 80.8649H89.3392ZM89.0908 95.456C90.1344 95.456 90.9875 95.19 91.6501 94.6579C92.3127 94.1092 92.7931 93.3941 93.0913 92.5129C93.4061 91.6149 93.5634 90.6422 93.5634 89.5946C93.5634 88.8131 93.4723 88.0732 93.2901 87.3748C93.1245 86.6598 92.8594 86.0362 92.495 85.5041C92.1305 84.9554 91.6667 84.5231 91.1035 84.2071C90.5402 83.8912 89.8693 83.7332 89.0908 83.7332H84.7423L84.9908 83.5087V95.7304L84.8417 95.456H89.0908Z" fill="#D9248F"/>
<path d="M101.213 96.8029C101.213 97.2352 101.072 97.6011 100.79 97.9004C100.509 98.183 100.153 98.3244 99.7219 98.3244C99.2912 98.3244 98.9351 98.183 98.6534 97.9004C98.3718 97.6011 98.231 97.2352 98.231 96.8029V86.5018C98.231 86.0695 98.3718 85.712 98.6534 85.4293C98.9351 85.13 99.2912 84.9803 99.7219 84.9803C100.153 84.9803 100.509 85.13 100.79 85.4293C101.072 85.712 101.213 86.0695 101.213 86.5018V96.8029ZM99.6971 83.3591C99.1338 83.3591 98.7363 83.2676 98.5044 83.0847C98.2724 82.9018 98.1565 82.5776 98.1565 82.112V81.6381C98.1565 81.1559 98.2807 80.8316 98.5292 80.6653C98.7942 80.4824 99.1918 80.391 99.7219 80.391C100.302 80.391 100.708 80.4824 100.939 80.6653C101.171 80.8482 101.287 81.1725 101.287 81.6381V82.112C101.287 82.5942 101.163 82.9268 100.915 83.1097C100.666 83.2759 100.26 83.3591 99.6971 83.3591ZM99.8959 102.315C99.3492 102.315 98.9599 102.224 98.728 102.041C98.4961 101.858 98.3801 101.534 98.3801 101.068V100.594C98.3801 100.112 98.5044 99.7793 98.7528 99.5964C99.0179 99.4302 99.3989 99.347 99.8959 99.347C100.509 99.347 100.931 99.4302 101.163 99.5964C101.395 99.7793 101.511 100.112 101.511 100.594V101.068C101.511 101.55 101.387 101.874 101.138 102.041C100.89 102.224 100.476 102.315 99.8959 102.315Z" fill="#D9248F"/>
<path d="M109.197 84.7309C110.141 84.7309 110.961 84.8307 111.657 85.0302C112.37 85.2297 112.916 85.5124 113.297 85.8782C113.695 86.2274 113.894 86.6515 113.894 87.1503C113.894 87.4829 113.794 87.7988 113.595 88.0981C113.397 88.3808 113.107 88.5221 112.726 88.5221C112.461 88.5221 112.237 88.4889 112.055 88.4223C111.889 88.3392 111.74 88.2394 111.608 88.123C111.475 88.0066 111.318 87.8986 111.135 87.7988C110.97 87.699 110.713 87.6242 110.365 87.5743C110.034 87.5078 109.785 87.4745 109.62 87.4745C108.775 87.4745 108.054 87.6575 107.458 88.0233C106.878 88.3891 106.431 88.8879 106.116 89.5198C105.801 90.135 105.644 90.85 105.644 91.6648C105.644 92.463 105.801 93.178 106.116 93.8099C106.447 94.4251 106.895 94.9156 107.458 95.2814C108.038 95.6473 108.7 95.8302 109.446 95.8302C109.86 95.8302 110.216 95.8052 110.514 95.7553C110.812 95.7055 111.061 95.6306 111.26 95.5309C111.492 95.3978 111.699 95.2565 111.881 95.1068C112.063 94.9572 112.336 94.8824 112.701 94.8824C113.132 94.8824 113.463 95.0237 113.695 95.3064C113.927 95.5724 114.043 95.905 114.043 96.3041C114.043 96.7198 113.811 97.1022 113.347 97.4514C112.883 97.784 112.27 98.0583 111.508 98.2745C110.763 98.474 109.951 98.5738 109.073 98.5738C107.764 98.5738 106.63 98.2745 105.669 97.6759C104.708 97.0606 103.963 96.2292 103.432 95.1817C102.919 94.1341 102.662 92.9618 102.662 91.6648C102.662 90.3013 102.935 89.1041 103.482 88.0732C104.045 87.0256 104.816 86.2108 105.793 85.6288C106.787 85.0302 107.922 84.7309 109.197 84.7309Z" fill="#D9248F"/>
<path d="M122.181 84.7309C123.374 84.7309 124.277 84.9886 124.89 85.5041C125.519 86.0196 125.95 86.7097 126.182 87.5743C126.414 88.4223 126.53 89.3701 126.53 90.4177V96.8029C126.53 97.2352 126.389 97.6011 126.107 97.9004C125.826 98.183 125.469 98.3244 125.039 98.3244C124.608 98.3244 124.252 98.183 123.97 97.9004C123.689 97.6011 123.548 97.2352 123.548 96.8029V90.4177C123.548 89.869 123.482 89.3785 123.349 88.9461C123.217 88.4972 122.976 88.1397 122.628 87.8736C122.281 87.6076 121.784 87.4745 121.138 87.4745C120.508 87.4745 119.97 87.6076 119.522 87.8736C119.075 88.1397 118.736 88.4972 118.504 88.9461C118.288 89.3785 118.181 89.869 118.181 90.4177V96.8029C118.181 97.2352 118.04 97.6011 117.758 97.9004C117.477 98.183 117.12 98.3244 116.69 98.3244C116.259 98.3244 115.903 98.183 115.621 97.9004C115.34 97.6011 115.199 97.2352 115.199 96.8029V81.3887C115.199 80.9563 115.34 80.5988 115.621 80.3161C115.903 80.0168 116.259 79.8672 116.69 79.8672C117.12 79.8672 117.477 80.0168 117.758 80.3161C118.04 80.5988 118.181 80.9563 118.181 81.3887V87.5743L117.808 87.4995C117.957 87.2168 118.164 86.9175 118.429 86.6016C118.694 86.269 119.017 85.9614 119.398 85.6787C119.779 85.396 120.202 85.1716 120.665 85.0053C121.129 84.8224 121.635 84.7309 122.181 84.7309Z" fill="#D9248F"/>
<path d="M135.331 84.9803C135.646 84.9803 135.936 85.0635 136.201 85.2297C136.466 85.3794 136.665 85.6122 136.797 85.9281L140.45 94.3087L139.903 94.5581L143.63 85.9531C143.912 85.2879 144.351 84.972 144.947 85.0053C145.362 85.0053 145.693 85.1383 145.941 85.4043C146.206 85.6538 146.339 85.9697 146.339 86.3521C146.339 86.4685 146.314 86.5933 146.264 86.7263C146.231 86.8593 146.19 86.984 146.14 87.1004L141.494 97.3766C141.229 97.9752 140.806 98.2911 140.226 98.3244C139.912 98.3743 139.605 98.3161 139.307 98.1498C139.025 97.9835 138.81 97.7258 138.661 97.3766L134.039 87.1004C134.006 87.0173 133.965 86.9092 133.915 86.7762C133.882 86.6431 133.865 86.4852 133.865 86.3023C133.865 86.003 133.998 85.712 134.263 85.4293C134.528 85.13 134.884 84.9803 135.331 84.9803Z" fill="#D9248F"/>
<path d="M157.559 84.9803C157.989 84.9803 158.345 85.13 158.627 85.4293C158.909 85.712 159.049 86.0695 159.049 86.5018V92.8371C159.049 94.5997 158.561 95.9964 157.583 97.0274C156.606 98.0583 155.198 98.5738 153.359 98.5738C151.52 98.5738 150.112 98.0583 149.135 97.0274C148.174 95.9964 147.694 94.5997 147.694 92.8371V86.5018C147.694 86.0695 147.835 85.712 148.116 85.4293C148.398 85.13 148.754 84.9803 149.185 84.9803C149.615 84.9803 149.972 85.13 150.253 85.4293C150.535 85.712 150.676 86.0695 150.676 86.5018V92.8371C150.676 93.8514 150.899 94.608 151.346 95.1068C151.794 95.5891 152.465 95.8302 153.359 95.8302C154.27 95.8302 154.949 95.5891 155.397 95.1068C155.844 94.608 156.068 93.8514 156.068 92.8371V86.5018C156.068 86.0695 156.208 85.712 156.49 85.4293C156.772 85.13 157.128 84.9803 157.559 84.9803ZM153.334 102.315C152.788 102.315 152.398 102.224 152.166 102.041C151.935 101.858 151.819 101.534 151.819 101.068V100.594C151.819 100.112 151.943 99.7793 152.191 99.5964C152.456 99.4302 152.837 99.347 153.334 99.347C153.947 99.347 154.37 99.4302 154.602 99.5964C154.833 99.7793 154.949 100.112 154.949 100.594V101.068C154.949 101.55 154.825 101.874 154.577 102.041C154.328 102.224 153.914 102.315 153.334 102.315Z" fill="#D9248F"/>
</g>
</g>
<defs>
<clipPath id="clip0_2853_63139">
<rect width="249" height="145.444" fill="white"/>
</clipPath>
</defs>
</svg>
