<svg width="87" height="151" viewBox="0 0 87 151" fill="none" xmlns="http://www.w3.org/2000/svg">
<g id="Group">
<g id="Group_2">
<path id="Vector" d="M86.708 149.491C86.708 150.164 86.6474 150.654 86.6474 150.654H67.5605C67.5605 150.287 67.5605 149.92 67.5605 149.491C67.8029 144.474 69.3783 140.069 69.3783 140.069L74.1652 137.988C74.5894 140.497 75.6194 142.027 76.9525 143.067C77.3161 143.373 77.6796 143.556 78.0432 143.801C78.2249 143.923 78.4067 143.985 78.5885 144.046C79.0127 144.229 79.3762 144.352 79.8004 144.474C81.497 144.963 83.1936 145.086 84.3449 145.269C86.405 145.637 86.708 148.023 86.708 149.491Z" fill="#164353"/>
<path id="Vector_2" d="M86.708 149.49C86.708 150.163 86.6474 150.653 86.6474 150.653H67.5605C67.5605 150.286 67.5605 149.919 67.5605 149.49H86.708Z" fill="#225866"/>
<path id="Vector_3" d="M78.0435 143.801L75.3774 144.657L74.832 143.678L76.9528 143.066C77.3164 143.372 77.6799 143.617 78.0435 143.801Z" fill="#225866"/>
<path id="Vector_4" d="M79.803 144.536L78.0457 145.759L76.9551 145.331L78.5911 144.107C78.9547 144.23 79.3788 144.413 79.803 144.536Z" fill="#225866"/>
</g>
<g id="Group_3">
<path id="Vector_5" d="M13.8746 149.492C13.814 150.165 13.6323 150.655 13.6323 150.655H0.907693C0.725913 150.288 0.604723 149.92 0.54413 149.492C-0.728328 143.374 7.75473 135.848 7.75473 135.848L10.4208 139.458C10.4208 139.458 10.1179 145.209 12.3598 146.433C13.814 147.167 13.9958 148.513 13.8746 149.492Z" fill="#164353"/>
<path id="Vector_6" d="M0.605469 149.492H13.8754C13.8148 150.165 13.633 150.655 13.633 150.655H0.908435C0.847842 150.226 0.726655 149.859 0.605469 149.492Z" fill="#225866"/>
<path id="Vector_7" d="M11.8751 145.942C11.8751 145.942 6.54292 144.718 4.05859 146.309V145.452C4.05859 145.452 8.60309 143.249 11.8751 145.942Z" fill="#225866"/>
<path id="Vector_8" d="M10.7844 144.599C10.7844 144.599 7.39122 143.008 4.05859 144.599L4.42216 143.681C4.48275 143.681 8.42131 142.151 10.7844 144.599Z" fill="#225866"/>
</g>
<path id="Vector_9" d="M80.9519 94.9148C80.9519 100.054 76.4074 142.089 76.4074 142.089C71.8629 142.518 68.2273 141.6 68.2273 141.6C66.9549 120.307 66.8337 101.951 66.8337 101.951L45.0807 85.4921L45.0201 85.4309C45.0201 85.4309 44.9595 85.798 44.7777 86.4711C43.6871 91.3048 39.1426 111.496 37.2642 116.146C35.0828 121.408 11.5121 143.558 11.5121 143.558C7.14935 142.946 3.39258 139.764 3.39258 139.764C11.8756 125.569 23.4489 111.313 23.4489 111.313C24.3578 106.173 25.0244 94.7924 25.3879 86.2875C25.3879 86.1652 25.3879 86.0428 25.3879 85.9204C25.6303 80.1689 25.7515 75.8247 25.7515 75.8247L21.7523 67.5646L47.0803 58.2031L52.7761 65.5455C52.7761 65.5455 54.0485 66.7692 56.1087 68.7271C56.2299 68.7883 56.2905 68.9107 56.4116 68.9719C64.0464 76.3142 80.9519 92.6509 80.9519 94.9148Z" fill="#5553CB"/>
<g id="Group_4">
<path id="Vector_10" d="M25.4492 86.4066C25.4492 86.2843 25.4492 86.1619 25.4492 86.0395C30.7814 83.1026 29.8725 78.4524 29.8725 78.3913L30.1755 78.3301C30.2361 78.3913 31.2056 83.4085 25.4492 86.4066Z" fill="#60A0BF"/>
<path id="Vector_11" d="M44.78 82.3084C44.9618 83.3485 45.0829 84.4499 45.1435 85.6124L45.0829 85.5512C45.0829 85.5512 45.0224 85.9184 44.8406 86.5914C44.5982 78.576 41.3262 73.8647 41.3262 73.8035L41.6291 73.62C41.6897 73.6811 43.7499 76.6793 44.7194 81.8801C48.5973 78.4537 44.78 71.3561 44.78 71.2949L45.0829 71.1113C45.0829 71.2337 49.0821 78.6984 44.78 82.3084Z" fill="#60A0BF"/>
<path id="Vector_12" d="M56.4731 69.032C56.2913 69.0932 56.1095 69.1544 55.9278 69.1544C54.0494 69.1544 50.9591 66.5234 50.7773 66.401L51.0197 66.1562C52.0498 67.0129 54.8977 69.0932 56.2307 68.7873C56.2913 68.8484 56.3519 68.9708 56.4731 69.032Z" fill="#60A0BF"/>
</g>
<path id="Vector_13" d="M23.6289 23.6946C23.6289 23.6946 31.3243 22.4709 35.2022 24.9183C39.0802 27.427 44.1094 33.8515 44.1094 33.8515C44.1094 33.8515 38.1107 34.6469 37.4442 38.7464C37.4442 38.8076 33.0815 28.3447 23.6289 23.6946Z" fill="#5F78BA"/>
<path id="Vector_14" d="M12.0582 27.7946C8.78615 29.569 3.33277 36.2382 3.09039 40.3377C2.84802 44.3148 5.75649 48.0472 7.75607 51.1676C13.9366 60.9574 20.42 69.5847 23.2073 81.0264C23.2073 81.0876 37.3256 86.7779 53.8675 66.6477C53.8675 66.6477 44.5362 53.921 41.2641 43.0911C39.9311 38.6857 38.598 34.0356 36.0531 30.1196C33.2658 25.8366 28.4789 23.328 23.5709 23.7563C19.4506 24.0622 15.2696 26.0202 12.0582 27.7946Z" fill="#98C1FF"/>
<path id="Vector_15" d="M10.7246 23.6951C10.7246 23.6951 12.7848 27.3051 11.8153 29.2631C11.8153 29.2631 18.9653 31.7717 18.9653 27.7334C18.9653 27.7334 17.6322 24.7353 18.117 22.7773L10.7246 23.6951Z" fill="#FF9679"/>
<path id="Vector_16" d="M26.597 48.291C26.597 48.291 22.5979 49.4535 21.6284 50.8608C20.5983 52.2681 19.75 55.4498 19.75 55.4498H26.597L27.8695 53.0635L29.3843 49.8819L26.597 48.291Z" fill="#FF9679"/>
<g id="Group_5">
<path id="Vector_17" d="M19.9967 19.6531C19.9967 19.6531 22.784 18.4906 20.9662 9.98574C19.7543 4.35662 18.0577 3.5612 16.9064 3.50002C16.9064 3.50002 15.5734 1.41969 10.8471 2.39867C7.63567 3.07171 5.03016 5.09086 3.87889 8.76202C2.66703 12.6167 5.09076 20.8157 8.18101 21.6111L19.9967 19.6531Z" fill="#164353"/>
<path id="Vector_18" d="M20.664 13.9049C20.664 13.9049 22.4213 11.4575 23.0878 13.8438C23.8755 16.6583 21.4517 18.2491 20.7852 17.4537C20.1793 16.6583 20.664 13.9049 20.664 13.9049Z" fill="#FF9979"/>
<path id="Vector_19" d="M5.9378 16.5348C5.9378 16.5348 3.51407 14.7604 3.63526 17.269C3.81704 20.206 6.60432 20.9402 6.90729 19.9C7.27085 18.9211 5.9378 16.5348 5.9378 16.5348Z" fill="#FF9979"/>
<path id="Vector_20" d="M15.2106 25.5305C19.8763 24.7351 21.997 21.2475 20.4822 12.0084C19.6945 7.23587 16.8466 4.72724 11.575 5.58385C6.36397 6.44045 4.60676 9.7445 5.39447 14.517C7.09108 24.4292 10.3631 26.3259 15.2106 25.5305Z" fill="#FF9979"/>
<path id="Vector_21" d="M7.51172 17.5148C7.51172 18.0043 7.99647 18.4326 8.6024 18.4326C9.20833 18.4326 9.69308 18.0655 9.69308 17.576C9.69308 17.0865 9.20833 16.6582 8.6024 16.6582C7.99647 16.6582 7.51172 17.0253 7.51172 17.5148Z" fill="#DB614D"/>
<path id="Vector_22" d="M17.1492 16.2282C17.2703 16.7177 17.8157 16.9625 18.4216 16.8401C19.0276 16.7177 19.3911 16.2282 19.2699 15.7387C19.1487 15.2493 18.6034 15.0045 17.9975 15.1269C17.4521 15.2493 17.0886 15.7388 17.1492 16.2282Z" fill="#DB614D"/>
<g id="Group_6">
<path id="Vector_23" d="M8.84854 12.3754C8.78794 12.3754 8.72734 12.3754 8.72734 12.3142C8.60616 12.253 8.60616 12.0694 8.66676 12.0082C9.33328 11.0293 10.6057 10.8457 10.6663 10.8457C10.7875 10.8457 10.9087 10.9069 10.9087 11.0293C10.9087 11.1516 10.8481 11.274 10.7269 11.274C10.7269 11.274 9.57565 11.4576 9.03031 12.253C8.96972 12.3754 8.90913 12.3754 8.84854 12.3754Z" fill="#1A4850"/>
</g>
<g id="Group_7">
<path id="Vector_24" d="M17.6346 10.9045C17.574 10.9045 17.5134 10.9045 17.5134 10.8434C16.7863 10.2927 15.635 10.4762 15.635 10.4762C15.5138 10.4762 15.3926 10.4151 15.332 10.2927C15.332 10.1703 15.3926 10.0479 15.5138 9.98675C15.5744 9.98675 16.8469 9.74201 17.8164 10.4151C17.9375 10.4762 17.9375 10.6598 17.877 10.721C17.7558 10.9045 17.6952 10.9045 17.6346 10.9045Z" fill="#1A4850"/>
</g>
<path id="Vector_25" d="M9.69755 14.8207C9.81873 15.4326 10.1217 15.8609 10.4247 15.7997C10.7276 15.7385 10.9094 15.249 10.8488 14.6371C10.7276 14.0253 10.4247 13.597 10.1217 13.6582C9.75814 13.7193 9.57636 14.27 9.69755 14.8207Z" fill="#1A4850"/>
<path id="Vector_26" d="M15.9378 13.7816C16.059 14.3935 16.3619 14.8218 16.6649 14.7606C16.9679 14.6994 17.1497 14.2099 17.0891 13.5981C16.9679 12.9862 16.6649 12.5579 16.3619 12.6191C15.9984 12.6803 15.8166 13.231 15.9378 13.7816Z" fill="#1A4850"/>
<path id="Vector_27" d="M17.6923 19.1035C17.6923 19.1035 13.6326 20.2049 11.3906 19.7766C11.3906 19.7766 12.966 21.7345 15.1474 21.1838C17.3894 20.572 17.6923 19.1035 17.6923 19.1035Z" fill="#1A4850"/>
<path id="Vector_28" d="M17.876 7.72661C17.876 7.72661 12.6044 11.5813 5.9997 11.8873L6.18148 17.8223C6.18148 17.8223 0.000977039 6.31933 12.2408 4.30019C24.42 2.28105 20.9056 15.0689 20.9056 15.0689C20.9056 15.0689 20.4815 9.56219 17.876 7.72661Z" fill="#0E3944"/>
<g id="Group_8">
<path id="Vector_29" d="M13.5728 17.5147L13.5122 17.0252C13.5122 17.0252 14.2393 16.964 14.4211 16.5357C14.4817 16.3521 14.1787 15.8015 13.9363 15.2508C13.5728 14.5165 13.088 13.6599 12.9062 12.681L13.391 12.5586C13.5728 13.4764 13.9969 14.333 14.3605 15.006C14.7241 15.7403 15.027 16.2909 14.8452 16.7192C14.6029 17.4535 13.5728 17.5147 13.5728 17.5147Z" fill="#DB614D"/>
</g>
<path id="Vector_30" d="M20.7225 7.72409C11.8759 3.80818 3.51405 11.8847 3.51405 11.8847C3.51405 11.8847 2.54456 5.33783 4.24117 3.80818C4.66532 3.37988 5.15007 3.07395 5.63481 2.76802C9.57337 0.259388 14.7844 0.32057 17.1475 1.17718C17.6323 1.36073 17.9958 1.54429 18.2382 1.78904C19.6318 3.2575 20.7225 7.72409 20.7225 7.72409Z" fill="#CE364C"/>
<path id="Vector_31" d="M19.6309 6.25562C19.6309 6.25562 12.1779 4.78715 5.27029 9.43729C5.27029 9.43729 4.84614 5.21546 5.63385 2.76802C9.57241 0.259388 14.7834 0.32057 17.1466 1.17718C18.5402 2.76801 19.6309 6.25562 19.6309 6.25562Z" fill="#98C1FF"/>
<path id="Vector_32" d="M4.24023 11.1512C4.24023 11.1512 5.39151 6.07271 7.02753 4.66543C9.69363 2.27918 17.086 1.48376 21.0246 2.89104C24.9631 4.29832 21.0246 8.64253 21.0246 8.64253C21.0246 8.64253 14.7835 4.11476 4.24023 11.1512Z" fill="#A02E44"/>
</g>
<path id="Vector_33" d="M15.7533 44.7422C15.7533 44.7422 18.783 49.5147 23.994 52.3293C23.994 52.3293 30.4775 46.639 38.9 47.1284C38.9 47.1284 31.9317 59.794 25.933 61.2012C22.7821 61.9355 11.3906 54.3484 11.3906 54.3484C11.3906 54.3484 13.6326 46.333 15.7533 44.7422Z" fill="#FF9979"/>
<path id="Vector_34" d="M4.54507 36.1166C7.33235 31.5277 13.7552 38.3193 15.9366 43.153C18.1179 47.9867 19.6934 49.0269 19.6934 49.0269C19.6934 49.0269 13.2705 51.7191 13.3311 56.614C13.3311 56.614 -1.57485 46.1512 4.54507 36.1166Z" fill="#5F78BA"/>
<path id="Vector_35" d="M23.9316 50.2469C23.9316 50.2469 27.8702 46.3922 40.716 41.3137L39.0799 36.0517C40.5342 34.0937 43.2609 34.0938 43.2609 34.0938C43.2609 34.0938 49.8655 43.5164 48.7143 46.2698C47.9871 48.0442 34.2325 49.8798 23.9316 50.2469Z" fill="#FF9679"/>
<path id="Vector_36" d="M38.0527 42.6023C38.0527 42.6023 38.1739 42.0516 38.6587 41.3785C39.1434 40.7055 39.0222 39.4818 39.204 39.1147C39.3858 38.7475 40.4159 37.1567 41.0824 36.8508C41.7489 36.5448 42.6578 36.0554 42.8396 36.912C43.0214 37.7686 41.6277 37.5238 41.0218 38.7475C41.0218 38.7475 42.4155 38.3192 43.4455 38.564C44.5362 38.8087 44.8392 39.8489 43.5061 39.7877C42.4154 39.7877 41.0824 40.5219 41.0824 40.5219C41.0824 40.5219 42.4761 40.7055 42.2337 41.3785C41.8095 42.2351 40.1129 41.6845 38.0527 42.6023Z" fill="#FF9979"/>
</g>
</svg>
