<svg width="89" height="156" viewBox="0 0 89 156" fill="none" xmlns="http://www.w3.org/2000/svg">
<g id="Group">
<path id="Vector" d="M37.9195 65.2823C39.0707 68.2804 43.797 73.3588 43.797 73.3588C43.797 73.3588 55.3097 66.3836 60.5813 69.3206C65.9135 72.2575 70.0945 74.0319 73.5483 72.747C77.0021 71.4621 62.2173 44.3566 62.2173 44.3566L43.0699 36.9531C43.0699 36.9531 42.6457 41.848 40.4644 42.7046C38.283 43.5612 35.9199 51.6378 36.1017 53.1674C36.2834 54.7583 37.9195 65.2823 37.9195 65.2823Z" fill="#3E6575"/>
<path id="Vector_2" d="M59.4922 73.4793C59.4922 73.4793 54.5841 83.2691 44.3439 95.751C44.3439 95.751 43.3138 110.619 16.3498 134.054L13.502 131.79C13.502 131.79 29.5592 106.397 32.7706 98.6268C35.982 90.8561 31.0134 83.6974 45.7375 64.0566L59.4922 73.4793Z" fill="#FF9679"/>
<path id="Vector_3" d="M43.7402 56.2266C39.4987 64.4255 38.0445 74.9495 38.0445 74.9495L36.1055 79.9056C36.1055 79.9056 42.9525 83.6379 50.8902 84.984L54.0411 76.4792L43.7402 56.2266Z" fill="#662C33"/>
<path id="Vector_4" d="M65.9169 72.7461C65.9169 72.7461 68.0377 83.5148 67.6741 99.668C67.6741 99.668 75.9754 112.028 69.1283 147.21H65.5533C65.5533 147.21 62.6449 117.228 60.4029 109.152C58.161 101.014 49.8597 98.5666 49.4355 73.8474L65.9169 72.7461Z" fill="#FF9979"/>
<g id="Group_2">
<path id="Vector_5" d="M68.037 84.2478C68.037 84.2478 61.3111 85.4715 49.3742 84.9209L49.1925 83.5748L49.1319 83.2077L47.92 74.4581C47.92 74.4581 46.7687 73.0508 45.6175 70.7257C45.4963 70.481 45.3145 70.175 45.1933 69.8691C43.6179 66.4427 42.1637 61.4254 43.7391 56.2246L46.2234 56.347H46.587L55.0094 56.7141H55.373L58.1603 56.8365H58.5844L60.4022 56.8977C60.4022 56.8977 69.4912 65.1578 67.8552 80.4543L67.9764 82.5958V82.9629L68.037 84.2478Z" fill="#8B383E"/>
<g id="Group_3">
<path id="Vector_6" d="M46.5876 56.3483C46.3453 57.0213 44.7698 62.2221 45.5575 70.727C45.4364 70.4822 45.2546 70.1763 45.1334 69.8704C44.5275 62.0997 45.9211 57.2661 46.2241 56.2871C46.2847 56.1647 46.2847 56.1035 46.2847 56.1035L46.5876 56.2259C46.6482 56.2871 46.6482 56.2871 46.5876 56.3483Z" fill="#662C33"/>
<path id="Vector_7" d="M67.9792 83.0235C65.6161 83.6353 61.5564 83.8189 57.6784 83.8189C54.2246 83.8189 50.9526 83.6965 49.1954 83.5741L49.1348 83.207C52.1644 83.3294 60.1021 83.6965 65.2526 83.0846L64.9496 77.6391C65.0102 71.2757 63.1318 65.8302 61.2534 62.0366C56.5877 61.18 55.3153 57.6924 55.0123 56.7135C54.9517 56.5299 54.9517 56.4687 54.9517 56.4687L55.2547 56.4075C55.2547 56.4075 55.2547 56.5299 55.3153 56.7135C55.6182 57.7536 56.8907 60.7517 61.011 61.6083C59.7386 59.1609 58.5873 57.4477 58.1026 56.8358C57.9814 56.6523 57.8602 56.5299 57.8602 56.5299L58.1026 56.2852C58.1026 56.2852 58.2843 56.4687 58.5267 56.8358C60.1021 58.9773 65.3737 67.0539 65.192 77.5779L65.4949 83.0235C66.4038 82.9011 67.1915 82.7787 67.8581 82.5952L67.9792 83.0235Z" fill="#662C33"/>
</g>
</g>
<path id="Vector_8" d="M50.7661 19.3924C48.0999 17.9239 28.7707 25.5722 28.7707 25.5722C28.7707 25.5722 25.9228 30.7118 27.68 32.7309C29.4372 34.7501 35.7995 33.8323 37.6779 32.7309C39.6169 31.6296 44.7067 30.773 44.7067 30.773L50.7661 19.3924Z" fill="#5553CB"/>
<path id="Vector_9" d="M67.7946 3.11736C67.7946 3.11736 71.7938 4.64702 73.248 9.29716C74.7022 13.9473 70.3395 25.695 71.8543 31.0794C73.3692 36.4638 73.1268 46.6818 68.4005 48.8234C63.6743 50.9649 54.0399 47.1102 51.9798 41.2363C49.9196 35.3624 50.8285 13.0295 54.7671 5.44244C58.8268 -2.08345 66.8857 1.71008 67.7946 3.11736Z" fill="#F24052"/>
<path id="Vector_10" d="M63.2504 23.1271C64.2805 24.2896 67.0072 22.2093 67.0072 22.2093C67.0072 22.2093 66.9466 32.305 64.0381 33.1004C61.1297 33.8958 53.6767 25.1462 53.9797 22.76C54.2826 20.4349 60.8873 20.6184 63.2504 23.1271Z" fill="#5553CB"/>
<path id="Vector_11" d="M52.0404 20.6172C52.0404 20.6172 55.0095 23.1258 60.0993 24.3495C65.2498 25.5733 68.037 23.1258 70.6426 26.4299C74.5811 31.4471 68.1582 40.6862 64.8256 45.4587C63.5531 47.2331 60.887 52.1892 60.4023 56.9617C60.4023 56.9617 51.4951 59.5927 43.7998 56.1663L43.2544 45.1528C43.1938 45.214 38.3464 30.3458 52.0404 20.6172Z" fill="#0E3944"/>
<path id="Vector_12" d="M61.252 31.3239C61.252 31.3239 65.3117 21.5341 66.5236 20.9222C67.6748 20.3104 70.7045 21.7789 71.3104 23.1249C71.9164 24.471 71.3104 27.408 71.3104 27.408C71.3104 27.408 68.0384 23.7368 61.252 31.3239Z" fill="#5553CB"/>
<path id="Vector_13" d="M80.7025 72.7444C78.8241 76.5991 74.3402 77.6393 74.3402 77.6393C74.3402 77.6393 73.9766 77.0886 73.4313 76.1708C73.3707 76.0484 73.3101 75.9872 73.2495 75.8649C69.6745 69.991 58.7677 51.3293 58.9495 41.5395C59.1919 29.9141 66.7054 23.5508 66.7054 23.5508C70.5228 24.4686 71.7347 25.5087 71.7347 25.5087C71.7347 25.5087 73.0071 32.1168 71.8559 40.071C70.7046 48.0252 68.5232 50.1055 69.6139 50.7174C70.7046 51.3293 69.6139 52.4918 69.6139 52.4918C69.6139 52.4918 75.9156 61.425 77.1275 64.1783C77.9152 66.0139 79.1876 69.0732 80.036 70.97C80.0965 71.0924 80.1571 71.2147 80.2177 71.3371C80.4601 72.1937 80.7025 72.7444 80.7025 72.7444Z" fill="#60A0BF"/>
<path id="Vector_14" d="M69.7364 25.5098C69.7364 25.5098 65.1919 28.875 67.858 34.0758L80.4008 47.2308C73.4931 54.6343 72.8266 57.6936 67.858 61.1201L69.7364 64.057C69.7364 64.057 87.1872 50.5349 87.2478 47.2308C87.1872 45.8235 76.5228 28.7526 69.7364 25.5098Z" fill="#FF9979"/>
<path id="Vector_15" d="M67.5534 61.1233C67.5534 61.1233 65.1297 61.368 63.6754 61.7963C62.1606 62.1635 60.161 62.5306 60.1004 62.8977C60.0398 63.2036 63.433 62.8977 63.433 62.8977C63.433 62.8977 60.6458 64.0602 60.5852 64.4885C60.5246 64.9168 64.0996 64.1826 64.0996 64.1826C64.0996 64.1826 61.8576 65.5899 61.9788 65.957C62.1 66.3241 64.8873 65.4063 64.8873 65.4063C64.8873 65.4063 64.3419 66.7524 63.8572 67.3643C63.8572 67.3643 64.4025 67.6702 65.4932 66.4465C66.5839 65.2228 68.3411 65.5899 69.7347 64.5497C71.0678 63.326 68.8258 60.9397 67.5534 61.1233Z" fill="#FF9979"/>
<path id="Vector_16" d="M54.709 22.2703C54.709 22.2703 51.2552 24.5342 49.0738 29.9797C46.8925 35.4253 40.0454 45.6434 38.4094 48.2744C36.7734 50.9054 37.9247 65.2841 37.9247 65.2841C37.9247 65.2841 35.9251 56.5957 35.0162 53.1692C34.1073 49.7428 37.9247 41.3603 38.47 40.932C39.0153 40.5037 41.9844 41.2991 41.3785 37.8727C40.7726 34.4463 48.6497 19.7616 50.7098 19.3945C50.7704 19.3945 54.1031 20.0064 54.709 22.2703Z" fill="#60A0BF"/>
<path id="Vector_17" d="M44.0427 23.003C43.9821 23.1254 43.9215 23.2478 43.8609 23.3701C43.0732 24.5327 41.619 25.3893 41.619 25.3893C41.619 25.3893 39.0135 29.1216 38.9529 29.5499C38.9529 29.9171 34.4084 33.2211 32.3482 33.1599C32.0452 33.1599 31.8635 33.0987 31.6817 32.9152C30.4698 31.7526 35.7414 22.2076 36.8927 20.1273C36.9533 20.0049 37.0139 19.8825 37.0745 19.8214C37.0745 19.7602 37.1351 19.7602 37.1351 19.7602C37.1351 19.7602 36.2262 16.2726 40.1041 16.9456C43.3156 17.4963 43.9821 20.0661 44.2851 21.7793C44.3457 22.1464 44.2851 22.5747 44.0427 23.003Z" fill="#60A0BF"/>
<path id="Vector_18" d="M30.5302 26.6102C33.1963 23.0614 42.5883 16.2086 47.4963 14.1895L48.7082 16.5145C48.7082 16.5145 39.1951 24.9582 36.9531 28.5682C34.7112 32.1782 31.9239 33.7078 29.3184 32.4841C26.6523 31.3215 29.9849 27.3445 30.5302 26.6102Z" fill="#FF9979"/>
<path id="Vector_19" d="M43.1347 22.2699L42.6499 22.8817L42.4076 23.1877L41.5593 24.1666C41.5593 24.1666 39.4385 26.7365 39.5597 27.7766C39.6203 28.5109 35.5605 31.8149 32.4097 33.2222C31.1372 33.7729 29.9859 34.0176 29.3194 33.6505C27.0169 32.3044 27.5622 28.3273 28.8347 25.6351C29.9859 23.2489 34.9546 20.2507 36.227 19.4553C36.4088 19.3329 36.4694 19.2718 36.53 19.2718L37.0148 17.375C37.0148 17.375 38.772 16.3348 40.105 16.9467C40.105 16.9467 37.0754 17.0691 37.5601 18.2928C38.1054 19.3941 42.2864 22.2087 43.1347 22.2699Z" fill="#5553CB"/>
<g id="Group_4">
<path id="Vector_20" d="M54.1013 12.4777C51.0717 13.7626 51.4958 16.516 48.7085 16.516C46.9513 16.516 46.7695 14.4969 46.7695 14.4969C47.5572 12.7836 48.042 9.9079 48.1632 8.50062C48.2844 7.09334 48.7085 7.64402 48.7085 7.64402C48.7085 7.52164 48.7085 7.39927 48.7085 7.2769C48.6479 6.35911 48.5267 5.68606 49.1327 6.05318C49.7992 6.48148 50.0416 9.11248 50.0416 9.11248C50.5869 5.25776 49.7386 4.70709 50.4051 5.01302C51.314 5.50251 51.314 8.86774 51.314 8.99011C52.0411 6.72623 51.8594 5.5025 52.3441 5.99199C52.8289 6.48148 52.1017 10.5809 51.7988 12.1106C51.7382 12.4777 51.6776 12.6613 51.6776 12.6613C54.1013 11.4987 54.1013 12.4777 54.1013 12.4777Z" fill="#FF9979"/>
<path id="Vector_21" d="M51.7984 12.1719C51.7379 12.539 51.6773 12.7226 51.6773 12.7226C51.6773 12.7226 50.5866 12.6002 49.7383 13.8239C49.7383 13.8239 49.9807 12.1719 51.7984 12.1719Z" fill="#FF9679"/>
<path id="Vector_22" d="M48.8927 10.3978C48.8927 10.0919 49.0745 8.19513 48.7109 7.64446C48.7109 7.52209 48.7109 7.39972 48.7109 7.27734C49.3775 7.4609 48.9533 10.0307 48.8927 10.3978Z" fill="#FF9679"/>
</g>
<path id="Vector_23" d="M50.7656 26.6137C50.7656 26.6137 52.8258 20.9846 53.4923 19.6997C54.1588 18.4148 57.5521 18.6595 60.1576 19.149C62.7631 19.6385 63.2478 23.1261 63.2478 23.1261C63.2478 23.1261 55.3707 19.3938 50.7656 26.6137Z" fill="#5553CB"/>
<path id="Vector_24" d="M64.0373 15.5357C64.0373 15.5357 61.553 20.1247 61.6135 25.2643C61.6135 25.2643 57.6144 28.0177 56.1602 24.5913C56.1602 24.5913 57.675 20.0635 56.9479 14.0061C56.4631 9.84543 64.0373 15.5357 64.0373 15.5357Z" fill="#FF9679"/>
<g id="Group_5">
<path id="Vector_25" d="M56.1588 9.17267C56.1588 9.17267 55.4317 6.54167 54.0986 8.37726C52.5838 10.5188 54.0986 12.5991 54.9469 12.1096C55.7346 11.6201 56.1588 9.17267 56.1588 9.17267Z" fill="#FF9979"/>
<path id="Vector_26" d="M67.7964 15.9031C67.7964 15.9031 70.4019 15.1688 69.493 17.2492C68.4629 19.6966 65.918 19.3907 65.918 18.4729C65.918 17.5551 67.7964 15.9031 67.7964 15.9031Z" fill="#FF9979"/>
<path id="Vector_27" d="M57.251 20.6764C53.5549 18.5961 52.8277 14.9249 56.8875 7.5826C59.0082 3.78906 62.2197 2.56534 66.34 4.89041C70.521 7.27667 70.9451 10.5807 68.8243 14.3743C64.4616 22.2673 61.0684 22.8179 57.251 20.6764Z" fill="#FF9979"/>
<path id="Vector_28" d="M66.1571 16.2699C66.0359 16.6982 65.4905 16.8817 64.9452 16.6982C64.4604 16.5146 64.1575 16.0251 64.2787 15.5968C64.3999 15.1685 64.9452 14.985 65.4905 15.1685C66.0359 15.4133 66.3388 15.8416 66.1571 16.2699Z" fill="#DB614D"/>
<path id="Vector_29" d="M58.4018 12.1676C58.1595 12.5348 57.6141 12.596 57.1294 12.29C56.6446 11.9841 56.5235 11.4334 56.7052 11.0663C56.9476 10.6992 57.4929 10.638 57.9777 10.9439C58.4624 11.2499 58.6442 11.8005 58.4018 12.1676Z" fill="#DB614D"/>
<g id="Group_6">
<path id="Vector_30" d="M66.6991 11.56C66.5779 11.56 66.5173 11.4988 66.5173 11.3764C66.3355 10.5198 65.366 10.0304 65.366 10.0304C65.2448 9.96917 65.2448 9.84679 65.3054 9.72442C65.366 9.60205 65.4872 9.60205 65.6084 9.66324C65.669 9.66324 66.6991 10.2751 66.9414 11.2541C66.9414 11.3764 66.8809 11.4988 66.6991 11.56Z" fill="#1A4850"/>
</g>
<g id="Group_7">
<path id="Vector_31" d="M61.6113 7.88825C61.5507 7.88825 61.5507 7.88825 61.4901 7.82707C61.4901 7.82707 60.5812 7.27639 59.7935 7.52114C59.6723 7.58232 59.5511 7.52113 59.5511 7.39876C59.4905 7.27639 59.5511 7.15402 59.6723 7.15402C60.6418 6.84809 61.6719 7.45995 61.7325 7.45995C61.8537 7.52114 61.8537 7.64351 61.7931 7.76588C61.7325 7.82707 61.6719 7.88825 61.6113 7.88825Z" fill="#1A4850"/>
</g>
<path id="Vector_32" d="M65.1856 13.3314C64.9434 13.8205 64.5195 14.0651 64.2773 13.8816C64.0352 13.7594 64.0352 13.2702 64.2773 12.7811C64.5195 12.292 64.9434 12.0474 65.1856 12.2308C65.4278 12.3531 65.4278 12.8422 65.1856 13.3314Z" fill="#1A4850"/>
<path id="Vector_33" d="M59.9766 10.5189C59.7344 11.008 59.3106 11.2526 59.0684 11.0691C58.8262 10.9469 58.8262 10.4577 59.0684 9.96859C59.3106 9.47946 59.7344 9.2349 59.9766 9.41832C60.2188 9.5406 60.2188 10.0297 59.9766 10.5189Z" fill="#1A4850"/>
<path id="Vector_34" d="M58.1567 15.293C58.1567 15.293 60.2775 16.945 61.8529 17.0062C61.8529 17.0062 60.2169 18.3523 59.0656 17.4957C57.8537 16.5779 58.1567 15.293 58.1567 15.293Z" fill="#1A4850"/>
<path id="Vector_35" d="M64.0352 12.3552C64.0352 12.3552 65.0046 11.3762 65.4288 11.7433C65.853 12.0492 65.6106 13.273 65.6106 13.273H66.4589L65.7318 12.967C65.7318 12.967 65.9741 11.7433 65.55 11.4986C64.9441 11.1926 64.0352 12.3552 64.0352 12.3552Z" fill="#1A4850"/>
<path id="Vector_36" d="M60.3395 10.457C60.3395 10.457 60.6424 9.11087 60.1577 8.92731C59.6729 8.74375 58.764 9.53917 58.764 9.53917L58.2793 8.80494L58.8852 9.29443C58.8852 9.29443 59.7941 8.43782 60.2183 8.74375C60.9454 9.04968 60.3395 10.457 60.3395 10.457Z" fill="#1A4850"/>
<path id="Vector_37" d="M67.3654 6.48046C67.3654 6.48046 66.0324 4.58369 64.2146 6.11334C62.3968 7.58181 58.2159 9.96806 56.2163 9.17264C54.1561 8.37722 60.7002 -0.372383 66.3353 2.19743C71.9705 4.76725 71.4858 13.1497 69.1226 15.7807C66.7595 18.4117 67.9108 15.9643 67.9108 15.9643C67.9108 15.9643 68.0926 12.1708 68.8803 9.72332C69.5468 7.1535 67.3654 6.48046 67.3654 6.48046Z" fill="#F24052"/>
<g id="Group_8">
<path id="Vector_38" d="M61.0666 14.4321C60.9455 14.4321 60.8849 14.4321 60.7637 14.371L60.8849 13.9427C61.2484 14.065 61.4302 13.8815 61.5514 13.6979C61.6726 13.4532 61.6726 13.2084 61.5514 13.086C61.4908 13.0249 61.3696 13.0249 61.2484 13.086L61.006 12.6577C61.4908 12.413 61.7332 12.5966 61.8544 12.7189C62.0967 12.9637 62.1573 13.5144 61.9149 13.8815C61.7332 14.2486 61.4302 14.4321 61.0666 14.4321Z" fill="#DB614D"/>
</g>
</g>
<g id="Group_9">
<path id="Vector_39" d="M88.2772 46.6818C88.0349 49.9858 79.976 60.6934 78.6429 61.0605C78.2794 61.1829 77.9158 61.3664 77.6128 61.6112C77.4917 61.7336 77.3099 61.7947 77.1887 61.9171C76.401 62.529 75.8556 63.2632 75.8556 63.2632C73.4925 63.0797 66.8878 60.0204 69.0086 59.3473C69.1298 59.2861 69.251 59.2249 69.4328 59.1026C69.4934 59.0414 69.6145 58.9802 69.7357 58.8578C72.22 56.7163 77.1281 48.1502 77.1281 47.4772C77.1281 46.743 77.9764 46.6206 77.9764 46.6206C77.9764 46.6206 73.3713 39.8289 70.7052 38.9723C68.0391 38.1769 66.7061 34.8729 66.7061 34.8729C64.1006 23.6146 71.7353 25.389 71.7353 25.389C77.3705 28.9378 88.5196 43.3777 88.2772 46.6818Z" fill="#5553CB"/>
<g id="Group_10">
<path id="Vector_40" d="M77.6137 61.6108C77.4925 61.7332 77.3107 61.7944 77.1895 61.9167C73.5539 61.672 70.5243 59.8976 69.4336 59.1022C69.4942 59.041 69.6154 58.9798 69.7366 58.8574C70.8878 59.714 73.9781 61.4884 77.6137 61.6108Z" fill="#3E6575"/>
</g>
</g>
<g id="Group_11">
<path id="Vector_41" d="M44.0431 23.0025C43.9825 23.1249 43.9219 23.2473 43.8613 23.3696C43.316 23.3696 42.8312 23.3085 42.4071 23.1861C40.0439 22.6966 38.1655 21.3505 36.9537 20.188C36.6507 19.9432 36.4083 19.6373 36.2266 19.3925C36.4083 19.2702 36.4689 19.209 36.5295 19.209C36.7113 19.3925 36.8931 19.6373 37.1355 19.8208C38.3473 20.9834 40.2257 22.3907 42.6494 22.819C43.0736 22.9413 43.5583 23.0025 44.0431 23.0025Z" fill="#3E6575"/>
</g>
<g id="Group_12">
<path id="Vector_42" d="M80.1576 71.4023C79.0669 73.299 77.0068 75.5629 73.4318 76.1748C73.3712 76.0524 73.3106 75.9912 73.25 75.8689C76.9462 75.3182 78.9458 72.8707 80.0364 71.0352C80.0364 71.1575 80.097 71.2799 80.1576 71.4023Z" fill="#3E6575"/>
</g>
<g id="Group_13">
<path id="Vector_43" d="M18.8968 133.198C18.8968 133.198 18.0485 134.055 17.2001 135.584C16.3518 137.114 17.2607 138.521 13.0798 142.07C13.0798 142.07 4.53617 137.053 0.658203 130.506C0.658203 130.506 0.718795 128.67 2.59718 128.242C3.62727 127.997 6.35396 129.343 9.02007 129.833C9.38363 129.894 9.74718 129.955 10.1713 130.016C10.6561 130.078 11.0802 130.078 11.5044 130.016C11.9285 129.955 12.2921 129.894 12.6557 129.71C13.5646 129.343 14.2917 128.609 14.6552 127.324C14.6552 127.324 16.8972 128.609 15.3824 130.812C15.3824 130.812 18.0485 129.649 18.8968 133.198Z" fill="#98C1FF"/>
<path id="Vector_44" d="M13.0798 142.07C13.0798 142.07 4.53617 137.052 0.658203 130.505C0.658203 130.505 2.11244 130.199 3.26371 132.341C4.47557 134.544 13.7463 139.439 13.0798 142.07Z" fill="#5F78BA"/>
<path id="Vector_45" d="M13.0793 131.914C12.4128 133.015 12.4128 130.996 11.5039 130.017C11.9281 129.956 12.2916 129.894 12.6552 129.711C13.0793 130.139 13.6247 130.996 13.0793 131.914Z" fill="#5F78BA"/>
<path id="Vector_46" d="M10.4112 131.975C9.68411 132.648 9.44173 130.874 9.01758 129.895C9.38114 129.956 9.7447 130.017 10.1689 130.078C10.5324 130.568 10.9566 131.424 10.4112 131.975Z" fill="#5F78BA"/>
</g>
<g id="Group_14">
<path id="Vector_47" d="M71.4317 155.595H59.3736C59.3736 155.595 58.8889 153.882 59.3736 152.047C59.616 151.251 60.8279 150.456 61.9792 149.416C62.2821 149.11 62.5851 148.804 62.8881 148.498C63.1304 148.253 63.3122 147.947 63.494 147.58C63.7364 147.213 63.9181 146.785 63.9787 146.295C64.1605 145.377 64.0999 144.276 63.5546 142.991C63.5546 142.991 67.6749 142.134 69.1292 144.398C69.1292 144.398 69.2503 143.358 70.5834 144.031C70.5834 144.031 70.4016 146.111 70.644 147.886C70.947 149.66 72.583 150.15 71.4317 155.595Z" fill="#98C1FF"/>
<path id="Vector_48" d="M68.283 148.255C68.1618 148.377 68.0406 148.438 67.8588 148.438C67.7376 148.438 67.6164 148.377 67.4952 148.316C66.8893 147.826 65.4957 147.031 63.4961 147.582C63.7385 147.214 63.9202 146.786 63.9808 146.297C64.7686 145.991 66.2834 145.807 68.1618 147.459C68.4647 147.643 68.5253 148.01 68.283 148.255Z" fill="#5F78BA"/>
<path id="Vector_49" d="M67.3087 150.274L67.2481 150.397C67.0663 150.641 66.7634 150.703 66.521 150.58C65.6727 150.091 63.8549 149.173 62.0371 149.418C62.3401 149.112 62.643 148.806 62.946 148.5C63.8549 148.316 65.5515 148.194 67.1875 149.54C67.3693 149.724 67.4299 150.03 67.3087 150.274Z" fill="#5F78BA"/>
</g>
</g>
</svg>
