<svg width="126" height="194" viewBox="0 0 126 194" fill="none" xmlns="http://www.w3.org/2000/svg">
<g id="Group">
<g id="Group_2">
<path id="Vector" d="M2.83146 8.62803C3.55858 8.62803 5.67934 9.48464 5.67934 9.48464C7.25476 10.4636 8.10306 11.0143 9.13315 11.0755C10.1632 11.1978 10.5874 12.9722 10.5874 12.9722C10.5874 12.9722 14.6471 13.89 14.8895 11.259C14.8895 11.259 12.587 8.01617 12.4658 7.58787C12.1628 6.73126 12.7082 5.38517 11.7993 3.9167C10.8904 2.44824 10.4662 0.123168 10.4662 0.123168C10.4662 0.123168 9.5573 -0.182763 9.43612 0.735028C9.31493 1.65282 9.98146 2.87654 9.86028 3.30484C9.79968 3.36603 9.79967 3.42722 9.73908 3.54959C9.5573 3.79433 9.31493 3.97789 9.07256 3.97789H9.01196C7.98188 3.97789 6.22468 2.50942 5.49756 1.83638C4.46748 0.8574 3.01324 -0.427507 2.64968 0.429098C2.28612 1.2857 3.43739 1.22452 5.31578 3.85552L5.134 4.10026C5.25519 4.28382 3.3162 3.30484 1.74078 2.08112C0.650102 1.22452 0.407732 2.26468 0.650104 2.69298C0.831884 3.12129 2.04375 3.85552 2.83146 4.46738C3.3768 4.89568 3.86155 5.32398 4.2251 5.56873L4.10392 5.99703C1.43781 5.38517 1.01366 4.40619 0.468323 4.95687C-0.077016 5.50754 1.559 6.67008 2.40731 6.85364C2.77087 6.91482 3.3768 7.28194 3.98273 7.64906C1.86197 7.58787 1.31663 6.91482 0.95307 7.4655C0.528918 8.01617 2.10434 8.62803 2.83146 8.62803Z" fill="#FF9979"/>
<path id="Vector_2" d="M9.61607 6.67127C8.94955 5.44755 9.67666 3.79553 9.73726 3.55078C9.55548 3.79553 9.31311 3.97908 9.07074 3.97908C8.4648 5.75348 9.61607 6.67127 9.61607 6.67127Z" fill="#FF9679"/>
</g>
<g id="Group_3">
<path id="Vector_3" d="M122.687 8.62803C121.96 8.62803 119.839 9.48464 119.839 9.48464C118.264 10.4636 117.415 11.0143 116.385 11.0755C115.355 11.1978 114.931 12.9722 114.931 12.9722C114.931 12.9722 110.871 13.89 110.629 11.259C110.629 11.259 112.931 8.01617 113.053 7.58787C113.356 6.73126 112.81 5.38517 113.719 3.9167C114.628 2.44824 115.052 0.123168 115.052 0.123168C115.052 0.123168 115.961 -0.182763 116.082 0.735028C116.203 1.65282 115.537 2.87654 115.658 3.30484C115.719 3.36603 115.719 3.42722 115.779 3.54959C115.961 3.79433 116.203 3.97789 116.446 3.97789H116.506C117.537 3.97789 119.294 2.50942 120.021 1.83638C121.051 0.8574 122.505 -0.427507 122.869 0.429098C123.232 1.2857 122.081 1.22452 120.203 3.85552L120.384 4.10026C120.263 4.28382 122.202 3.30484 123.778 2.08112C124.868 1.22452 125.111 2.26468 124.868 2.69298C124.687 3.12129 123.475 3.85552 122.687 4.46738C122.142 4.89568 121.657 5.32398 121.293 5.56873L121.415 5.99703C124.081 5.38517 124.505 4.40619 125.05 4.95687C125.595 5.50754 123.959 6.67008 123.111 6.85364C122.748 6.91482 122.142 7.28194 121.536 7.64906C123.656 7.58787 124.202 6.91482 124.565 7.4655C124.99 8.01617 123.414 8.62803 122.687 8.62803Z" fill="#FF9979"/>
<path id="Vector_4" d="M115.899 6.67127C116.565 5.44755 115.838 3.79553 115.777 3.55078C115.959 3.79553 116.201 3.97908 116.444 3.97908C117.05 5.75348 115.899 6.67127 115.899 6.67127Z" fill="#FF9679"/>
</g>
<path id="Vector_5" d="M86.8767 133.388L79.0602 84.4395L63.3666 86.2138L47.6729 84.4395L39.8564 133.388L36.0996 180.869C36.0996 180.869 37.3115 184.785 45.128 182.092C45.128 182.092 50.945 138.038 51.8538 137.121C52.7627 136.142 61.9729 107.384 61.9729 107.384H64.8814C64.8814 107.384 74.0916 136.142 75.0005 137.121C75.9094 138.1 81.7263 182.092 81.7263 182.092C89.5428 184.785 90.7547 180.869 90.7547 180.869L86.8767 133.388Z" fill="#0E3944"/>
<path id="Vector_6" d="M58.4561 37.0176C59.4255 37.9966 64.3336 39.771 66.8785 37.0176L68.6357 38.7308C68.6357 38.7308 66.6361 43.4421 63.1823 43.6257C59.6679 43.8092 57.1836 39.4038 57.1836 39.4038L58.4561 37.0176Z" fill="#0C476B"/>
<path id="Vector_7" d="M72.2715 36.5298C78.0884 34.0212 96.9329 27.2295 96.9329 27.2295C96.9329 27.2295 109.597 11.1988 112.202 8.8125C112.202 8.8125 114.99 9.30199 115.838 12.8508C115.838 12.8508 107.658 30.4724 103.235 35.5508C98.8113 40.5681 76.3312 51.5204 76.3312 51.5204L72.2715 36.5298Z" fill="#0C476B"/>
<path id="Vector_8" d="M51.849 36.1612C53.6062 35.0599 62.271 40.9337 62.271 40.9337C62.271 40.9337 73.602 34.8763 76.2681 36.0389C76.2681 36.0389 78.6918 39.2817 79.6007 47.603C80.5702 55.9243 80.6308 90.1273 80.6308 90.1273C80.6308 90.1273 72.996 92.8195 62.6952 92.8195C50.9401 92.8195 44.6384 89.3931 44.6384 89.3931C44.6384 89.3931 42.5782 42.0351 51.849 36.1612Z" fill="#ECFF78"/>
<path id="Vector_9" d="M58.9414 35.2441C58.9414 35.2441 60.2139 39.2212 58.9414 40.7509C58.9414 40.7509 60.2139 43.5043 62.577 43.6266C65.3037 43.749 66.2126 40.7509 66.2126 40.7509C66.2126 40.7509 64.7584 36.8962 66.2126 35.5501L58.9414 35.2441Z" fill="#FF9679"/>
<g id="Group_4">
<path id="Vector_10" d="M55.79 31.3254C55.79 31.3254 53.1239 26.1858 53.6693 20.7402C54.2146 15.2335 62.3947 14.0098 67.9087 16.7019C67.9087 16.7019 66.2726 15.1111 66.9392 14.6216C67.6057 14.1933 68.6964 17.0691 68.6964 17.0691C68.6964 17.0691 70.4536 16.5184 70.696 17.0691C70.9383 17.6197 68.9388 17.9257 68.9388 17.9257C68.9388 17.9257 72.5137 19.9448 69.1811 30.53L55.79 31.3254Z" fill="#8B383E"/>
<path id="Vector_11" d="M55.3657 28.0831C55.3657 28.0831 53.4267 26.1251 53.1843 28.389C52.8813 31.0812 55.3051 32.1825 55.7898 31.3259C56.2746 30.4693 55.3657 28.0831 55.3657 28.0831Z" fill="#FF9979"/>
<path id="Vector_12" d="M69.1837 28.2041C69.1837 28.2041 71.1227 26.2462 71.365 28.5101C71.668 31.2023 69.2443 32.3036 68.7595 31.447C68.2748 30.5904 69.1837 28.2041 69.1837 28.2041Z" fill="#FF9979"/>
<path id="Vector_13" d="M62.0892 37.8102C57.7265 37.8102 55.2422 34.9344 55.2422 26.3072C55.2422 21.8406 57.4841 19.1484 62.3922 19.1484C67.3002 19.1484 69.3604 21.9018 69.3604 26.3072C69.2998 35.5463 66.5731 37.8102 62.0892 37.8102Z" fill="#FF9979"/>
<path id="Vector_14" d="M67.9104 29.3656C67.971 29.7939 67.6075 30.2222 67.0621 30.3446C66.5168 30.467 66.0321 30.161 65.9109 29.7327C65.8503 29.3044 66.2138 28.8761 66.7592 28.7538C67.3045 28.6314 67.7893 28.9373 67.9104 29.3656Z" fill="#DB614D"/>
<path id="Vector_15" d="M58.8804 29.6133C58.8804 30.0416 58.3957 30.4087 57.8504 30.3475C57.305 30.2863 56.8809 29.9192 56.8809 29.4909C56.8809 29.0626 57.3656 28.6955 57.9109 28.7567C58.5169 28.7567 58.941 29.185 58.8804 29.6133Z" fill="#DB614D"/>
<g id="Group_5">
<path id="Vector_16" d="M65.9079 24.9013C65.8473 24.9013 65.7867 24.9013 65.7261 24.8401C65.1202 24.2282 64.0901 24.2282 64.0295 24.2282C63.9083 24.2282 63.7871 24.167 63.7871 24.0447C63.7871 23.9223 63.8477 23.7999 63.9689 23.7999C64.0295 23.7999 65.2413 23.7387 65.9685 24.5341C66.0291 24.5953 66.0291 24.7789 65.9685 24.8401L65.9079 24.9013Z" fill="#8B383E"/>
</g>
<g id="Group_6">
<path id="Vector_17" d="M57.6686 24.9013C57.608 24.9013 57.5474 24.9013 57.5474 24.8401C57.4868 24.7789 57.4868 24.5953 57.5474 24.5341C58.2745 23.7387 59.4864 23.7999 59.547 23.7999C59.6682 23.7999 59.7893 23.9223 59.7287 24.0447C59.7287 24.167 59.6076 24.2894 59.4864 24.2282C59.4864 24.2282 58.3957 24.2282 57.7898 24.8401C57.7898 24.8401 57.7292 24.9013 57.6686 24.9013Z" fill="#8B383E"/>
</g>
<path id="Vector_18" d="M65.4852 27.227C65.4852 27.7777 65.2428 28.206 64.9399 28.206C64.6369 28.206 64.3945 27.7777 64.3945 27.227C64.3945 26.6763 64.6369 26.248 64.9399 26.248C65.2428 26.248 65.4852 26.6763 65.4852 27.227Z" fill="#1A4850"/>
<path id="Vector_19" d="M59.6649 27.227C59.6649 27.7777 59.4225 28.206 59.1196 28.206C58.8166 28.206 58.5742 27.7777 58.5742 27.227C58.5742 26.6763 58.8166 26.248 59.1196 26.248C59.4225 26.248 59.6649 26.6763 59.6649 27.227Z" fill="#1A4850"/>
<path id="Vector_20" d="M59.666 33.0989C59.666 33.0989 63.544 33.5884 65.483 32.6094C65.483 32.6094 64.3923 35.2404 62.2715 34.9956C60.1508 34.8121 59.666 33.0989 59.666 33.0989Z" fill="#1A4850"/>
<path id="Vector_21" d="M68.8785 29.1843C68.8785 29.1843 68.7573 24.4118 66.8789 20.6795C66.8789 20.6795 63.6069 22.2091 62.8797 21.842C62.1526 21.4749 63.5463 20.6795 63.5463 20.6795C63.5463 20.6795 58.1535 22.4539 57.8505 22.0868C57.5475 21.7196 59.6077 20.6795 59.6077 20.6795L56.2751 21.842C56.2751 21.842 55.245 26.1862 55.6691 29.1843C55.6691 29.1843 54.2149 26.6757 54.0331 24.9625C53.8513 23.2493 54.6391 18.2932 59.6683 17.9261C64.6975 17.559 67.5454 18.7215 68.8179 21.0466C70.0903 23.4329 69.9691 26.3086 68.8785 29.1843Z" fill="#8B383E"/>
<g id="Group_7">
<path id="Vector_22" d="M62.8191 31.6929C62.395 31.6929 61.9708 31.5705 61.8496 31.5705L61.9708 31.1422C62.4555 31.2646 63.1221 31.3257 63.3039 31.1422C63.3644 31.081 63.3644 30.8974 63.2433 30.7139C62.6373 29.3678 62.4555 25.9414 62.4555 25.7578H62.9403C62.9403 25.819 63.0615 29.2454 63.6674 30.5303C63.8492 30.8974 63.8492 31.2034 63.6674 31.4481C63.4856 31.6317 63.1827 31.6929 62.8191 31.6929Z" fill="#DB614D"/>
</g>
</g>
<path id="Vector_23" d="M67.666 38.306C67.666 38.306 75.5431 63.0864 76.3308 83.2166C76.3308 83.2166 79.1787 84.012 82.3902 79.6066C85.6016 75.2012 83.6626 40.2028 77.5427 34.3901C77.5427 34.3901 74.7554 33.717 67.666 38.306Z" fill="#105E99"/>
<path id="Vector_24" d="M68.941 42.6483C68.941 42.6483 70.3347 39.3443 69.7287 37.0804C69.1228 34.8165 66.8809 37.0804 66.8809 37.0804C66.8809 37.0804 67.7898 40.7516 68.941 42.6483Z" fill="#0C476B"/>
<path id="Vector_25" d="M53.0644 36.5284C47.2474 34.0198 28.403 27.2281 28.403 27.2281C28.403 27.2281 15.6784 10.7691 13.1335 8.38281C13.1335 8.38281 9.92201 10.2184 9.74023 14.0119C9.74023 14.0119 17.7385 30.5322 22.1618 35.6106C26.5852 40.6891 49.0653 51.5802 49.0653 51.5802L53.0644 36.5284Z" fill="#0C476B"/>
<path id="Vector_26" d="M57.6688 38.306C57.6688 38.306 49.7917 63.0864 49.004 83.2166C49.004 83.2166 46.1561 84.012 42.9447 79.6066C39.7332 75.2012 41.6722 40.2028 47.7921 34.3901C47.7921 34.3901 50.5794 33.717 57.6688 38.306Z" fill="#105E99"/>
<path id="Vector_27" d="M56.3954 42.6483C56.3954 42.6483 55.0018 39.3443 55.6077 37.0804C56.2137 34.8165 58.4556 37.0804 58.4556 37.0804C58.4556 37.0804 57.5467 40.7516 56.3954 42.6483Z" fill="#0C476B"/>
<g id="Group_8">
<path id="Vector_28" d="M97.5974 193.592H81.9038C80.8131 187.29 82.5703 180.987 82.5703 180.987L89.7203 179.764C90.3868 183.741 91.1745 185.332 92.2652 186.127C93.0529 186.739 94.0224 186.922 95.1737 187.29C96.5067 187.779 97.2338 188.636 97.5974 189.553C98.3245 191.45 97.5974 193.592 97.5974 193.592Z" fill="#662C33"/>
<path id="Vector_29" d="M97.656 189.616C93.778 190.105 85.2949 190.962 85.7797 188.698C86.2038 186.801 89.7789 186.312 92.2632 186.189C93.0509 186.801 94.0204 186.985 95.1716 187.352C96.5653 187.78 97.2924 188.637 97.656 189.616Z" fill="#8B383E"/>
</g>
<g id="Group_9">
<path id="Vector_30" d="M45.0644 193.592H29.3708C29.3708 193.592 28.886 192.123 29.1284 190.532C29.3102 189.248 29.9767 187.901 31.7945 187.29C33.1276 186.8 34.2182 186.617 35.0665 185.821C35.9754 184.965 36.7026 183.312 37.2479 179.764L44.3979 180.987C44.4585 180.987 46.1551 187.29 45.0644 193.592Z" fill="#662C33"/>
<path id="Vector_31" d="M29.1309 190.534C29.3126 189.249 29.9792 187.903 31.797 187.291C33.13 186.801 34.2207 186.618 35.069 185.822C37.0686 186.434 39.8559 187.597 40.7042 189.31C41.8554 191.696 32.7059 191.329 29.1309 190.534Z" fill="#8B383E"/>
</g>
</g>
</svg>
