<svg width="120" height="194" viewBox="0 0 120 194" fill="none" xmlns="http://www.w3.org/2000/svg">
<g id="Group">
<path id="Vector" d="M37.9567 188.946C37.4113 188.64 36.9266 188.028 36.5024 187.294C36.5024 187.294 36.1389 185.03 36.5024 182.583C36.866 180.196 35.8359 178.238 32.5033 177.504C29.2312 176.77 27.2923 178.361 28.0194 185.03C27.5346 187.783 27.4134 190.965 28.5647 193.596H38.6232C38.6232 193.596 40.2592 190.17 37.9567 188.946Z" fill="#98C1FF"/>
<path id="Vector_2" d="M46.8022 153.211C46.8022 153.211 46.8022 159.819 43.106 166.611C39.3493 173.525 34.6836 183.009 34.6836 183.009C34.6836 183.009 31.5933 186.068 29.5938 180.99C29.5938 180.99 30.9874 163.368 34.1988 156.882C37.4103 150.397 46.8022 153.211 46.8022 153.211Z" fill="#FF9979"/>
<path id="Vector_3" d="M95.0935 131.611C95.0935 131.611 101.092 157.065 104.91 163.795C104.91 163.795 104.061 166.61 99.8803 167.466C99.8803 167.466 86.8528 148.132 86.0045 139.933C85.1562 131.795 95.0935 131.611 95.0935 131.611Z" fill="#FF9979"/>
<g id="Group_2">
<path id="Vector_4" d="M97.9437 137.61C96.3682 141.465 84.0072 141.709 84.0072 141.709L83.0377 140.302L82.7953 139.935L80.8564 137.059C80.8564 137.059 60.4365 116.868 56.4979 118.52C56.3767 118.581 56.2555 118.642 56.1343 118.703C53.4076 120.661 53.1653 131.491 49.8932 149.602C49.5903 151.316 48.9237 153.335 48.3784 154.681C48.3178 154.803 48.2572 154.987 48.1966 155.109C47.8937 155.904 47.7119 156.394 47.7119 156.394C35.2297 161.472 31.1699 151.438 31.1699 151.438C31.1699 151.438 31.2911 151.132 31.5335 150.704C31.5941 150.581 31.6547 150.459 31.7153 150.337C32.3818 148.868 33.4119 146.359 33.4119 145.013C33.4119 143.545 33.4119 142.138 33.3513 140.792C33.3513 140.669 33.3513 140.547 33.3513 140.424C33.3513 136.08 33.3513 132.287 33.3513 128.983V128.615C33.3513 127.208 33.4119 125.862 33.4119 124.577V124.21C33.5331 118.459 33.7148 114.665 33.8966 112.095C33.8966 111.973 33.8966 111.85 33.8966 111.728C34.2602 107.445 34.6237 107.017 34.6237 107.017L32.1394 89.5176H59.4064C59.4064 89.5176 63.5267 93.6782 68.7983 99.1238C68.9195 99.2462 69.0407 99.3685 69.1013 99.4297C71.0403 101.388 73.1004 103.529 75.1606 105.732C75.2212 105.793 75.3424 105.915 75.403 105.977C76.2513 106.833 77.039 107.69 77.8873 108.546C78.0085 108.669 78.0691 108.73 78.1903 108.852C80.917 111.728 83.5831 114.543 85.825 116.99C85.8856 117.051 86.0068 117.174 86.0674 117.235C89.1576 120.6 91.5208 123.353 92.3691 124.577C94.5504 127.942 96.1864 132.225 97.1559 134.918C97.2165 135.04 97.2165 135.162 97.2771 135.285C97.7013 136.753 97.9437 137.61 97.9437 137.61Z" fill="#8B383E"/>
<g id="Group_3">
<path id="Vector_5" d="M38.7419 109.771C37.6513 111.117 36.0152 111.913 33.9551 112.218C33.9551 112.096 33.9551 111.974 33.9551 111.851C35.8941 111.545 37.4695 110.811 38.4996 109.526C40.378 107.324 40.075 104.264 40.075 104.264L40.4386 104.203C40.4386 104.387 40.7415 107.446 38.7419 109.771Z" fill="#662C33"/>
<path id="Vector_6" d="M69.1613 99.5527C69.0402 99.5527 68.9796 99.5527 68.8584 99.5527C65.8287 99.5527 62.6779 96.1874 62.4961 96.0651L62.7385 95.8203C62.7991 95.8815 65.9499 99.1855 68.8584 99.2467C68.919 99.3691 69.0402 99.4915 69.1613 99.5527Z" fill="#662C33"/>
<path id="Vector_7" d="M48.4993 154.743C48.4387 154.866 48.3781 155.049 48.3175 155.172C46.3179 155.906 44.4395 156.212 42.7429 156.212C37.3501 156.212 33.6539 153.091 31.5938 150.705C31.6543 150.583 31.7149 150.46 31.7755 150.338C34.381 153.458 39.9556 157.986 48.4993 154.743Z" fill="#662C33"/>
<path id="Vector_8" d="M55.7718 112.22C56.196 114.178 56.499 116.319 56.499 118.522C56.3778 118.583 56.2566 118.644 56.1354 118.705C56.1354 108.426 50.2579 100.472 50.1973 100.35L50.4397 100.166C50.5002 100.227 53.954 105 55.6507 111.853C56.3172 111.424 56.8019 110.751 56.9837 109.895C57.832 106.285 53.9541 100.411 53.9541 100.35L54.257 100.166C54.4388 100.411 58.2562 106.223 57.3473 109.956C57.1655 110.996 56.6202 111.73 55.7718 112.22Z" fill="#662C33"/>
<path id="Vector_9" d="M86.1266 117.418C85.0965 118.519 84.1876 119.437 84.0664 119.559L83.8847 119.743L83.8241 119.498C82.491 116.01 74.008 108.485 73.9474 108.362L73.8262 108.24L75.2198 105.854C75.2804 105.915 75.4016 106.037 75.4622 106.098L74.2503 108.056C75.8863 108.607 77.0982 108.729 77.8859 108.607C78.0071 108.729 78.0677 108.79 78.1889 108.913C77.8859 108.974 77.6436 108.974 77.28 108.974C76.4923 108.974 75.644 108.79 74.6745 108.546C76.6135 110.32 82.5516 115.888 83.9452 119.009C84.4906 118.458 85.1571 117.785 85.8236 117.051C85.9448 117.234 86.066 117.295 86.1266 117.418Z" fill="#662C33"/>
<path id="Vector_10" d="M39.5907 140.732H39.4695C39.3483 140.794 37.8335 141.1 36.0763 141.1C35.1674 141.1 34.2585 141.038 33.4102 140.794C33.4102 140.671 33.4102 140.549 33.4102 140.427C35.6521 141.1 38.6212 140.549 39.2877 140.427L38.7424 126.293C38.4394 127.088 37.7729 128.128 36.6216 128.74C36.0763 129.046 35.4097 129.168 34.7432 129.168C34.319 129.168 33.8949 129.107 33.4708 129.046V128.679C34.622 128.924 35.6521 128.862 36.5004 128.434C37.9547 127.7 38.5 126.17 38.6818 125.558C37.5305 125.742 35.2885 125.13 33.5919 124.641V124.273C35.4703 124.824 37.9546 125.497 38.8635 125.191L39.1059 125.13L39.5907 140.732Z" fill="#662C33"/>
<path id="Vector_11" d="M97.2786 135.47C95.3396 137.428 91.3405 140.426 85.16 140.426C84.4934 140.426 83.8269 140.365 83.0998 140.304L82.8574 139.937C90.371 140.793 95.0366 137.244 97.1574 135.164C97.218 135.225 97.2786 135.348 97.2786 135.47Z" fill="#662C33"/>
</g>
</g>
<path id="Vector_12" d="M64.4325 15.1781C64.4325 15.1781 63.7054 13.4648 60.494 13.4648C58.0702 13.4648 57.1008 14.8109 57.1008 14.8109C55.6465 19.094 54.0711 35.6142 53.5258 36.1649C53.2228 36.4708 35.166 48.7692 35.166 48.7692C44.9821 48.9528 51.102 61.19 51.102 61.19C51.405 57.1517 62.4935 41.3045 62.6147 39.836C62.9177 37.1439 67.5834 25.2126 64.4325 15.1781Z" fill="#CE364C"/>
<path id="Vector_13" d="M33.1061 101.265C33.1061 101.265 33.0455 104.692 34.1361 104.937C35.2268 105.181 44.1946 107.812 54.4955 103.101C64.7963 98.3897 66.6141 94.8409 63.5845 92.2711C60.5548 89.7012 33.1061 101.265 33.1061 101.265Z" fill="#CE364C"/>
<path id="Vector_14" d="M28.9264 51.0912C28.9264 51.0912 19.5345 49.9899 14.1417 52.3149C14.1417 52.3149 12.6269 59.0454 20.0192 74.0972C27.4116 89.1489 25.715 98.6328 34.0163 102.182C41.4086 105.363 63.2222 95.9406 63.8887 92.8201C65.5853 84.9883 52.2548 71.1602 51.4671 63.1449C50.6794 55.1907 42.9235 43.1982 28.9264 51.0912Z" fill="#F24052"/>
<path id="Vector_15" d="M14.2021 52.316C7.658 54.6411 0.265625 62.1058 0.265625 65.7157C0.265625 69.3257 6.44614 70.6718 6.44614 70.6718L16.5652 65.7157C16.5652 65.7157 19.4737 63.6966 17.5953 57.7616C15.7169 51.7653 14.2021 52.316 14.2021 52.316Z" fill="#CE364C"/>
<g id="Group_4">
<path id="Vector_16" d="M41.1079 58.9849C39.1689 58.9849 36.7452 58.2507 35.2304 57.2105C34.3821 56.5986 33.8973 55.9256 33.7762 55.2526C33.4126 52.9275 35.6545 51.7038 35.7757 51.6426L36.0787 52.2544C36.0181 52.3156 34.1397 53.2946 34.4427 55.1302C34.5033 55.6197 34.9274 56.1703 35.594 56.6598C37.2906 57.8836 40.199 58.6178 42.138 58.2507C42.9863 58.1283 43.5316 57.7612 43.8346 57.3329C44.1376 56.7822 43.8952 56.1092 43.8952 56.1092L44.5011 55.8644C44.5011 55.9256 44.8647 56.7822 44.4405 57.6388C44.077 58.3119 43.3499 58.7402 42.3198 58.9237C41.8956 58.9237 41.5321 58.9849 41.1079 58.9849Z" fill="#98C1FF"/>
</g>
<g id="Group_5">
<path id="Vector_17" d="M32.8066 66.1453C31.3524 66.1453 28.9287 65.5335 28.6257 63.1472C28.4439 61.9235 28.5651 60.8833 28.6863 60.0267C28.8075 58.6806 28.9287 57.6405 28.2015 56.4168C26.9291 54.3364 25.2325 54.2141 25.1719 54.2141L25.2325 53.541C25.2931 53.541 27.3532 53.6634 28.8075 56.0496C29.7164 57.5181 29.5346 58.7418 29.4134 60.0879C29.2922 61.0057 29.2316 61.9235 29.3528 63.086C29.7164 65.6559 32.9884 65.5335 33.1096 65.5335L33.1702 66.2065C32.9884 66.1453 32.9278 66.1453 32.8066 66.1453Z" fill="#98C1FF"/>
</g>
<path id="Vector_18" d="M34.8619 53.9687C34.8619 53.9687 39.8305 50.5422 38.6187 46.8711C37.4674 43.1999 21.4708 43.4447 17.3504 47.85C13.2301 52.2554 26.2576 55.1924 26.2576 55.1924C27.2877 53.112 33.7106 52.8673 34.8619 53.9687Z" fill="#CE364C"/>
<path id="Vector_19" d="M25.9577 53.3564C23.5946 52.561 22.201 50.8478 22.6857 48.8286C23.1705 46.8707 33.2895 46.8095 35.2285 48.4003C37.1675 49.9912 34.4408 56.2933 25.9577 53.3564Z" fill="#A02E44"/>
<path id="Vector_20" d="M24.8086 47.7889C24.8086 47.7889 26.8688 51.3989 25.8993 53.3568C25.8993 53.3568 33.0493 55.8654 33.0493 51.8272C33.0493 51.8272 31.7162 48.829 32.201 46.8711L24.8086 47.7889Z" fill="#FF9679"/>
<g id="Group_6">
<path id="Vector_21" d="M22.4428 44.6656C22.4428 44.6656 18.9284 38.9753 19.2314 33.5909C19.4132 30.8988 20.7462 29.7974 20.7462 29.7974C20.7462 29.7974 19.6555 28.2066 20.8068 25.8203C20.8068 25.8203 22.4428 27.7783 28.2598 27.1664C33.8344 26.5545 34.4403 30.5928 34.4403 30.5928C38.4394 31.2047 35.7128 43.4419 32.9255 44.6656H22.4428Z" fill="#FFB878"/>
<path id="Vector_22" d="M20.9276 39.4032C20.9276 39.4032 18.9281 37.3841 18.6857 39.7704C18.3827 42.5237 20.8671 43.6251 21.3518 42.7685C21.8365 41.8507 20.9276 39.4032 20.9276 39.4032Z" fill="#FF9979"/>
<path id="Vector_23" d="M35.0488 39.5263C35.0488 39.5263 37.0483 37.5071 37.2907 39.8934C37.5937 42.6468 35.1094 43.7481 34.6246 42.8915C34.2005 42.0349 35.0488 39.5263 35.0488 39.5263Z" fill="#FF9979"/>
<path id="Vector_24" d="M27.7768 49.3778C23.2929 49.3778 20.748 46.4409 20.748 37.5689C20.748 32.9799 23.0506 30.2266 28.0798 30.2266C33.109 30.2266 35.2298 33.0411 35.2298 37.5689C35.2298 47.1139 32.4425 49.3778 27.7768 49.3778Z" fill="#FF9979"/>
<path id="Vector_25" d="M33.7757 40.7487C33.8363 41.177 33.4727 41.6665 32.9274 41.7277C32.382 41.85 31.8367 41.5441 31.7761 41.0546C31.7155 40.6263 32.0791 40.1368 32.6244 40.0756C33.1698 40.0145 33.6545 40.2592 33.7757 40.7487Z" fill="#DB614D"/>
<path id="Vector_26" d="M24.5614 40.9959C24.5614 41.4854 24.0161 41.7913 23.4707 41.7913C22.9254 41.7302 22.4406 41.363 22.5012 40.8735C22.5012 40.3841 23.0466 40.0781 23.5919 40.0781C24.1372 40.1393 24.5614 40.5064 24.5614 40.9959Z" fill="#DB614D"/>
<g id="Group_7">
<path id="Vector_27" d="M31.7732 35.9762C31.7126 35.9762 31.652 35.9762 31.5914 35.915C30.8643 35.3643 29.8342 35.5479 29.7736 35.5479C29.6524 35.5479 29.5312 35.4867 29.5312 35.3643C29.5312 35.2419 29.5918 35.1196 29.713 35.1196C29.7736 35.1196 30.9855 34.8748 31.8944 35.5479C32.0156 35.609 32.0156 35.7926 31.955 35.8538C31.8944 35.9762 31.8338 35.9762 31.7732 35.9762Z" fill="#FFB878"/>
</g>
<g id="Group_8">
<path id="Vector_28" d="M23.2293 36.0396C23.1687 36.0396 23.1082 35.9784 23.1082 35.9784C23.0476 35.8561 23.0476 35.7337 23.1688 35.6725C24.0171 34.9995 25.2289 35.183 25.2895 35.183C25.4107 35.183 25.4713 35.3054 25.4713 35.4278C25.4713 35.5501 25.3501 35.6113 25.2289 35.6113C25.2289 35.6113 24.1382 35.4278 23.4717 36.0396C23.3505 36.0396 23.2899 36.0396 23.2293 36.0396Z" fill="#FFB878"/>
</g>
<path id="Vector_29" d="M31.3505 38.548C31.3505 39.0987 31.1081 39.5881 30.8051 39.5881C30.5021 39.5881 30.2598 39.1598 30.2598 38.548C30.2598 37.9973 30.5021 37.5078 30.8051 37.5078C31.0475 37.5078 31.3505 37.9973 31.3505 38.548Z" fill="#1A4850"/>
<path id="Vector_30" d="M25.3504 38.548C25.3504 39.0987 25.1081 39.5881 24.8051 39.5881C24.5021 39.5881 24.2598 39.1598 24.2598 38.548C24.2598 37.9973 24.5021 37.5078 24.8051 37.5078C25.1081 37.5078 25.3504 37.9973 25.3504 38.548Z" fill="#1A4850"/>
<path id="Vector_31" d="M22.1429 31.2034C22.1429 31.2034 26.9298 32.9778 33.7768 32.4883C33.7768 32.4883 35.2311 34.3239 35.0493 40.8096C35.0493 40.8096 39.0484 29.123 27.354 29.123C15.6595 29.123 20.9311 40.5037 20.9311 40.5037C20.9311 40.5037 20.0222 33.3449 22.1429 31.2034Z" fill="#FFB878"/>
<g id="Group_9">
<path id="Vector_32" d="M28.0784 41.5432L27.7148 41.1761L28.6237 40.2583C27.7754 39.0346 27.7754 36.22 27.7754 36.0977H28.2602C28.2602 36.0977 28.2602 39.157 29.1085 40.1359L29.2903 40.3195L28.0784 41.5432Z" fill="#DB614D"/>
</g>
<path id="Vector_33" d="M25.1113 43.0123C25.1113 43.0123 29.5346 43.1958 31.716 42.584C31.716 42.584 32.0795 45.8268 28.6863 46.0104C25.1113 46.194 25.1113 43.0123 25.1113 43.0123Z" fill="#1A4850"/>
</g>
<path id="Vector_34" d="M43.9512 55.2548C44.7988 55.0713 44.6777 57.3336 43.9512 56.661C43.164 56.0496 43.1035 55.4382 43.9512 55.2548Z" fill="#98C1FF"/>
<path id="Vector_35" d="M33.7725 66.0194C33.6514 66.8753 31.5928 66.0805 32.4405 65.5302C33.3487 65.0411 33.9542 65.1634 33.7725 66.0194Z" fill="#98C1FF"/>
<path id="Vector_36" d="M24.7481 70.6699C24.7481 70.6699 23.4151 74.1575 23.4757 76.0543C23.5363 78.0123 24.2028 77.7675 24.2028 77.7675C24.2028 77.7675 23.1727 78.1958 22.9909 79.2972C22.8092 80.3985 25.5964 81.2551 25.7782 81.2551C25.96 81.2551 27.9596 80.5209 27.9596 80.5209L28.3837 74.1575L26.6265 73.0562L24.7481 70.6699Z" fill="#FF9679"/>
<path id="Vector_37" d="M25.8351 70.2441C25.8351 70.2441 28.2588 71.7738 29.2283 72.6916C30.1978 73.6094 29.6524 80.8293 29.2283 81.1964C28.8041 81.5636 25.7139 82.2366 25.1079 81.8695C24.502 81.5024 25.3503 79.3609 25.3503 79.3609C25.3503 79.3609 26.9257 78.9937 26.6834 79.6056C26.441 80.2175 26.6834 80.707 26.6834 80.707L27.3499 80.4622C27.3499 80.4622 27.0469 78.8714 27.3499 77.6477C27.6528 76.4851 25.1685 75.2002 24.8656 73.0587C24.502 70.7948 25.8351 70.2441 25.8351 70.2441Z" fill="#FF9979"/>
<path id="Vector_38" d="M0.629177 66.6925C-0.158535 63.3272 3.17409 62.1035 7.83977 62.6542C13.2326 63.3272 24.2605 64.7345 26.6843 70.6084C26.6843 70.6084 27.472 72.9334 25.4118 74.0348C19.7766 77.2165 2.08341 73.0558 0.629177 66.6925Z" fill="#CE364C"/>
<path id="Vector_39" d="M17.4726 64.4933C17.4726 64.4933 11.0497 61.8011 7.83829 61.5564C4.68744 61.2505 12.2616 64.065 17.4726 64.4933Z" fill="#A02E44"/>
<g id="Group_10">
<path id="Vector_40" d="M65.5848 6.11969C65.1001 6.67037 64.3124 8.87306 64.3124 8.87306C63.9488 10.7086 63.767 11.6876 63.1611 12.5442C62.5552 13.4008 62.8582 14.8693 62.8582 14.8693C62.8582 14.8693 60.4344 16.1542 58.3742 14.5634C58.3742 14.5634 58.6166 13.0949 58.3742 12.6666C57.9501 11.81 56.617 11.3817 56.1323 9.72967C55.6476 8.07764 54.2539 6.18088 54.2539 6.18088C54.2539 6.18088 54.6781 5.32427 55.4052 5.81376C56.1323 6.36444 56.617 7.71053 56.9806 7.8329C57.0412 7.8329 57.1624 7.89409 57.223 7.89409C57.5259 7.95527 57.8289 7.89409 58.0107 7.71053C58.0107 7.71053 58.0713 7.71053 58.0713 7.64934C58.7378 6.85392 58.9196 4.59004 58.859 3.54988C58.7984 2.1426 58.859 0.123456 59.7073 0.490572C60.5556 0.796503 59.7679 1.59192 60.4344 4.7736L60.7374 4.83478C60.798 5.07953 61.4039 2.93802 61.5251 0.918875C61.6463 -0.488405 62.4946 0.06227 62.737 0.490572C62.9187 0.918875 62.6158 2.32615 62.5552 3.30513C62.4946 3.97818 62.434 4.65123 62.434 5.07953L62.7976 5.26309C64.1306 2.87683 63.7064 1.89785 64.4942 1.83667C65.2819 1.77548 64.9789 3.79462 64.5548 4.59004C64.373 4.89597 64.1912 5.6302 64.07 6.30325C65.4637 4.65123 65.2819 3.85581 65.9484 3.91699C66.6149 3.97818 66.009 5.56902 65.5848 6.11969Z" fill="#FF9979"/>
<path id="Vector_41" d="M59.5253 9.91104C59.0405 8.62614 57.3439 8.01428 57.1621 7.95309C57.4651 8.01428 57.7681 7.95309 57.9498 7.76953C59.6464 8.44258 59.5253 9.91104 59.5253 9.91104Z" fill="#FF9679"/>
</g>
<g id="Group_11">
<path id="Vector_42" d="M30.3194 183.622C30.3194 183.622 29.4105 181.725 30.1982 180.868C31.0465 180.073 32.016 181.602 33.4096 181.235C34.8033 180.868 35.1668 179.889 35.5304 181.235C35.8939 182.704 35.4698 187.048 30.3194 183.622Z" fill="#98C1FF"/>
<path id="Vector_43" d="M35.6528 183.559C35.6528 183.559 31.8355 184.905 29.8965 183.559L30.3812 185.211C30.3812 185.211 34.5016 185.639 35.1075 184.599L35.6528 183.559Z" fill="#5F78BA"/>
<path id="Vector_44" d="M35.5899 185.641C35.5899 185.641 32.0755 185.152 30.4395 186.008V186.804C30.4395 186.804 34.9839 185.702 36.4382 186.804L35.5899 185.641Z" fill="#5F78BA"/>
<path id="Vector_45" d="M30.2598 188.578C30.2598 188.578 30.9263 186.926 33.0471 186.804C35.1678 186.682 36.6221 187.844 36.6221 187.844C36.6221 187.844 33.2288 186.437 30.2598 188.578Z" fill="#5F78BA"/>
</g>
<g id="Group_12">
<path id="Vector_46" d="M119.997 165.449C113.332 174.443 104.182 176.218 104.182 176.218C101.516 174.076 101.455 171.567 101.455 171.567C101.455 171.567 98.9104 169.242 98.5468 168.141C98.1833 167.04 100.728 163.736 102.243 164.042C103.273 164.286 103.879 165.143 104.182 165.632C102.91 162.757 103.94 161.778 105.697 162.022C107.575 162.267 105.818 162.695 107.151 164.225C107.272 164.347 107.333 164.409 107.454 164.531C107.696 164.715 107.999 164.837 108.302 164.898C108.605 164.959 108.908 164.959 109.272 164.959C109.454 164.959 109.635 164.959 109.817 164.898C110.181 164.837 110.484 164.776 110.847 164.653C111.393 164.47 111.999 164.225 112.544 163.919C114.846 162.634 115.816 162.206 117.573 162.634C119.33 163.063 119.33 164.409 119.33 164.409L119.997 165.449Z" fill="#98C1FF"/>
<path id="Vector_47" d="M119.995 165.448C113.329 174.442 104.18 176.217 104.18 176.217C108.845 174.197 113.087 171.566 115.995 168.324C118.964 165.02 119.995 165.448 119.995 165.448Z" fill="#5F78BA"/>
<g id="Group_13">
<path id="Vector_48" d="M107.515 164.531C107.757 164.715 108.06 164.837 108.363 164.898C106.606 165.265 106.485 166.856 106.485 166.856L105.758 166.612C105.879 164.654 107.394 164.531 107.515 164.531Z" fill="#5F78BA"/>
<path id="Vector_49" d="M108.669 166.978H107.881C107.578 165.877 107.942 165.204 108.366 164.775C108.669 164.837 108.972 164.837 109.336 164.837C108.366 165.816 108.669 166.978 108.669 166.978Z" fill="#5F78BA"/>
<path id="Vector_50" d="M110.606 166.55L109.818 166.672C109.515 165.877 109.576 165.265 109.818 164.837C110.182 164.775 110.485 164.714 110.848 164.592C110.243 165.571 110.606 166.55 110.606 166.55Z" fill="#5F78BA"/>
</g>
</g>
<path id="Vector_51" d="M35.7162 82.7861C35.7162 82.7861 37.4734 92.2087 33.959 95.9411C30.4446 99.6734 32.7472 96.6141 33.8378 91.7804C34.8679 86.9467 34.0802 81.8683 35.7162 82.7861Z" fill="#CE364C"/>
<path id="Vector_52" d="M51.8281 78.5633C51.8281 78.5633 57.3421 80.3989 60.19 85.5386C60.2506 85.5386 56.3726 77.2172 51.8281 78.5633Z" fill="#CE364C"/>
</g>
</svg>
