<svg width="86" height="154" viewBox="0 0 86 154" fill="none" xmlns="http://www.w3.org/2000/svg">
<g id="Group">
<path id="Vector" d="M56.8645 1.85137C56.8645 1.85137 53.3501 -0.596069 48.1997 1.3007C43.0493 3.13628 41.898 10.1727 43.1705 15.863C44.4429 21.5533 37.3535 41.0104 37.3535 41.0104C37.3535 41.0104 41.0497 46.2724 53.9561 44.2533C53.9561 44.2533 63.5904 26.6317 62.8633 13.905C62.0756 1.23951 56.8645 1.85137 56.8645 1.85137Z" fill="#0E3944"/>
<path id="Vector_2" d="M60.9238 23.7559C65.7713 22.165 68.7404 26.2645 71.5276 33.8516C74.3149 41.4386 75.2238 42.1729 75.2238 42.1729L85.9488 49.1481L85.0399 53.1864C85.0399 53.1864 74.8603 49.1481 72.3759 46.5783C69.8916 44.0084 62.8022 31.037 62.8022 31.037L60.9238 23.7559Z" fill="#FF9679"/>
<path id="Vector_3" d="M37.2935 72.7676C37.2935 72.7676 35.1727 83.5363 35.5363 99.6894C35.5363 99.6894 27.235 112.049 34.082 147.231H37.657C37.657 147.231 40.5655 117.25 42.8074 109.173C45.0494 101.036 53.3507 98.5881 53.7748 73.8689L37.2935 72.7676Z" fill="#FF9979"/>
<path id="Vector_4" d="M20.8701 104.401C18.81 97.4871 13.4172 85.8617 -0.337481 70.0757C-0.337481 70.0757 -1.18579 69.6474 -2.27646 70.3205C-3.42773 71.0547 -3.42773 71.9113 -3.42773 71.9113C-3.42773 71.9113 3.47989 87.0854 7.84261 98.2213C9.29684 101.954 12.8718 104.401 16.871 104.401H20.8701Z" fill="#FF9979"/>
<path id="Vector_5" d="M45.8947 117.798C45.8947 117.798 45.9553 122.999 42.5621 123.06C37.8358 123.183 37.654 117.982 32.2612 118.165C26.8684 118.349 15.7799 119.695 12.2655 111.19C10.4477 106.785 12.932 101.156 7.05445 96.9338C1.17691 92.712 4.02479 87.9395 7.05445 85.3697C10.0841 82.7998 5.7214 80.0465 8.93284 78.7616C9.65996 78.4556 10.4477 78.5168 11.1142 78.7004C11.5383 78.8228 11.9019 79.0675 12.2655 79.3122C13.9621 80.4136 15.1134 82.3715 15.1134 82.3715C24.0206 57.7136 39.896 54.4707 39.896 54.4707L55.5896 59.9163C55.9532 98.2799 45.8947 117.798 45.8947 117.798Z" fill="#164353"/>
<path id="Vector_6" d="M60.9231 23.7581C60.9231 23.7581 57.2875 24.9819 52.0765 24.1864C46.8655 23.391 45.1689 20.087 41.5333 22.2285C36.0193 25.4102 38.6248 36.4236 40.0185 42.114C40.5032 44.2555 41.1698 49.8234 39.9579 54.4735C39.9579 54.4735 47.2897 60.225 55.6515 59.9191L60.196 49.8846C60.1354 49.8846 70.0727 37.8921 60.9231 23.7581Z" fill="#98C1FF"/>
<path id="Vector_7" d="M51.5947 14.5802C51.5947 14.5802 52.2007 19.7811 50.3223 24.4924C50.3223 24.4924 53.049 28.5307 55.6545 25.8997C55.6545 25.8997 55.8968 21.1271 58.8053 15.7428C60.7443 12.1328 51.5947 14.5802 51.5947 14.5802Z" fill="#FF9679"/>
<g id="Group_2">
<path id="Vector_8" d="M47.4687 14.7007C47.4687 14.7007 45.1661 13.2322 45.4085 15.4961C45.7115 18.1271 48.2564 18.6166 48.4988 17.6988C48.8017 16.8422 47.4687 14.7007 47.4687 14.7007Z" fill="#FF9979"/>
<path id="Vector_9" d="M60.6165 11.8869C60.6165 11.8869 62.0708 9.56178 62.7979 11.7033C63.6462 14.2119 61.586 15.7416 60.9195 15.0685C60.253 14.3343 60.6165 11.8869 60.6165 11.8869Z" fill="#FF9979"/>
<path id="Vector_10" d="M55.829 22.5307C51.648 23.4485 48.7396 21.2458 46.9218 13.0469C45.9523 8.82501 47.5277 5.70453 52.1934 4.66436C56.8591 3.6242 59.404 5.76571 60.3129 9.98755C62.3125 18.8595 60.1311 21.5517 55.829 22.5307Z" fill="#FF9979"/>
<path id="Vector_11" d="M59.586 13.2931C59.7677 13.7214 59.4648 14.2109 58.98 14.3945C58.4953 14.5781 57.9499 14.4557 57.7682 14.0274C57.5864 13.5991 57.8894 13.1096 58.3741 12.926C58.9194 12.6813 59.4648 12.8648 59.586 13.2931Z" fill="#DB614D"/>
<path id="Vector_12" d="M51.1018 15.4359C51.1624 15.8642 50.7989 16.2925 50.2535 16.3537C49.7082 16.4149 49.2234 16.1702 49.1628 15.7419C49.1022 15.3136 49.4658 14.8853 50.0111 14.8241C50.5565 14.7017 51.0412 15.0076 51.1018 15.4359Z" fill="#DB614D"/>
<g id="Group_3">
<path id="Vector_13" d="M56.7399 9.43962C56.6793 9.43962 56.6793 9.43962 56.6187 9.37843C55.8916 8.88895 54.9221 9.13369 54.8615 9.13369C54.7403 9.19488 54.6191 9.07251 54.6191 8.95013C54.6191 8.82776 54.6797 8.70539 54.8009 8.70539C54.8615 8.70539 56.0128 8.39946 56.8611 9.01132C56.9823 9.07251 56.9823 9.19488 56.9217 9.31725C56.8611 9.37844 56.8005 9.43962 56.7399 9.43962Z" fill="#0E3944"/>
</g>
<g id="Group_4">
<path id="Vector_14" d="M48.8622 11.2113C48.8016 11.2113 48.8016 11.2113 48.741 11.1501C48.6198 11.0889 48.6198 10.9665 48.6804 10.8442C49.2258 9.92639 50.377 9.68164 50.4376 9.68164C50.5588 9.68164 50.68 9.74283 50.68 9.8652C50.68 9.98757 50.6194 10.1099 50.4982 10.1099C50.4982 10.1099 49.4681 10.2935 49.044 11.0277C49.044 11.1501 48.9834 11.2113 48.8622 11.2113Z" fill="#0E3944"/>
</g>
<path id="Vector_15" d="M56.9203 11.7656C57.0415 12.3163 56.9203 12.7446 56.6173 12.8058C56.3143 12.8669 56.0114 12.4998 55.8902 11.9492C55.769 11.3985 55.8902 10.9702 56.1932 10.909C56.4355 10.8478 56.7991 11.2149 56.9203 11.7656Z" fill="#1A4850"/>
<path id="Vector_16" d="M51.1058 12.9875C51.227 13.5381 51.1058 13.9664 50.8029 14.0276C50.4999 14.0888 50.1969 13.7217 50.0757 13.171C49.9545 12.6204 50.0757 12.192 50.3787 12.1309C50.6817 12.1309 50.9846 12.498 51.1058 12.9875Z" fill="#1A4850"/>
<path id="Vector_17" d="M52.9805 17.9444C52.9805 17.9444 55.6466 17.6997 56.7978 16.7207C56.7978 16.7207 56.4949 18.801 55.0406 18.9846C53.5864 19.107 52.9805 17.9444 52.9805 17.9444Z" fill="#1A4850"/>
<path id="Vector_18" d="M55.4655 11.8271C55.4655 11.8271 55.5867 10.481 56.0714 10.4199C56.6168 10.4199 57.2227 11.3988 57.2227 11.3988L57.8892 10.8482L57.1621 11.0929C57.1621 11.0929 56.4956 10.0527 56.0108 10.1139C55.2837 10.2975 55.4655 11.8271 55.4655 11.8271Z" fill="#1A4850"/>
<path id="Vector_19" d="M51.4688 12.8652C51.4688 12.8652 50.8023 11.6415 50.3175 11.8863C49.8328 12.0698 49.7116 13.2935 49.7116 13.2935L48.8633 13.0488L49.651 12.9876C49.651 12.9876 49.7722 11.7639 50.2569 11.6415C50.9235 11.458 51.4688 12.8652 51.4688 12.8652Z" fill="#1A4850"/>
<g id="Group_5">
<path id="Vector_20" d="M54.3171 15.4964L54.0747 15.0681C54.4383 14.8846 54.4383 14.6398 54.4383 14.4563C54.3777 14.2115 54.1959 14.028 54.0141 14.028C53.9535 14.028 53.8324 14.0891 53.8324 14.2727L53.4082 14.0891C53.59 13.5997 53.9535 13.5385 54.0747 13.5997C54.4383 13.5997 54.8018 13.9668 54.8624 14.3951C54.9836 14.8234 54.8018 15.2517 54.3171 15.4964Z" fill="#DB614D"/>
</g>
<path id="Vector_21" d="M47.7727 16.2307C47.7727 16.2307 46.5003 11.4582 47.2274 8.093C47.2274 8.093 50.863 3.01456 57.8312 5.52319C57.8312 5.52319 59.8914 8.88842 60.9215 13.5997C60.9215 13.5997 61.1638 11.8865 60.4973 8.15418C59.8308 4.36065 56.4982 2.03558 51.9537 2.76981C47.4092 3.50405 42.5617 8.093 47.7727 16.2307Z" fill="#0E3944"/>
</g>
<path id="Vector_22" d="M55.1069 4.42017C55.1069 4.42017 55.4099 5.6439 54.198 8.88676C54.198 8.88676 53.3497 7.96897 52.3196 8.88676C51.2896 9.80455 49.29 9.49862 48.5629 9.98811C47.8357 10.4776 47.8357 11.5789 47.8357 11.5789C47.8357 11.5789 47.2298 10.1717 47.8357 8.51964C47.8357 8.51964 46.5027 10.294 46.6845 12.4355C46.6845 12.4355 44.8667 12.1296 44.9273 9.07031C44.9879 6.01101 49.3506 0.993755 54.198 1.36087C59.0455 1.72799 60.1968 9.43743 60.1968 9.43743C60.1968 9.43743 59.7726 9.07032 59.0455 9.25387C59.0455 9.25387 58.9243 7.60185 57.8336 5.52153C57.8336 5.52153 58.3184 6.98999 57.8336 8.64201C57.8336 8.64201 56.5006 7.90778 55.4099 8.15252C55.4099 8.09134 56.0764 6.80643 55.1069 4.42017Z" fill="#0E3944"/>
<path id="Vector_23" d="M40.2631 23.2056C42.6262 21.3088 44.444 23.695 44.9287 26.9991C45.3529 30.3031 41.1114 49.8215 37.7787 49.1484C36.5063 48.8425 35.9609 43.7641 35.9609 43.7641C35.9609 43.7641 37.2334 38.2573 38.0817 29.9972C38.5059 26.2037 38.9906 24.1845 40.2631 23.2056Z" fill="#FF9979"/>
<path id="Vector_24" d="M33.3536 46.396C30.1422 43.3367 24.4464 33.1798 22.9922 27.979L25.4159 27C25.4159 27 32.6871 37.524 36.0197 40.155C39.3524 42.786 40.5036 45.7841 39.0494 48.2928C37.5346 50.8014 34.0202 47.069 33.3536 46.396Z" fill="#FF9979"/>
<g id="Group_6">
<path id="Vector_25" d="M24.0231 21.2506C23.8413 24.5547 26.568 25.3501 25.3561 27.9199C25.1137 28.4706 24.7502 28.7153 24.326 28.8377C23.5989 29.0824 22.7506 28.8377 22.2053 28.287C20.9328 27.0021 18.9332 25.5948 17.9032 24.983C16.6913 24.3099 17.3578 24.1264 17.3578 24.1264C17.2366 24.0652 17.1154 24.004 16.9943 24.004C16.1459 23.6369 15.4794 23.5145 16.0854 23.1474C16.7519 22.7191 19.2362 23.6369 19.2362 23.6369C16.0248 21.4954 15.1765 21.9849 15.7218 21.5566C16.5095 20.9447 19.5392 22.352 19.6604 22.4132C17.9637 20.8223 16.7519 20.4552 17.4184 20.2105C18.0849 19.9657 21.4782 22.4132 22.69 23.331C22.993 23.5145 23.1142 23.6981 23.1142 23.6981C23.1748 20.8835 24.0231 21.2506 24.0231 21.2506Z" fill="#FF9979"/>
<path id="Vector_26" d="M22.7497 23.209C23.0527 23.3925 23.1739 23.5761 23.1739 23.5761C23.1739 23.5761 22.6285 24.5551 23.3556 25.84C23.4162 25.84 22.0226 24.9222 22.7497 23.209Z" fill="#FF9679"/>
<path id="Vector_27" d="M19.9651 25.1672C19.6622 24.9837 18.0867 24.0659 17.4202 24.1271C17.299 24.0659 17.1778 24.0047 17.0566 24.0047C17.5414 23.3928 19.6622 24.9225 19.9651 25.1672Z" fill="#FF9679"/>
</g>
<g id="Group_7">
<path id="Vector_28" d="M32.6836 74.4147C32.6836 74.7816 32.3809 75.0873 32.0176 75.0873C31.6543 75.0873 31.3516 74.7816 31.3516 74.4147C31.3516 74.0479 31.6543 73.7422 32.0176 73.7422C32.3809 73.8033 32.6836 74.0479 32.6836 74.4147Z" fill="#60A0BF"/>
<path id="Vector_29" d="M44.2012 78.944C44.2012 79.3109 43.8985 79.6166 43.5352 79.6166C43.1719 79.6166 42.8691 79.3109 42.8691 78.944C42.8691 78.5772 43.1719 78.2715 43.5352 78.2715C43.8985 78.2715 44.2012 78.5772 44.2012 78.944Z" fill="#60A0BF"/>
<path id="Vector_30" d="M54.0157 81.3288C54.0157 81.6957 53.7129 82.0014 53.3496 82.0014C52.9863 82.0014 52.6836 81.6957 52.6836 81.3288C52.6836 80.962 52.9863 80.6562 53.3496 80.6562C53.7129 80.6562 54.0157 80.962 54.0157 81.3288Z" fill="#60A0BF"/>
<path id="Vector_31" d="M38.9278 65.9089C38.9278 66.2757 38.625 66.5814 38.2617 66.5814C37.8984 66.5814 37.5957 66.2757 37.5957 65.9089C37.5957 65.542 37.8984 65.2363 38.2617 65.2363C38.625 65.2363 38.9278 65.542 38.9278 65.9089Z" fill="#60A0BF"/>
<path id="Vector_32" d="M40.4453 72.7611C40.8132 72.7611 41.1114 72.46 41.1114 72.0886C41.1114 71.7171 40.8132 71.416 40.4453 71.416C40.0775 71.416 39.7793 71.7171 39.7793 72.0886C39.7793 72.46 40.0775 72.7611 40.4453 72.7611Z" fill="#60A0BF"/>
<path id="Vector_33" d="M51.3516 75.6374C51.3516 76.0042 51.0489 76.31 50.6856 76.31C50.3223 76.31 50.0195 76.0042 50.0195 75.6374C50.0195 75.2706 50.3223 74.9648 50.6856 74.9648C51.0489 74.9648 51.3516 75.2706 51.3516 75.6374Z" fill="#60A0BF"/>
<path id="Vector_34" d="M52.7422 64.9284C52.7422 65.2953 52.4395 65.601 52.0762 65.601C51.7129 65.601 51.4102 65.2953 51.4102 64.9284C51.4102 64.5616 51.7129 64.2559 52.0762 64.2559C52.4395 64.2559 52.7422 64.5616 52.7422 64.9284Z" fill="#60A0BF"/>
<path id="Vector_35" d="M45.4121 63.3998C45.78 63.3998 46.0782 63.0987 46.0782 62.7272C46.0782 62.3558 45.78 62.0547 45.4121 62.0547C45.0443 62.0547 44.7461 62.3558 44.7461 62.7272C44.7461 63.0987 45.0443 63.3998 45.4121 63.3998Z" fill="#60A0BF"/>
<path id="Vector_36" d="M26.9336 87.2018C26.9336 87.5687 26.6309 87.8744 26.2676 87.8744C25.9043 87.8744 25.6016 87.5687 25.6016 87.2018C25.6016 86.835 25.9043 86.5293 26.2676 86.5293C26.6309 86.5293 26.9336 86.835 26.9336 87.2018Z" fill="#60A0BF"/>
<path id="Vector_37" d="M17.7207 84.3894C17.7207 84.7562 17.418 85.0619 17.0547 85.0619C16.6914 85.0619 16.3887 84.7562 16.3887 84.3894C16.3887 84.0225 16.6914 83.7168 17.0547 83.7168C17.418 83.7779 17.7207 84.0225 17.7207 84.3894Z" fill="#60A0BF"/>
<path id="Vector_38" d="M12.209 79.3087C12.0879 79.4921 11.9063 79.6144 11.6641 79.6144C11.3008 79.6144 10.998 79.3087 10.998 78.9418C10.998 78.8807 10.998 78.7584 11.0586 78.6973C11.4824 78.8807 11.8457 79.0641 12.209 79.3087Z" fill="#60A0BF"/>
<path id="Vector_39" d="M29.5996 96.3803C29.9675 96.3803 30.2657 96.0792 30.2657 95.7077C30.2657 95.3363 29.9675 95.0352 29.5996 95.0352C29.2318 95.0352 28.9336 95.3363 28.9336 95.7077C28.9336 96.0792 29.2318 96.3803 29.5996 96.3803Z" fill="#60A0BF"/>
<path id="Vector_40" d="M13.7207 104.946C13.7207 105.313 13.418 105.619 13.0547 105.619C12.6914 105.619 12.3887 105.313 12.3887 104.946C12.3887 104.579 12.6914 104.273 13.0547 104.273C13.418 104.273 13.7207 104.579 13.7207 104.946Z" fill="#60A0BF"/>
<path id="Vector_41" d="M19.8418 99.9916C20.2097 99.9916 20.5079 99.6905 20.5079 99.319C20.5079 98.9476 20.2097 98.6465 19.8418 98.6465C19.474 98.6465 19.1758 98.9476 19.1758 99.319C19.1758 99.6905 19.474 99.9916 19.8418 99.9916Z" fill="#60A0BF"/>
<path id="Vector_42" d="M9.72268 95.0346C10.0905 95.0346 10.3887 94.7335 10.3887 94.362C10.3887 93.9906 10.0905 93.6895 9.72268 93.6895C9.35483 93.6895 9.05664 93.9906 9.05664 94.362C9.05664 94.7335 9.35483 95.0346 9.72268 95.0346Z" fill="#60A0BF"/>
<path id="Vector_43" d="M18.5098 113.942C18.5098 114.309 18.2071 114.615 17.8438 114.615C17.4805 114.615 17.1777 114.309 17.1777 113.942C17.1777 113.575 17.4805 113.27 17.8438 113.27C18.2071 113.27 18.5098 113.575 18.5098 113.942Z" fill="#60A0BF"/>
<path id="Vector_44" d="M24.6895 79.5554C24.6895 79.9222 24.3868 80.2279 24.0235 80.2279C23.6602 80.2279 23.3574 79.9222 23.3574 79.5554C23.3574 79.1885 23.6602 78.8828 24.0235 78.8828C24.3868 78.944 24.6895 79.2497 24.6895 79.5554Z" fill="#60A0BF"/>
<path id="Vector_45" d="M30.8692 68.6042C30.8692 68.971 30.5664 69.2768 30.2032 69.2768C29.8399 69.2768 29.5371 68.971 29.5371 68.6042C29.5371 68.2374 29.8399 67.9316 30.2032 67.9316C30.5664 67.9316 30.8692 68.2374 30.8692 68.6042Z" fill="#60A0BF"/>
<path id="Vector_46" d="M37.8965 59.4245C37.8965 59.7914 37.5938 60.0971 37.2305 60.0971C36.8672 60.0971 36.5645 59.7914 36.5645 59.4245C36.5645 59.0577 36.8672 58.752 37.2305 58.752C37.6543 58.752 37.8965 59.0577 37.8965 59.4245Z" fill="#60A0BF"/>
<path id="Vector_47" d="M23.6582 72.7604C23.6582 73.1273 23.3555 73.433 22.9922 73.433C22.6289 73.433 22.3262 73.1273 22.3262 72.7604C22.3262 72.3936 22.6289 72.0879 22.9922 72.0879C23.3555 72.0879 23.6582 72.3936 23.6582 72.7604Z" fill="#60A0BF"/>
<path id="Vector_48" d="M31.5352 62.0554C31.5352 62.4222 31.2325 62.7279 30.8692 62.7279C30.5059 62.7279 30.2031 62.4222 30.2031 62.0554C30.2031 61.6885 30.5059 61.3828 30.8692 61.3828C31.2325 61.3828 31.5352 61.6885 31.5352 62.0554Z" fill="#60A0BF"/>
<path id="Vector_49" d="M19.1758 91.4831C19.1758 91.8499 18.8731 92.1557 18.5098 92.1557C18.1465 92.1557 17.8438 91.8499 17.8438 91.4831C17.8438 91.1162 18.1465 90.8105 18.5098 90.8105C18.8731 90.8105 19.1758 91.1162 19.1758 91.4831Z" fill="#60A0BF"/>
<path id="Vector_50" d="M11.0567 85.7331C11.0567 86.1 10.7539 86.4057 10.3906 86.4057C10.0274 86.4057 9.72461 86.1 9.72461 85.7331C9.72461 85.3663 10.0274 85.0605 10.3906 85.0605C10.7539 85.0605 11.0567 85.3663 11.0567 85.7331Z" fill="#60A0BF"/>
<path id="Vector_51" d="M33.959 84.4506C34.3268 84.4506 34.625 84.1495 34.625 83.778C34.625 83.4066 34.3268 83.1055 33.959 83.1055C33.5912 83.1055 33.293 83.4066 33.293 83.778C33.293 84.1495 33.5912 84.4506 33.959 84.4506Z" fill="#60A0BF"/>
<path id="Vector_52" d="M47.3535 87.8744C47.7214 87.8744 48.0196 87.5733 48.0196 87.2018C48.0196 86.8304 47.7214 86.5293 47.3535 86.5293C46.9857 86.5293 46.6875 86.8304 46.6875 87.2018C46.6875 87.5733 46.9857 87.8744 47.3535 87.8744Z" fill="#60A0BF"/>
<path id="Vector_53" d="M47.3477 68.6042C47.3477 68.971 47.045 69.2768 46.6817 69.2768C46.3184 69.2768 46.0156 68.971 46.0156 68.6042C46.0156 68.2374 46.3184 67.9316 46.6817 67.9316C47.045 67.9316 47.3477 68.2374 47.3477 68.6042Z" fill="#60A0BF"/>
<path id="Vector_54" d="M55.1055 69.9479C55.1055 70.3148 54.8028 70.6205 54.4395 70.6205C54.0762 70.6205 53.7734 70.3148 53.7734 69.9479C53.7734 69.5811 54.0762 69.2754 54.4395 69.2754C54.8028 69.2754 55.1055 69.5811 55.1055 69.9479Z" fill="#60A0BF"/>
<path id="Vector_55" d="M39.5957 92.0983C39.5957 92.4652 39.293 92.7709 38.9297 92.7709C38.5664 92.7709 38.2637 92.4652 38.2637 92.0983C38.2637 91.7315 38.5664 91.4258 38.9297 91.4258C39.293 91.4258 39.5957 91.7926 39.5957 92.0983Z" fill="#60A0BF"/>
<path id="Vector_56" d="M33.293 104.396C33.6608 104.396 33.959 104.095 33.959 103.723C33.959 103.352 33.6608 103.051 33.293 103.051C32.9251 103.051 32.627 103.352 32.627 103.723C32.627 104.095 32.9251 104.396 33.293 104.396Z" fill="#60A0BF"/>
<path id="Vector_57" d="M23.416 106.292C23.7839 106.292 24.0821 105.991 24.0821 105.62C24.0821 105.248 23.7839 104.947 23.416 104.947C23.0482 104.947 22.75 105.248 22.75 105.62C22.75 105.991 23.0482 106.292 23.416 106.292Z" fill="#60A0BF"/>
<path id="Vector_58" d="M50.6856 96.3803C51.0534 96.3803 51.3516 96.0792 51.3516 95.7077C51.3516 95.3363 51.0534 95.0352 50.6856 95.0352C50.3177 95.0352 50.0195 95.3363 50.0195 95.7077C50.0195 96.0792 50.3177 96.3803 50.6856 96.3803Z" fill="#60A0BF"/>
<path id="Vector_59" d="M42.3809 100.663C42.3809 101.03 42.0782 101.335 41.7149 101.335C41.3516 101.335 41.0488 101.03 41.0488 100.663C41.0488 100.296 41.3516 99.9902 41.7149 99.9902C42.0782 99.9902 42.3809 100.296 42.3809 100.663Z" fill="#60A0BF"/>
<path id="Vector_60" d="M28.9317 115.229C28.9317 115.596 28.6289 115.902 28.2656 115.902C27.9024 115.902 27.5996 115.596 27.5996 115.229C27.5996 114.862 27.9024 114.557 28.2656 114.557C28.6289 114.557 28.9317 114.862 28.9317 115.229Z" fill="#60A0BF"/>
<path id="Vector_61" d="M38.2617 112.47C38.6296 112.47 38.9278 112.169 38.9278 111.798C38.9278 111.426 38.6296 111.125 38.2617 111.125C37.8939 111.125 37.5957 111.426 37.5957 111.798C37.5957 112.169 37.8939 112.47 38.2617 112.47Z" fill="#60A0BF"/>
<path id="Vector_62" d="M47.8946 108.677C48.2624 108.677 48.5606 108.376 48.5606 108.005C48.5606 107.633 48.2624 107.332 47.8946 107.332C47.5267 107.332 47.2285 107.633 47.2285 108.005C47.2285 108.376 47.5267 108.677 47.8946 108.677Z" fill="#60A0BF"/>
<path id="Vector_63" d="M44.1973 119.204C44.1973 119.571 43.8946 119.876 43.5313 119.876C43.168 119.876 42.8652 119.571 42.8652 119.204C42.8652 118.837 43.168 118.531 43.5313 118.531C43.8946 118.531 44.1973 118.837 44.1973 119.204Z" fill="#60A0BF"/>
</g>
<g id="Group_8">
<path id="Vector_64" d="M43.473 153.594H32.8692C32.2027 151.575 33.4751 149.617 33.2328 147.843C32.8692 144.845 34.5658 146.497 34.5658 146.497C34.8688 143.315 39.2921 142.703 39.2921 144.11C39.2315 146.191 39.5951 147.537 40.201 148.393C41.4129 150.168 43.3518 150.107 43.7154 151.391C43.776 151.514 43.776 151.636 43.776 151.759C44.1395 153.288 43.473 153.594 43.473 153.594Z" fill="#164353"/>
<path id="Vector_65" d="M43.7741 151.762C41.5928 152.251 36.5029 151.578 36.3212 150.293C36.1394 149.07 38.8661 148.458 40.1991 148.396C41.411 150.171 43.35 150.11 43.7135 151.395C43.7741 151.517 43.7741 151.639 43.7741 151.762Z" fill="#205260"/>
</g>
<g id="Group_9">
<path id="Vector_66" d="M-0.153765 70.4997C-1.30504 69.4595 -3.12283 71.1727 -3.12283 71.1727C-3.12283 71.1727 -2.15334 72.6412 -2.75927 73.2531C-3.4258 73.8649 -4.15292 72.4576 -5.42538 73.0695C-5.54656 73.1307 -5.60715 73.1919 -5.72834 73.2531C-6.69783 73.8649 -7.72792 75.0886 -8.57622 76.0064C-8.758 76.19 -8.87919 76.3735 -9.06097 76.5571C-10.0305 77.5973 -12.5148 78.1479 -12.9995 75.4557C-13.4843 72.7636 -10.4546 69.5819 -7.12199 66.645C-3.78936 63.708 -1.6686 65.4824 -1.6686 65.4824C-1.6686 65.4824 -0.941477 66.7061 -0.941477 67.5016C-0.941477 68.2358 -0.274951 68.6641 0.0886078 69.3983C0.573354 70.0714 -0.153765 70.4997 -0.153765 70.4997Z" fill="#164353"/>
</g>
</g>
</svg>
